G04 #@! TF.GenerationSoftware,KiCad,Pcbnew,(5.0.1)-3*
G04 #@! TF.CreationDate,2018-12-28T16:37:43-07:00*
G04 #@! TF.ProjectId,New_battery,4E65775F626174746572792E6B696361,rev?*
G04 #@! TF.SameCoordinates,Original*
G04 #@! TF.FileFunction,Copper,L1,Top,Signal*
G04 #@! TF.FilePolarity,Positive*
%FSLAX46Y46*%
G04 Gerber Fmt 4.6, Leading zero omitted, Abs format (unit mm)*
G04 Created by KiCad (PCBNEW (5.0.1)-3) date 2018-12-28 4:37:43 PM*
%MOMM*%
%LPD*%
G01*
G04 APERTURE LIST*
G04 #@! TA.AperFunction,Conductor*
%ADD10C,0.100000*%
G04 #@! TD*
G04 #@! TA.AperFunction,SMDPad,CuDef*
%ADD11C,1.150000*%
G04 #@! TD*
G04 #@! TA.AperFunction,ComponentPad*
%ADD12C,2.600000*%
G04 #@! TD*
G04 #@! TA.AperFunction,ComponentPad*
%ADD13C,2.400000*%
G04 #@! TD*
G04 #@! TA.AperFunction,ComponentPad*
%ADD14R,2.400000X2.400000*%
G04 #@! TD*
G04 #@! TA.AperFunction,ComponentPad*
%ADD15C,1.500000*%
G04 #@! TD*
G04 #@! TA.AperFunction,SMDPad,CuDef*
%ADD16C,1.175000*%
G04 #@! TD*
G04 #@! TA.AperFunction,SMDPad,CuDef*
%ADD17R,1.550000X2.480000*%
G04 #@! TD*
G04 #@! TA.AperFunction,SMDPad,CuDef*
%ADD18R,0.650000X0.300000*%
G04 #@! TD*
G04 #@! TA.AperFunction,SMDPad,CuDef*
%ADD19R,1.650000X2.400000*%
G04 #@! TD*
G04 #@! TA.AperFunction,SMDPad,CuDef*
%ADD20R,0.600000X0.300000*%
G04 #@! TD*
G04 #@! TA.AperFunction,ViaPad*
%ADD21C,0.800000*%
G04 #@! TD*
G04 #@! TA.AperFunction,Conductor*
%ADD22C,0.250000*%
G04 #@! TD*
G04 #@! TA.AperFunction,Conductor*
%ADD23C,0.254000*%
G04 #@! TD*
G04 APERTURE END LIST*
D10*
G04 #@! TO.N,VDD2*
G04 #@! TO.C,C1*
G36*
X243409505Y-79311204D02*
X243433773Y-79314804D01*
X243457572Y-79320765D01*
X243480671Y-79329030D01*
X243502850Y-79339520D01*
X243523893Y-79352132D01*
X243543599Y-79366747D01*
X243561777Y-79383223D01*
X243578253Y-79401401D01*
X243592868Y-79421107D01*
X243605480Y-79442150D01*
X243615970Y-79464329D01*
X243624235Y-79487428D01*
X243630196Y-79511227D01*
X243633796Y-79535495D01*
X243635000Y-79559999D01*
X243635000Y-80460001D01*
X243633796Y-80484505D01*
X243630196Y-80508773D01*
X243624235Y-80532572D01*
X243615970Y-80555671D01*
X243605480Y-80577850D01*
X243592868Y-80598893D01*
X243578253Y-80618599D01*
X243561777Y-80636777D01*
X243543599Y-80653253D01*
X243523893Y-80667868D01*
X243502850Y-80680480D01*
X243480671Y-80690970D01*
X243457572Y-80699235D01*
X243433773Y-80705196D01*
X243409505Y-80708796D01*
X243385001Y-80710000D01*
X242734999Y-80710000D01*
X242710495Y-80708796D01*
X242686227Y-80705196D01*
X242662428Y-80699235D01*
X242639329Y-80690970D01*
X242617150Y-80680480D01*
X242596107Y-80667868D01*
X242576401Y-80653253D01*
X242558223Y-80636777D01*
X242541747Y-80618599D01*
X242527132Y-80598893D01*
X242514520Y-80577850D01*
X242504030Y-80555671D01*
X242495765Y-80532572D01*
X242489804Y-80508773D01*
X242486204Y-80484505D01*
X242485000Y-80460001D01*
X242485000Y-79559999D01*
X242486204Y-79535495D01*
X242489804Y-79511227D01*
X242495765Y-79487428D01*
X242504030Y-79464329D01*
X242514520Y-79442150D01*
X242527132Y-79421107D01*
X242541747Y-79401401D01*
X242558223Y-79383223D01*
X242576401Y-79366747D01*
X242596107Y-79352132D01*
X242617150Y-79339520D01*
X242639329Y-79329030D01*
X242662428Y-79320765D01*
X242686227Y-79314804D01*
X242710495Y-79311204D01*
X242734999Y-79310000D01*
X243385001Y-79310000D01*
X243409505Y-79311204D01*
X243409505Y-79311204D01*
G37*
D11*
G04 #@! TD*
G04 #@! TO.P,C1,1*
G04 #@! TO.N,VDD2*
X243060000Y-80010000D03*
D10*
G04 #@! TO.N,GND*
G04 #@! TO.C,C1*
G36*
X245459505Y-79311204D02*
X245483773Y-79314804D01*
X245507572Y-79320765D01*
X245530671Y-79329030D01*
X245552850Y-79339520D01*
X245573893Y-79352132D01*
X245593599Y-79366747D01*
X245611777Y-79383223D01*
X245628253Y-79401401D01*
X245642868Y-79421107D01*
X245655480Y-79442150D01*
X245665970Y-79464329D01*
X245674235Y-79487428D01*
X245680196Y-79511227D01*
X245683796Y-79535495D01*
X245685000Y-79559999D01*
X245685000Y-80460001D01*
X245683796Y-80484505D01*
X245680196Y-80508773D01*
X245674235Y-80532572D01*
X245665970Y-80555671D01*
X245655480Y-80577850D01*
X245642868Y-80598893D01*
X245628253Y-80618599D01*
X245611777Y-80636777D01*
X245593599Y-80653253D01*
X245573893Y-80667868D01*
X245552850Y-80680480D01*
X245530671Y-80690970D01*
X245507572Y-80699235D01*
X245483773Y-80705196D01*
X245459505Y-80708796D01*
X245435001Y-80710000D01*
X244784999Y-80710000D01*
X244760495Y-80708796D01*
X244736227Y-80705196D01*
X244712428Y-80699235D01*
X244689329Y-80690970D01*
X244667150Y-80680480D01*
X244646107Y-80667868D01*
X244626401Y-80653253D01*
X244608223Y-80636777D01*
X244591747Y-80618599D01*
X244577132Y-80598893D01*
X244564520Y-80577850D01*
X244554030Y-80555671D01*
X244545765Y-80532572D01*
X244539804Y-80508773D01*
X244536204Y-80484505D01*
X244535000Y-80460001D01*
X244535000Y-79559999D01*
X244536204Y-79535495D01*
X244539804Y-79511227D01*
X244545765Y-79487428D01*
X244554030Y-79464329D01*
X244564520Y-79442150D01*
X244577132Y-79421107D01*
X244591747Y-79401401D01*
X244608223Y-79383223D01*
X244626401Y-79366747D01*
X244646107Y-79352132D01*
X244667150Y-79339520D01*
X244689329Y-79329030D01*
X244712428Y-79320765D01*
X244736227Y-79314804D01*
X244760495Y-79311204D01*
X244784999Y-79310000D01*
X245435001Y-79310000D01*
X245459505Y-79311204D01*
X245459505Y-79311204D01*
G37*
D11*
G04 #@! TD*
G04 #@! TO.P,C1,2*
G04 #@! TO.N,GND*
X245110000Y-80010000D03*
D10*
G04 #@! TO.N,GND*
G04 #@! TO.C,C2*
G36*
X238864505Y-79946204D02*
X238888773Y-79949804D01*
X238912572Y-79955765D01*
X238935671Y-79964030D01*
X238957850Y-79974520D01*
X238978893Y-79987132D01*
X238998599Y-80001747D01*
X239016777Y-80018223D01*
X239033253Y-80036401D01*
X239047868Y-80056107D01*
X239060480Y-80077150D01*
X239070970Y-80099329D01*
X239079235Y-80122428D01*
X239085196Y-80146227D01*
X239088796Y-80170495D01*
X239090000Y-80194999D01*
X239090000Y-81095001D01*
X239088796Y-81119505D01*
X239085196Y-81143773D01*
X239079235Y-81167572D01*
X239070970Y-81190671D01*
X239060480Y-81212850D01*
X239047868Y-81233893D01*
X239033253Y-81253599D01*
X239016777Y-81271777D01*
X238998599Y-81288253D01*
X238978893Y-81302868D01*
X238957850Y-81315480D01*
X238935671Y-81325970D01*
X238912572Y-81334235D01*
X238888773Y-81340196D01*
X238864505Y-81343796D01*
X238840001Y-81345000D01*
X238189999Y-81345000D01*
X238165495Y-81343796D01*
X238141227Y-81340196D01*
X238117428Y-81334235D01*
X238094329Y-81325970D01*
X238072150Y-81315480D01*
X238051107Y-81302868D01*
X238031401Y-81288253D01*
X238013223Y-81271777D01*
X237996747Y-81253599D01*
X237982132Y-81233893D01*
X237969520Y-81212850D01*
X237959030Y-81190671D01*
X237950765Y-81167572D01*
X237944804Y-81143773D01*
X237941204Y-81119505D01*
X237940000Y-81095001D01*
X237940000Y-80194999D01*
X237941204Y-80170495D01*
X237944804Y-80146227D01*
X237950765Y-80122428D01*
X237959030Y-80099329D01*
X237969520Y-80077150D01*
X237982132Y-80056107D01*
X237996747Y-80036401D01*
X238013223Y-80018223D01*
X238031401Y-80001747D01*
X238051107Y-79987132D01*
X238072150Y-79974520D01*
X238094329Y-79964030D01*
X238117428Y-79955765D01*
X238141227Y-79949804D01*
X238165495Y-79946204D01*
X238189999Y-79945000D01*
X238840001Y-79945000D01*
X238864505Y-79946204D01*
X238864505Y-79946204D01*
G37*
D11*
G04 #@! TD*
G04 #@! TO.P,C2,2*
G04 #@! TO.N,GND*
X238515000Y-80645000D03*
D10*
G04 #@! TO.N,VDD1*
G04 #@! TO.C,C2*
G36*
X236814505Y-79946204D02*
X236838773Y-79949804D01*
X236862572Y-79955765D01*
X236885671Y-79964030D01*
X236907850Y-79974520D01*
X236928893Y-79987132D01*
X236948599Y-80001747D01*
X236966777Y-80018223D01*
X236983253Y-80036401D01*
X236997868Y-80056107D01*
X237010480Y-80077150D01*
X237020970Y-80099329D01*
X237029235Y-80122428D01*
X237035196Y-80146227D01*
X237038796Y-80170495D01*
X237040000Y-80194999D01*
X237040000Y-81095001D01*
X237038796Y-81119505D01*
X237035196Y-81143773D01*
X237029235Y-81167572D01*
X237020970Y-81190671D01*
X237010480Y-81212850D01*
X236997868Y-81233893D01*
X236983253Y-81253599D01*
X236966777Y-81271777D01*
X236948599Y-81288253D01*
X236928893Y-81302868D01*
X236907850Y-81315480D01*
X236885671Y-81325970D01*
X236862572Y-81334235D01*
X236838773Y-81340196D01*
X236814505Y-81343796D01*
X236790001Y-81345000D01*
X236139999Y-81345000D01*
X236115495Y-81343796D01*
X236091227Y-81340196D01*
X236067428Y-81334235D01*
X236044329Y-81325970D01*
X236022150Y-81315480D01*
X236001107Y-81302868D01*
X235981401Y-81288253D01*
X235963223Y-81271777D01*
X235946747Y-81253599D01*
X235932132Y-81233893D01*
X235919520Y-81212850D01*
X235909030Y-81190671D01*
X235900765Y-81167572D01*
X235894804Y-81143773D01*
X235891204Y-81119505D01*
X235890000Y-81095001D01*
X235890000Y-80194999D01*
X235891204Y-80170495D01*
X235894804Y-80146227D01*
X235900765Y-80122428D01*
X235909030Y-80099329D01*
X235919520Y-80077150D01*
X235932132Y-80056107D01*
X235946747Y-80036401D01*
X235963223Y-80018223D01*
X235981401Y-80001747D01*
X236001107Y-79987132D01*
X236022150Y-79974520D01*
X236044329Y-79964030D01*
X236067428Y-79955765D01*
X236091227Y-79949804D01*
X236115495Y-79946204D01*
X236139999Y-79945000D01*
X236790001Y-79945000D01*
X236814505Y-79946204D01*
X236814505Y-79946204D01*
G37*
D11*
G04 #@! TD*
G04 #@! TO.P,C2,1*
G04 #@! TO.N,VDD1*
X236465000Y-80645000D03*
D10*
G04 #@! TO.N,Net-(C3-Pad1)*
G04 #@! TO.C,C3*
G36*
X235789505Y-97726204D02*
X235813773Y-97729804D01*
X235837572Y-97735765D01*
X235860671Y-97744030D01*
X235882850Y-97754520D01*
X235903893Y-97767132D01*
X235923599Y-97781747D01*
X235941777Y-97798223D01*
X235958253Y-97816401D01*
X235972868Y-97836107D01*
X235985480Y-97857150D01*
X235995970Y-97879329D01*
X236004235Y-97902428D01*
X236010196Y-97926227D01*
X236013796Y-97950495D01*
X236015000Y-97974999D01*
X236015000Y-98875001D01*
X236013796Y-98899505D01*
X236010196Y-98923773D01*
X236004235Y-98947572D01*
X235995970Y-98970671D01*
X235985480Y-98992850D01*
X235972868Y-99013893D01*
X235958253Y-99033599D01*
X235941777Y-99051777D01*
X235923599Y-99068253D01*
X235903893Y-99082868D01*
X235882850Y-99095480D01*
X235860671Y-99105970D01*
X235837572Y-99114235D01*
X235813773Y-99120196D01*
X235789505Y-99123796D01*
X235765001Y-99125000D01*
X235114999Y-99125000D01*
X235090495Y-99123796D01*
X235066227Y-99120196D01*
X235042428Y-99114235D01*
X235019329Y-99105970D01*
X234997150Y-99095480D01*
X234976107Y-99082868D01*
X234956401Y-99068253D01*
X234938223Y-99051777D01*
X234921747Y-99033599D01*
X234907132Y-99013893D01*
X234894520Y-98992850D01*
X234884030Y-98970671D01*
X234875765Y-98947572D01*
X234869804Y-98923773D01*
X234866204Y-98899505D01*
X234865000Y-98875001D01*
X234865000Y-97974999D01*
X234866204Y-97950495D01*
X234869804Y-97926227D01*
X234875765Y-97902428D01*
X234884030Y-97879329D01*
X234894520Y-97857150D01*
X234907132Y-97836107D01*
X234921747Y-97816401D01*
X234938223Y-97798223D01*
X234956401Y-97781747D01*
X234976107Y-97767132D01*
X234997150Y-97754520D01*
X235019329Y-97744030D01*
X235042428Y-97735765D01*
X235066227Y-97729804D01*
X235090495Y-97726204D01*
X235114999Y-97725000D01*
X235765001Y-97725000D01*
X235789505Y-97726204D01*
X235789505Y-97726204D01*
G37*
D11*
G04 #@! TD*
G04 #@! TO.P,C3,1*
G04 #@! TO.N,Net-(C3-Pad1)*
X235440000Y-98425000D03*
D10*
G04 #@! TO.N,Net-(C3-Pad2)*
G04 #@! TO.C,C3*
G36*
X237839505Y-97726204D02*
X237863773Y-97729804D01*
X237887572Y-97735765D01*
X237910671Y-97744030D01*
X237932850Y-97754520D01*
X237953893Y-97767132D01*
X237973599Y-97781747D01*
X237991777Y-97798223D01*
X238008253Y-97816401D01*
X238022868Y-97836107D01*
X238035480Y-97857150D01*
X238045970Y-97879329D01*
X238054235Y-97902428D01*
X238060196Y-97926227D01*
X238063796Y-97950495D01*
X238065000Y-97974999D01*
X238065000Y-98875001D01*
X238063796Y-98899505D01*
X238060196Y-98923773D01*
X238054235Y-98947572D01*
X238045970Y-98970671D01*
X238035480Y-98992850D01*
X238022868Y-99013893D01*
X238008253Y-99033599D01*
X237991777Y-99051777D01*
X237973599Y-99068253D01*
X237953893Y-99082868D01*
X237932850Y-99095480D01*
X237910671Y-99105970D01*
X237887572Y-99114235D01*
X237863773Y-99120196D01*
X237839505Y-99123796D01*
X237815001Y-99125000D01*
X237164999Y-99125000D01*
X237140495Y-99123796D01*
X237116227Y-99120196D01*
X237092428Y-99114235D01*
X237069329Y-99105970D01*
X237047150Y-99095480D01*
X237026107Y-99082868D01*
X237006401Y-99068253D01*
X236988223Y-99051777D01*
X236971747Y-99033599D01*
X236957132Y-99013893D01*
X236944520Y-98992850D01*
X236934030Y-98970671D01*
X236925765Y-98947572D01*
X236919804Y-98923773D01*
X236916204Y-98899505D01*
X236915000Y-98875001D01*
X236915000Y-97974999D01*
X236916204Y-97950495D01*
X236919804Y-97926227D01*
X236925765Y-97902428D01*
X236934030Y-97879329D01*
X236944520Y-97857150D01*
X236957132Y-97836107D01*
X236971747Y-97816401D01*
X236988223Y-97798223D01*
X237006401Y-97781747D01*
X237026107Y-97767132D01*
X237047150Y-97754520D01*
X237069329Y-97744030D01*
X237092428Y-97735765D01*
X237116227Y-97729804D01*
X237140495Y-97726204D01*
X237164999Y-97725000D01*
X237815001Y-97725000D01*
X237839505Y-97726204D01*
X237839505Y-97726204D01*
G37*
D11*
G04 #@! TD*
G04 #@! TO.P,C3,2*
G04 #@! TO.N,Net-(C3-Pad2)*
X237490000Y-98425000D03*
D10*
G04 #@! TO.N,GND*
G04 #@! TO.C,C4*
G36*
X231099505Y-94551204D02*
X231123773Y-94554804D01*
X231147572Y-94560765D01*
X231170671Y-94569030D01*
X231192850Y-94579520D01*
X231213893Y-94592132D01*
X231233599Y-94606747D01*
X231251777Y-94623223D01*
X231268253Y-94641401D01*
X231282868Y-94661107D01*
X231295480Y-94682150D01*
X231305970Y-94704329D01*
X231314235Y-94727428D01*
X231320196Y-94751227D01*
X231323796Y-94775495D01*
X231325000Y-94799999D01*
X231325000Y-95700001D01*
X231323796Y-95724505D01*
X231320196Y-95748773D01*
X231314235Y-95772572D01*
X231305970Y-95795671D01*
X231295480Y-95817850D01*
X231282868Y-95838893D01*
X231268253Y-95858599D01*
X231251777Y-95876777D01*
X231233599Y-95893253D01*
X231213893Y-95907868D01*
X231192850Y-95920480D01*
X231170671Y-95930970D01*
X231147572Y-95939235D01*
X231123773Y-95945196D01*
X231099505Y-95948796D01*
X231075001Y-95950000D01*
X230424999Y-95950000D01*
X230400495Y-95948796D01*
X230376227Y-95945196D01*
X230352428Y-95939235D01*
X230329329Y-95930970D01*
X230307150Y-95920480D01*
X230286107Y-95907868D01*
X230266401Y-95893253D01*
X230248223Y-95876777D01*
X230231747Y-95858599D01*
X230217132Y-95838893D01*
X230204520Y-95817850D01*
X230194030Y-95795671D01*
X230185765Y-95772572D01*
X230179804Y-95748773D01*
X230176204Y-95724505D01*
X230175000Y-95700001D01*
X230175000Y-94799999D01*
X230176204Y-94775495D01*
X230179804Y-94751227D01*
X230185765Y-94727428D01*
X230194030Y-94704329D01*
X230204520Y-94682150D01*
X230217132Y-94661107D01*
X230231747Y-94641401D01*
X230248223Y-94623223D01*
X230266401Y-94606747D01*
X230286107Y-94592132D01*
X230307150Y-94579520D01*
X230329329Y-94569030D01*
X230352428Y-94560765D01*
X230376227Y-94554804D01*
X230400495Y-94551204D01*
X230424999Y-94550000D01*
X231075001Y-94550000D01*
X231099505Y-94551204D01*
X231099505Y-94551204D01*
G37*
D11*
G04 #@! TD*
G04 #@! TO.P,C4,2*
G04 #@! TO.N,GND*
X230750000Y-95250000D03*
D10*
G04 #@! TO.N,Net-(C3-Pad2)*
G04 #@! TO.C,C4*
G36*
X233149505Y-94551204D02*
X233173773Y-94554804D01*
X233197572Y-94560765D01*
X233220671Y-94569030D01*
X233242850Y-94579520D01*
X233263893Y-94592132D01*
X233283599Y-94606747D01*
X233301777Y-94623223D01*
X233318253Y-94641401D01*
X233332868Y-94661107D01*
X233345480Y-94682150D01*
X233355970Y-94704329D01*
X233364235Y-94727428D01*
X233370196Y-94751227D01*
X233373796Y-94775495D01*
X233375000Y-94799999D01*
X233375000Y-95700001D01*
X233373796Y-95724505D01*
X233370196Y-95748773D01*
X233364235Y-95772572D01*
X233355970Y-95795671D01*
X233345480Y-95817850D01*
X233332868Y-95838893D01*
X233318253Y-95858599D01*
X233301777Y-95876777D01*
X233283599Y-95893253D01*
X233263893Y-95907868D01*
X233242850Y-95920480D01*
X233220671Y-95930970D01*
X233197572Y-95939235D01*
X233173773Y-95945196D01*
X233149505Y-95948796D01*
X233125001Y-95950000D01*
X232474999Y-95950000D01*
X232450495Y-95948796D01*
X232426227Y-95945196D01*
X232402428Y-95939235D01*
X232379329Y-95930970D01*
X232357150Y-95920480D01*
X232336107Y-95907868D01*
X232316401Y-95893253D01*
X232298223Y-95876777D01*
X232281747Y-95858599D01*
X232267132Y-95838893D01*
X232254520Y-95817850D01*
X232244030Y-95795671D01*
X232235765Y-95772572D01*
X232229804Y-95748773D01*
X232226204Y-95724505D01*
X232225000Y-95700001D01*
X232225000Y-94799999D01*
X232226204Y-94775495D01*
X232229804Y-94751227D01*
X232235765Y-94727428D01*
X232244030Y-94704329D01*
X232254520Y-94682150D01*
X232267132Y-94661107D01*
X232281747Y-94641401D01*
X232298223Y-94623223D01*
X232316401Y-94606747D01*
X232336107Y-94592132D01*
X232357150Y-94579520D01*
X232379329Y-94569030D01*
X232402428Y-94560765D01*
X232426227Y-94554804D01*
X232450495Y-94551204D01*
X232474999Y-94550000D01*
X233125001Y-94550000D01*
X233149505Y-94551204D01*
X233149505Y-94551204D01*
G37*
D11*
G04 #@! TD*
G04 #@! TO.P,C4,1*
G04 #@! TO.N,Net-(C3-Pad2)*
X232800000Y-95250000D03*
D10*
G04 #@! TO.N,GND*
G04 #@! TO.C,C5*
G36*
X234519505Y-110426204D02*
X234543773Y-110429804D01*
X234567572Y-110435765D01*
X234590671Y-110444030D01*
X234612850Y-110454520D01*
X234633893Y-110467132D01*
X234653599Y-110481747D01*
X234671777Y-110498223D01*
X234688253Y-110516401D01*
X234702868Y-110536107D01*
X234715480Y-110557150D01*
X234725970Y-110579329D01*
X234734235Y-110602428D01*
X234740196Y-110626227D01*
X234743796Y-110650495D01*
X234745000Y-110674999D01*
X234745000Y-111575001D01*
X234743796Y-111599505D01*
X234740196Y-111623773D01*
X234734235Y-111647572D01*
X234725970Y-111670671D01*
X234715480Y-111692850D01*
X234702868Y-111713893D01*
X234688253Y-111733599D01*
X234671777Y-111751777D01*
X234653599Y-111768253D01*
X234633893Y-111782868D01*
X234612850Y-111795480D01*
X234590671Y-111805970D01*
X234567572Y-111814235D01*
X234543773Y-111820196D01*
X234519505Y-111823796D01*
X234495001Y-111825000D01*
X233844999Y-111825000D01*
X233820495Y-111823796D01*
X233796227Y-111820196D01*
X233772428Y-111814235D01*
X233749329Y-111805970D01*
X233727150Y-111795480D01*
X233706107Y-111782868D01*
X233686401Y-111768253D01*
X233668223Y-111751777D01*
X233651747Y-111733599D01*
X233637132Y-111713893D01*
X233624520Y-111692850D01*
X233614030Y-111670671D01*
X233605765Y-111647572D01*
X233599804Y-111623773D01*
X233596204Y-111599505D01*
X233595000Y-111575001D01*
X233595000Y-110674999D01*
X233596204Y-110650495D01*
X233599804Y-110626227D01*
X233605765Y-110602428D01*
X233614030Y-110579329D01*
X233624520Y-110557150D01*
X233637132Y-110536107D01*
X233651747Y-110516401D01*
X233668223Y-110498223D01*
X233686401Y-110481747D01*
X233706107Y-110467132D01*
X233727150Y-110454520D01*
X233749329Y-110444030D01*
X233772428Y-110435765D01*
X233796227Y-110429804D01*
X233820495Y-110426204D01*
X233844999Y-110425000D01*
X234495001Y-110425000D01*
X234519505Y-110426204D01*
X234519505Y-110426204D01*
G37*
D11*
G04 #@! TD*
G04 #@! TO.P,C5,2*
G04 #@! TO.N,GND*
X234170000Y-111125000D03*
D10*
G04 #@! TO.N,Net-(C5-Pad1)*
G04 #@! TO.C,C5*
G36*
X236569505Y-110426204D02*
X236593773Y-110429804D01*
X236617572Y-110435765D01*
X236640671Y-110444030D01*
X236662850Y-110454520D01*
X236683893Y-110467132D01*
X236703599Y-110481747D01*
X236721777Y-110498223D01*
X236738253Y-110516401D01*
X236752868Y-110536107D01*
X236765480Y-110557150D01*
X236775970Y-110579329D01*
X236784235Y-110602428D01*
X236790196Y-110626227D01*
X236793796Y-110650495D01*
X236795000Y-110674999D01*
X236795000Y-111575001D01*
X236793796Y-111599505D01*
X236790196Y-111623773D01*
X236784235Y-111647572D01*
X236775970Y-111670671D01*
X236765480Y-111692850D01*
X236752868Y-111713893D01*
X236738253Y-111733599D01*
X236721777Y-111751777D01*
X236703599Y-111768253D01*
X236683893Y-111782868D01*
X236662850Y-111795480D01*
X236640671Y-111805970D01*
X236617572Y-111814235D01*
X236593773Y-111820196D01*
X236569505Y-111823796D01*
X236545001Y-111825000D01*
X235894999Y-111825000D01*
X235870495Y-111823796D01*
X235846227Y-111820196D01*
X235822428Y-111814235D01*
X235799329Y-111805970D01*
X235777150Y-111795480D01*
X235756107Y-111782868D01*
X235736401Y-111768253D01*
X235718223Y-111751777D01*
X235701747Y-111733599D01*
X235687132Y-111713893D01*
X235674520Y-111692850D01*
X235664030Y-111670671D01*
X235655765Y-111647572D01*
X235649804Y-111623773D01*
X235646204Y-111599505D01*
X235645000Y-111575001D01*
X235645000Y-110674999D01*
X235646204Y-110650495D01*
X235649804Y-110626227D01*
X235655765Y-110602428D01*
X235664030Y-110579329D01*
X235674520Y-110557150D01*
X235687132Y-110536107D01*
X235701747Y-110516401D01*
X235718223Y-110498223D01*
X235736401Y-110481747D01*
X235756107Y-110467132D01*
X235777150Y-110454520D01*
X235799329Y-110444030D01*
X235822428Y-110435765D01*
X235846227Y-110429804D01*
X235870495Y-110426204D01*
X235894999Y-110425000D01*
X236545001Y-110425000D01*
X236569505Y-110426204D01*
X236569505Y-110426204D01*
G37*
D11*
G04 #@! TD*
G04 #@! TO.P,C5,1*
G04 #@! TO.N,Net-(C5-Pad1)*
X236220000Y-111125000D03*
D10*
G04 #@! TO.N,Net-(C6-Pad1)*
G04 #@! TO.C,C6*
G36*
X251664505Y-97726204D02*
X251688773Y-97729804D01*
X251712572Y-97735765D01*
X251735671Y-97744030D01*
X251757850Y-97754520D01*
X251778893Y-97767132D01*
X251798599Y-97781747D01*
X251816777Y-97798223D01*
X251833253Y-97816401D01*
X251847868Y-97836107D01*
X251860480Y-97857150D01*
X251870970Y-97879329D01*
X251879235Y-97902428D01*
X251885196Y-97926227D01*
X251888796Y-97950495D01*
X251890000Y-97974999D01*
X251890000Y-98875001D01*
X251888796Y-98899505D01*
X251885196Y-98923773D01*
X251879235Y-98947572D01*
X251870970Y-98970671D01*
X251860480Y-98992850D01*
X251847868Y-99013893D01*
X251833253Y-99033599D01*
X251816777Y-99051777D01*
X251798599Y-99068253D01*
X251778893Y-99082868D01*
X251757850Y-99095480D01*
X251735671Y-99105970D01*
X251712572Y-99114235D01*
X251688773Y-99120196D01*
X251664505Y-99123796D01*
X251640001Y-99125000D01*
X250989999Y-99125000D01*
X250965495Y-99123796D01*
X250941227Y-99120196D01*
X250917428Y-99114235D01*
X250894329Y-99105970D01*
X250872150Y-99095480D01*
X250851107Y-99082868D01*
X250831401Y-99068253D01*
X250813223Y-99051777D01*
X250796747Y-99033599D01*
X250782132Y-99013893D01*
X250769520Y-98992850D01*
X250759030Y-98970671D01*
X250750765Y-98947572D01*
X250744804Y-98923773D01*
X250741204Y-98899505D01*
X250740000Y-98875001D01*
X250740000Y-97974999D01*
X250741204Y-97950495D01*
X250744804Y-97926227D01*
X250750765Y-97902428D01*
X250759030Y-97879329D01*
X250769520Y-97857150D01*
X250782132Y-97836107D01*
X250796747Y-97816401D01*
X250813223Y-97798223D01*
X250831401Y-97781747D01*
X250851107Y-97767132D01*
X250872150Y-97754520D01*
X250894329Y-97744030D01*
X250917428Y-97735765D01*
X250941227Y-97729804D01*
X250965495Y-97726204D01*
X250989999Y-97725000D01*
X251640001Y-97725000D01*
X251664505Y-97726204D01*
X251664505Y-97726204D01*
G37*
D11*
G04 #@! TD*
G04 #@! TO.P,C6,1*
G04 #@! TO.N,Net-(C6-Pad1)*
X251315000Y-98425000D03*
D10*
G04 #@! TO.N,GND*
G04 #@! TO.C,C6*
G36*
X253714505Y-97726204D02*
X253738773Y-97729804D01*
X253762572Y-97735765D01*
X253785671Y-97744030D01*
X253807850Y-97754520D01*
X253828893Y-97767132D01*
X253848599Y-97781747D01*
X253866777Y-97798223D01*
X253883253Y-97816401D01*
X253897868Y-97836107D01*
X253910480Y-97857150D01*
X253920970Y-97879329D01*
X253929235Y-97902428D01*
X253935196Y-97926227D01*
X253938796Y-97950495D01*
X253940000Y-97974999D01*
X253940000Y-98875001D01*
X253938796Y-98899505D01*
X253935196Y-98923773D01*
X253929235Y-98947572D01*
X253920970Y-98970671D01*
X253910480Y-98992850D01*
X253897868Y-99013893D01*
X253883253Y-99033599D01*
X253866777Y-99051777D01*
X253848599Y-99068253D01*
X253828893Y-99082868D01*
X253807850Y-99095480D01*
X253785671Y-99105970D01*
X253762572Y-99114235D01*
X253738773Y-99120196D01*
X253714505Y-99123796D01*
X253690001Y-99125000D01*
X253039999Y-99125000D01*
X253015495Y-99123796D01*
X252991227Y-99120196D01*
X252967428Y-99114235D01*
X252944329Y-99105970D01*
X252922150Y-99095480D01*
X252901107Y-99082868D01*
X252881401Y-99068253D01*
X252863223Y-99051777D01*
X252846747Y-99033599D01*
X252832132Y-99013893D01*
X252819520Y-98992850D01*
X252809030Y-98970671D01*
X252800765Y-98947572D01*
X252794804Y-98923773D01*
X252791204Y-98899505D01*
X252790000Y-98875001D01*
X252790000Y-97974999D01*
X252791204Y-97950495D01*
X252794804Y-97926227D01*
X252800765Y-97902428D01*
X252809030Y-97879329D01*
X252819520Y-97857150D01*
X252832132Y-97836107D01*
X252846747Y-97816401D01*
X252863223Y-97798223D01*
X252881401Y-97781747D01*
X252901107Y-97767132D01*
X252922150Y-97754520D01*
X252944329Y-97744030D01*
X252967428Y-97735765D01*
X252991227Y-97729804D01*
X253015495Y-97726204D01*
X253039999Y-97725000D01*
X253690001Y-97725000D01*
X253714505Y-97726204D01*
X253714505Y-97726204D01*
G37*
D11*
G04 #@! TD*
G04 #@! TO.P,C6,2*
G04 #@! TO.N,GND*
X253365000Y-98425000D03*
D10*
G04 #@! TO.N,Net-(D1-Pad1)*
G04 #@! TO.C,D1*
G36*
X241774505Y-66346204D02*
X241798773Y-66349804D01*
X241822572Y-66355765D01*
X241845671Y-66364030D01*
X241867850Y-66374520D01*
X241888893Y-66387132D01*
X241908599Y-66401747D01*
X241926777Y-66418223D01*
X241943253Y-66436401D01*
X241957868Y-66456107D01*
X241970480Y-66477150D01*
X241980970Y-66499329D01*
X241989235Y-66522428D01*
X241995196Y-66546227D01*
X241998796Y-66570495D01*
X242000000Y-66594999D01*
X242000000Y-67245001D01*
X241998796Y-67269505D01*
X241995196Y-67293773D01*
X241989235Y-67317572D01*
X241980970Y-67340671D01*
X241970480Y-67362850D01*
X241957868Y-67383893D01*
X241943253Y-67403599D01*
X241926777Y-67421777D01*
X241908599Y-67438253D01*
X241888893Y-67452868D01*
X241867850Y-67465480D01*
X241845671Y-67475970D01*
X241822572Y-67484235D01*
X241798773Y-67490196D01*
X241774505Y-67493796D01*
X241750001Y-67495000D01*
X240849999Y-67495000D01*
X240825495Y-67493796D01*
X240801227Y-67490196D01*
X240777428Y-67484235D01*
X240754329Y-67475970D01*
X240732150Y-67465480D01*
X240711107Y-67452868D01*
X240691401Y-67438253D01*
X240673223Y-67421777D01*
X240656747Y-67403599D01*
X240642132Y-67383893D01*
X240629520Y-67362850D01*
X240619030Y-67340671D01*
X240610765Y-67317572D01*
X240604804Y-67293773D01*
X240601204Y-67269505D01*
X240600000Y-67245001D01*
X240600000Y-66594999D01*
X240601204Y-66570495D01*
X240604804Y-66546227D01*
X240610765Y-66522428D01*
X240619030Y-66499329D01*
X240629520Y-66477150D01*
X240642132Y-66456107D01*
X240656747Y-66436401D01*
X240673223Y-66418223D01*
X240691401Y-66401747D01*
X240711107Y-66387132D01*
X240732150Y-66374520D01*
X240754329Y-66364030D01*
X240777428Y-66355765D01*
X240801227Y-66349804D01*
X240825495Y-66346204D01*
X240849999Y-66345000D01*
X241750001Y-66345000D01*
X241774505Y-66346204D01*
X241774505Y-66346204D01*
G37*
D11*
G04 #@! TD*
G04 #@! TO.P,D1,1*
G04 #@! TO.N,Net-(D1-Pad1)*
X241300000Y-66920000D03*
D10*
G04 #@! TO.N,VDD2*
G04 #@! TO.C,D1*
G36*
X241774505Y-68396204D02*
X241798773Y-68399804D01*
X241822572Y-68405765D01*
X241845671Y-68414030D01*
X241867850Y-68424520D01*
X241888893Y-68437132D01*
X241908599Y-68451747D01*
X241926777Y-68468223D01*
X241943253Y-68486401D01*
X241957868Y-68506107D01*
X241970480Y-68527150D01*
X241980970Y-68549329D01*
X241989235Y-68572428D01*
X241995196Y-68596227D01*
X241998796Y-68620495D01*
X242000000Y-68644999D01*
X242000000Y-69295001D01*
X241998796Y-69319505D01*
X241995196Y-69343773D01*
X241989235Y-69367572D01*
X241980970Y-69390671D01*
X241970480Y-69412850D01*
X241957868Y-69433893D01*
X241943253Y-69453599D01*
X241926777Y-69471777D01*
X241908599Y-69488253D01*
X241888893Y-69502868D01*
X241867850Y-69515480D01*
X241845671Y-69525970D01*
X241822572Y-69534235D01*
X241798773Y-69540196D01*
X241774505Y-69543796D01*
X241750001Y-69545000D01*
X240849999Y-69545000D01*
X240825495Y-69543796D01*
X240801227Y-69540196D01*
X240777428Y-69534235D01*
X240754329Y-69525970D01*
X240732150Y-69515480D01*
X240711107Y-69502868D01*
X240691401Y-69488253D01*
X240673223Y-69471777D01*
X240656747Y-69453599D01*
X240642132Y-69433893D01*
X240629520Y-69412850D01*
X240619030Y-69390671D01*
X240610765Y-69367572D01*
X240604804Y-69343773D01*
X240601204Y-69319505D01*
X240600000Y-69295001D01*
X240600000Y-68644999D01*
X240601204Y-68620495D01*
X240604804Y-68596227D01*
X240610765Y-68572428D01*
X240619030Y-68549329D01*
X240629520Y-68527150D01*
X240642132Y-68506107D01*
X240656747Y-68486401D01*
X240673223Y-68468223D01*
X240691401Y-68451747D01*
X240711107Y-68437132D01*
X240732150Y-68424520D01*
X240754329Y-68414030D01*
X240777428Y-68405765D01*
X240801227Y-68399804D01*
X240825495Y-68396204D01*
X240849999Y-68395000D01*
X241750001Y-68395000D01*
X241774505Y-68396204D01*
X241774505Y-68396204D01*
G37*
D11*
G04 #@! TD*
G04 #@! TO.P,D1,2*
G04 #@! TO.N,VDD2*
X241300000Y-68970000D03*
D12*
G04 #@! TO.P,J1,1*
G04 #@! TO.N,VDD1*
X248460000Y-88900000D03*
G04 #@! TO.P,J1,2*
G04 #@! TO.N,GND*
X254460000Y-88900000D03*
G04 #@! TO.P,J1,3*
X251460000Y-84200000D03*
G04 #@! TD*
D13*
G04 #@! TO.P,J3,2*
G04 #@! TO.N,Net-(J3-Pad2)*
X220980000Y-88345000D03*
D14*
G04 #@! TO.P,J3,1*
G04 #@! TO.N,GND*
X220980000Y-93345000D03*
G04 #@! TD*
G04 #@! TO.P,J4,1*
G04 #@! TO.N,Net-(J3-Pad2)*
X220980000Y-76835000D03*
D13*
G04 #@! TO.P,J4,2*
G04 #@! TO.N,VDD1*
X220980000Y-71835000D03*
G04 #@! TD*
D15*
G04 #@! TO.P,J5,1*
G04 #@! TO.N,GND*
X257205000Y-109450000D03*
G04 #@! TO.P,J5,2*
G04 #@! TO.N,Net-(J5-Pad2)*
X257205000Y-106450000D03*
G04 #@! TO.P,J5,3*
G04 #@! TO.N,N/C*
X260205000Y-109450000D03*
G04 #@! TO.P,J5,4*
X260205000Y-106450000D03*
G04 #@! TD*
D12*
G04 #@! TO.P,J6,3*
G04 #@! TO.N,GND*
X251460000Y-69595000D03*
G04 #@! TO.P,J6,2*
X254460000Y-74295000D03*
G04 #@! TO.P,J6,1*
G04 #@! TO.N,VDD2*
X248460000Y-74295000D03*
G04 #@! TD*
D10*
G04 #@! TO.N,Net-(R1-Pad2)*
G04 #@! TO.C,R1*
G36*
X244432004Y-66246204D02*
X244456273Y-66249804D01*
X244480071Y-66255765D01*
X244503171Y-66264030D01*
X244525349Y-66274520D01*
X244546393Y-66287133D01*
X244566098Y-66301747D01*
X244584277Y-66318223D01*
X244600753Y-66336402D01*
X244615367Y-66356107D01*
X244627980Y-66377151D01*
X244638470Y-66399329D01*
X244646735Y-66422429D01*
X244652696Y-66446227D01*
X244656296Y-66470496D01*
X244657500Y-66495000D01*
X244657500Y-69395000D01*
X244656296Y-69419504D01*
X244652696Y-69443773D01*
X244646735Y-69467571D01*
X244638470Y-69490671D01*
X244627980Y-69512849D01*
X244615367Y-69533893D01*
X244600753Y-69553598D01*
X244584277Y-69571777D01*
X244566098Y-69588253D01*
X244546393Y-69602867D01*
X244525349Y-69615480D01*
X244503171Y-69625970D01*
X244480071Y-69634235D01*
X244456273Y-69640196D01*
X244432004Y-69643796D01*
X244407500Y-69645000D01*
X243732500Y-69645000D01*
X243707996Y-69643796D01*
X243683727Y-69640196D01*
X243659929Y-69634235D01*
X243636829Y-69625970D01*
X243614651Y-69615480D01*
X243593607Y-69602867D01*
X243573902Y-69588253D01*
X243555723Y-69571777D01*
X243539247Y-69553598D01*
X243524633Y-69533893D01*
X243512020Y-69512849D01*
X243501530Y-69490671D01*
X243493265Y-69467571D01*
X243487304Y-69443773D01*
X243483704Y-69419504D01*
X243482500Y-69395000D01*
X243482500Y-66495000D01*
X243483704Y-66470496D01*
X243487304Y-66446227D01*
X243493265Y-66422429D01*
X243501530Y-66399329D01*
X243512020Y-66377151D01*
X243524633Y-66356107D01*
X243539247Y-66336402D01*
X243555723Y-66318223D01*
X243573902Y-66301747D01*
X243593607Y-66287133D01*
X243614651Y-66274520D01*
X243636829Y-66264030D01*
X243659929Y-66255765D01*
X243683727Y-66249804D01*
X243707996Y-66246204D01*
X243732500Y-66245000D01*
X244407500Y-66245000D01*
X244432004Y-66246204D01*
X244432004Y-66246204D01*
G37*
D16*
G04 #@! TD*
G04 #@! TO.P,R1,2*
G04 #@! TO.N,Net-(R1-Pad2)*
X244070000Y-67945000D03*
D10*
G04 #@! TO.N,Net-(D1-Pad1)*
G04 #@! TO.C,R1*
G36*
X246107004Y-66246204D02*
X246131273Y-66249804D01*
X246155071Y-66255765D01*
X246178171Y-66264030D01*
X246200349Y-66274520D01*
X246221393Y-66287133D01*
X246241098Y-66301747D01*
X246259277Y-66318223D01*
X246275753Y-66336402D01*
X246290367Y-66356107D01*
X246302980Y-66377151D01*
X246313470Y-66399329D01*
X246321735Y-66422429D01*
X246327696Y-66446227D01*
X246331296Y-66470496D01*
X246332500Y-66495000D01*
X246332500Y-69395000D01*
X246331296Y-69419504D01*
X246327696Y-69443773D01*
X246321735Y-69467571D01*
X246313470Y-69490671D01*
X246302980Y-69512849D01*
X246290367Y-69533893D01*
X246275753Y-69553598D01*
X246259277Y-69571777D01*
X246241098Y-69588253D01*
X246221393Y-69602867D01*
X246200349Y-69615480D01*
X246178171Y-69625970D01*
X246155071Y-69634235D01*
X246131273Y-69640196D01*
X246107004Y-69643796D01*
X246082500Y-69645000D01*
X245407500Y-69645000D01*
X245382996Y-69643796D01*
X245358727Y-69640196D01*
X245334929Y-69634235D01*
X245311829Y-69625970D01*
X245289651Y-69615480D01*
X245268607Y-69602867D01*
X245248902Y-69588253D01*
X245230723Y-69571777D01*
X245214247Y-69553598D01*
X245199633Y-69533893D01*
X245187020Y-69512849D01*
X245176530Y-69490671D01*
X245168265Y-69467571D01*
X245162304Y-69443773D01*
X245158704Y-69419504D01*
X245157500Y-69395000D01*
X245157500Y-66495000D01*
X245158704Y-66470496D01*
X245162304Y-66446227D01*
X245168265Y-66422429D01*
X245176530Y-66399329D01*
X245187020Y-66377151D01*
X245199633Y-66356107D01*
X245214247Y-66336402D01*
X245230723Y-66318223D01*
X245248902Y-66301747D01*
X245268607Y-66287133D01*
X245289651Y-66274520D01*
X245311829Y-66264030D01*
X245334929Y-66255765D01*
X245358727Y-66249804D01*
X245382996Y-66246204D01*
X245407500Y-66245000D01*
X246082500Y-66245000D01*
X246107004Y-66246204D01*
X246107004Y-66246204D01*
G37*
D16*
G04 #@! TD*
G04 #@! TO.P,R1,1*
G04 #@! TO.N,Net-(D1-Pad1)*
X245745000Y-67945000D03*
D10*
G04 #@! TO.N,Net-(R2-Pad1)*
G04 #@! TO.C,R2*
G36*
X236784504Y-72596204D02*
X236808773Y-72599804D01*
X236832571Y-72605765D01*
X236855671Y-72614030D01*
X236877849Y-72624520D01*
X236898893Y-72637133D01*
X236918598Y-72651747D01*
X236936777Y-72668223D01*
X236953253Y-72686402D01*
X236967867Y-72706107D01*
X236980480Y-72727151D01*
X236990970Y-72749329D01*
X236999235Y-72772429D01*
X237005196Y-72796227D01*
X237008796Y-72820496D01*
X237010000Y-72845000D01*
X237010000Y-75745000D01*
X237008796Y-75769504D01*
X237005196Y-75793773D01*
X236999235Y-75817571D01*
X236990970Y-75840671D01*
X236980480Y-75862849D01*
X236967867Y-75883893D01*
X236953253Y-75903598D01*
X236936777Y-75921777D01*
X236918598Y-75938253D01*
X236898893Y-75952867D01*
X236877849Y-75965480D01*
X236855671Y-75975970D01*
X236832571Y-75984235D01*
X236808773Y-75990196D01*
X236784504Y-75993796D01*
X236760000Y-75995000D01*
X236085000Y-75995000D01*
X236060496Y-75993796D01*
X236036227Y-75990196D01*
X236012429Y-75984235D01*
X235989329Y-75975970D01*
X235967151Y-75965480D01*
X235946107Y-75952867D01*
X235926402Y-75938253D01*
X235908223Y-75921777D01*
X235891747Y-75903598D01*
X235877133Y-75883893D01*
X235864520Y-75862849D01*
X235854030Y-75840671D01*
X235845765Y-75817571D01*
X235839804Y-75793773D01*
X235836204Y-75769504D01*
X235835000Y-75745000D01*
X235835000Y-72845000D01*
X235836204Y-72820496D01*
X235839804Y-72796227D01*
X235845765Y-72772429D01*
X235854030Y-72749329D01*
X235864520Y-72727151D01*
X235877133Y-72706107D01*
X235891747Y-72686402D01*
X235908223Y-72668223D01*
X235926402Y-72651747D01*
X235946107Y-72637133D01*
X235967151Y-72624520D01*
X235989329Y-72614030D01*
X236012429Y-72605765D01*
X236036227Y-72599804D01*
X236060496Y-72596204D01*
X236085000Y-72595000D01*
X236760000Y-72595000D01*
X236784504Y-72596204D01*
X236784504Y-72596204D01*
G37*
D16*
G04 #@! TD*
G04 #@! TO.P,R2,1*
G04 #@! TO.N,Net-(R2-Pad1)*
X236422500Y-74295000D03*
D10*
G04 #@! TO.N,GND*
G04 #@! TO.C,R2*
G36*
X235109504Y-72596204D02*
X235133773Y-72599804D01*
X235157571Y-72605765D01*
X235180671Y-72614030D01*
X235202849Y-72624520D01*
X235223893Y-72637133D01*
X235243598Y-72651747D01*
X235261777Y-72668223D01*
X235278253Y-72686402D01*
X235292867Y-72706107D01*
X235305480Y-72727151D01*
X235315970Y-72749329D01*
X235324235Y-72772429D01*
X235330196Y-72796227D01*
X235333796Y-72820496D01*
X235335000Y-72845000D01*
X235335000Y-75745000D01*
X235333796Y-75769504D01*
X235330196Y-75793773D01*
X235324235Y-75817571D01*
X235315970Y-75840671D01*
X235305480Y-75862849D01*
X235292867Y-75883893D01*
X235278253Y-75903598D01*
X235261777Y-75921777D01*
X235243598Y-75938253D01*
X235223893Y-75952867D01*
X235202849Y-75965480D01*
X235180671Y-75975970D01*
X235157571Y-75984235D01*
X235133773Y-75990196D01*
X235109504Y-75993796D01*
X235085000Y-75995000D01*
X234410000Y-75995000D01*
X234385496Y-75993796D01*
X234361227Y-75990196D01*
X234337429Y-75984235D01*
X234314329Y-75975970D01*
X234292151Y-75965480D01*
X234271107Y-75952867D01*
X234251402Y-75938253D01*
X234233223Y-75921777D01*
X234216747Y-75903598D01*
X234202133Y-75883893D01*
X234189520Y-75862849D01*
X234179030Y-75840671D01*
X234170765Y-75817571D01*
X234164804Y-75793773D01*
X234161204Y-75769504D01*
X234160000Y-75745000D01*
X234160000Y-72845000D01*
X234161204Y-72820496D01*
X234164804Y-72796227D01*
X234170765Y-72772429D01*
X234179030Y-72749329D01*
X234189520Y-72727151D01*
X234202133Y-72706107D01*
X234216747Y-72686402D01*
X234233223Y-72668223D01*
X234251402Y-72651747D01*
X234271107Y-72637133D01*
X234292151Y-72624520D01*
X234314329Y-72614030D01*
X234337429Y-72605765D01*
X234361227Y-72599804D01*
X234385496Y-72596204D01*
X234410000Y-72595000D01*
X235085000Y-72595000D01*
X235109504Y-72596204D01*
X235109504Y-72596204D01*
G37*
D16*
G04 #@! TD*
G04 #@! TO.P,R2,2*
G04 #@! TO.N,GND*
X234747500Y-74295000D03*
D10*
G04 #@! TO.N,Net-(J3-Pad2)*
G04 #@! TO.C,R3*
G36*
X231097004Y-99266204D02*
X231121273Y-99269804D01*
X231145071Y-99275765D01*
X231168171Y-99284030D01*
X231190349Y-99294520D01*
X231211393Y-99307133D01*
X231231098Y-99321747D01*
X231249277Y-99338223D01*
X231265753Y-99356402D01*
X231280367Y-99376107D01*
X231292980Y-99397151D01*
X231303470Y-99419329D01*
X231311735Y-99442429D01*
X231317696Y-99466227D01*
X231321296Y-99490496D01*
X231322500Y-99515000D01*
X231322500Y-102415000D01*
X231321296Y-102439504D01*
X231317696Y-102463773D01*
X231311735Y-102487571D01*
X231303470Y-102510671D01*
X231292980Y-102532849D01*
X231280367Y-102553893D01*
X231265753Y-102573598D01*
X231249277Y-102591777D01*
X231231098Y-102608253D01*
X231211393Y-102622867D01*
X231190349Y-102635480D01*
X231168171Y-102645970D01*
X231145071Y-102654235D01*
X231121273Y-102660196D01*
X231097004Y-102663796D01*
X231072500Y-102665000D01*
X230397500Y-102665000D01*
X230372996Y-102663796D01*
X230348727Y-102660196D01*
X230324929Y-102654235D01*
X230301829Y-102645970D01*
X230279651Y-102635480D01*
X230258607Y-102622867D01*
X230238902Y-102608253D01*
X230220723Y-102591777D01*
X230204247Y-102573598D01*
X230189633Y-102553893D01*
X230177020Y-102532849D01*
X230166530Y-102510671D01*
X230158265Y-102487571D01*
X230152304Y-102463773D01*
X230148704Y-102439504D01*
X230147500Y-102415000D01*
X230147500Y-99515000D01*
X230148704Y-99490496D01*
X230152304Y-99466227D01*
X230158265Y-99442429D01*
X230166530Y-99419329D01*
X230177020Y-99397151D01*
X230189633Y-99376107D01*
X230204247Y-99356402D01*
X230220723Y-99338223D01*
X230238902Y-99321747D01*
X230258607Y-99307133D01*
X230279651Y-99294520D01*
X230301829Y-99284030D01*
X230324929Y-99275765D01*
X230348727Y-99269804D01*
X230372996Y-99266204D01*
X230397500Y-99265000D01*
X231072500Y-99265000D01*
X231097004Y-99266204D01*
X231097004Y-99266204D01*
G37*
D16*
G04 #@! TD*
G04 #@! TO.P,R3,1*
G04 #@! TO.N,Net-(J3-Pad2)*
X230735000Y-100965000D03*
D10*
G04 #@! TO.N,Net-(C3-Pad2)*
G04 #@! TO.C,R3*
G36*
X232772004Y-99266204D02*
X232796273Y-99269804D01*
X232820071Y-99275765D01*
X232843171Y-99284030D01*
X232865349Y-99294520D01*
X232886393Y-99307133D01*
X232906098Y-99321747D01*
X232924277Y-99338223D01*
X232940753Y-99356402D01*
X232955367Y-99376107D01*
X232967980Y-99397151D01*
X232978470Y-99419329D01*
X232986735Y-99442429D01*
X232992696Y-99466227D01*
X232996296Y-99490496D01*
X232997500Y-99515000D01*
X232997500Y-102415000D01*
X232996296Y-102439504D01*
X232992696Y-102463773D01*
X232986735Y-102487571D01*
X232978470Y-102510671D01*
X232967980Y-102532849D01*
X232955367Y-102553893D01*
X232940753Y-102573598D01*
X232924277Y-102591777D01*
X232906098Y-102608253D01*
X232886393Y-102622867D01*
X232865349Y-102635480D01*
X232843171Y-102645970D01*
X232820071Y-102654235D01*
X232796273Y-102660196D01*
X232772004Y-102663796D01*
X232747500Y-102665000D01*
X232072500Y-102665000D01*
X232047996Y-102663796D01*
X232023727Y-102660196D01*
X231999929Y-102654235D01*
X231976829Y-102645970D01*
X231954651Y-102635480D01*
X231933607Y-102622867D01*
X231913902Y-102608253D01*
X231895723Y-102591777D01*
X231879247Y-102573598D01*
X231864633Y-102553893D01*
X231852020Y-102532849D01*
X231841530Y-102510671D01*
X231833265Y-102487571D01*
X231827304Y-102463773D01*
X231823704Y-102439504D01*
X231822500Y-102415000D01*
X231822500Y-99515000D01*
X231823704Y-99490496D01*
X231827304Y-99466227D01*
X231833265Y-99442429D01*
X231841530Y-99419329D01*
X231852020Y-99397151D01*
X231864633Y-99376107D01*
X231879247Y-99356402D01*
X231895723Y-99338223D01*
X231913902Y-99321747D01*
X231933607Y-99307133D01*
X231954651Y-99294520D01*
X231976829Y-99284030D01*
X231999929Y-99275765D01*
X232023727Y-99269804D01*
X232047996Y-99266204D01*
X232072500Y-99265000D01*
X232747500Y-99265000D01*
X232772004Y-99266204D01*
X232772004Y-99266204D01*
G37*
D16*
G04 #@! TD*
G04 #@! TO.P,R3,2*
G04 #@! TO.N,Net-(C3-Pad2)*
X232410000Y-100965000D03*
D10*
G04 #@! TO.N,Net-(C3-Pad1)*
G04 #@! TO.C,R4*
G36*
X240824504Y-96726204D02*
X240848773Y-96729804D01*
X240872571Y-96735765D01*
X240895671Y-96744030D01*
X240917849Y-96754520D01*
X240938893Y-96767133D01*
X240958598Y-96781747D01*
X240976777Y-96798223D01*
X240993253Y-96816402D01*
X241007867Y-96836107D01*
X241020480Y-96857151D01*
X241030970Y-96879329D01*
X241039235Y-96902429D01*
X241045196Y-96926227D01*
X241048796Y-96950496D01*
X241050000Y-96975000D01*
X241050000Y-99875000D01*
X241048796Y-99899504D01*
X241045196Y-99923773D01*
X241039235Y-99947571D01*
X241030970Y-99970671D01*
X241020480Y-99992849D01*
X241007867Y-100013893D01*
X240993253Y-100033598D01*
X240976777Y-100051777D01*
X240958598Y-100068253D01*
X240938893Y-100082867D01*
X240917849Y-100095480D01*
X240895671Y-100105970D01*
X240872571Y-100114235D01*
X240848773Y-100120196D01*
X240824504Y-100123796D01*
X240800000Y-100125000D01*
X240125000Y-100125000D01*
X240100496Y-100123796D01*
X240076227Y-100120196D01*
X240052429Y-100114235D01*
X240029329Y-100105970D01*
X240007151Y-100095480D01*
X239986107Y-100082867D01*
X239966402Y-100068253D01*
X239948223Y-100051777D01*
X239931747Y-100033598D01*
X239917133Y-100013893D01*
X239904520Y-99992849D01*
X239894030Y-99970671D01*
X239885765Y-99947571D01*
X239879804Y-99923773D01*
X239876204Y-99899504D01*
X239875000Y-99875000D01*
X239875000Y-96975000D01*
X239876204Y-96950496D01*
X239879804Y-96926227D01*
X239885765Y-96902429D01*
X239894030Y-96879329D01*
X239904520Y-96857151D01*
X239917133Y-96836107D01*
X239931747Y-96816402D01*
X239948223Y-96798223D01*
X239966402Y-96781747D01*
X239986107Y-96767133D01*
X240007151Y-96754520D01*
X240029329Y-96744030D01*
X240052429Y-96735765D01*
X240076227Y-96729804D01*
X240100496Y-96726204D01*
X240125000Y-96725000D01*
X240800000Y-96725000D01*
X240824504Y-96726204D01*
X240824504Y-96726204D01*
G37*
D16*
G04 #@! TD*
G04 #@! TO.P,R4,2*
G04 #@! TO.N,Net-(C3-Pad1)*
X240462500Y-98425000D03*
D10*
G04 #@! TO.N,VDD1*
G04 #@! TO.C,R4*
G36*
X242499504Y-96726204D02*
X242523773Y-96729804D01*
X242547571Y-96735765D01*
X242570671Y-96744030D01*
X242592849Y-96754520D01*
X242613893Y-96767133D01*
X242633598Y-96781747D01*
X242651777Y-96798223D01*
X242668253Y-96816402D01*
X242682867Y-96836107D01*
X242695480Y-96857151D01*
X242705970Y-96879329D01*
X242714235Y-96902429D01*
X242720196Y-96926227D01*
X242723796Y-96950496D01*
X242725000Y-96975000D01*
X242725000Y-99875000D01*
X242723796Y-99899504D01*
X242720196Y-99923773D01*
X242714235Y-99947571D01*
X242705970Y-99970671D01*
X242695480Y-99992849D01*
X242682867Y-100013893D01*
X242668253Y-100033598D01*
X242651777Y-100051777D01*
X242633598Y-100068253D01*
X242613893Y-100082867D01*
X242592849Y-100095480D01*
X242570671Y-100105970D01*
X242547571Y-100114235D01*
X242523773Y-100120196D01*
X242499504Y-100123796D01*
X242475000Y-100125000D01*
X241800000Y-100125000D01*
X241775496Y-100123796D01*
X241751227Y-100120196D01*
X241727429Y-100114235D01*
X241704329Y-100105970D01*
X241682151Y-100095480D01*
X241661107Y-100082867D01*
X241641402Y-100068253D01*
X241623223Y-100051777D01*
X241606747Y-100033598D01*
X241592133Y-100013893D01*
X241579520Y-99992849D01*
X241569030Y-99970671D01*
X241560765Y-99947571D01*
X241554804Y-99923773D01*
X241551204Y-99899504D01*
X241550000Y-99875000D01*
X241550000Y-96975000D01*
X241551204Y-96950496D01*
X241554804Y-96926227D01*
X241560765Y-96902429D01*
X241569030Y-96879329D01*
X241579520Y-96857151D01*
X241592133Y-96836107D01*
X241606747Y-96816402D01*
X241623223Y-96798223D01*
X241641402Y-96781747D01*
X241661107Y-96767133D01*
X241682151Y-96754520D01*
X241704329Y-96744030D01*
X241727429Y-96735765D01*
X241751227Y-96729804D01*
X241775496Y-96726204D01*
X241800000Y-96725000D01*
X242475000Y-96725000D01*
X242499504Y-96726204D01*
X242499504Y-96726204D01*
G37*
D16*
G04 #@! TD*
G04 #@! TO.P,R4,1*
G04 #@! TO.N,VDD1*
X242137500Y-98425000D03*
D10*
G04 #@! TO.N,Net-(R5-Pad2)*
G04 #@! TO.C,R5*
G36*
X232974504Y-104981204D02*
X232998773Y-104984804D01*
X233022571Y-104990765D01*
X233045671Y-104999030D01*
X233067849Y-105009520D01*
X233088893Y-105022133D01*
X233108598Y-105036747D01*
X233126777Y-105053223D01*
X233143253Y-105071402D01*
X233157867Y-105091107D01*
X233170480Y-105112151D01*
X233180970Y-105134329D01*
X233189235Y-105157429D01*
X233195196Y-105181227D01*
X233198796Y-105205496D01*
X233200000Y-105230000D01*
X233200000Y-108130000D01*
X233198796Y-108154504D01*
X233195196Y-108178773D01*
X233189235Y-108202571D01*
X233180970Y-108225671D01*
X233170480Y-108247849D01*
X233157867Y-108268893D01*
X233143253Y-108288598D01*
X233126777Y-108306777D01*
X233108598Y-108323253D01*
X233088893Y-108337867D01*
X233067849Y-108350480D01*
X233045671Y-108360970D01*
X233022571Y-108369235D01*
X232998773Y-108375196D01*
X232974504Y-108378796D01*
X232950000Y-108380000D01*
X232275000Y-108380000D01*
X232250496Y-108378796D01*
X232226227Y-108375196D01*
X232202429Y-108369235D01*
X232179329Y-108360970D01*
X232157151Y-108350480D01*
X232136107Y-108337867D01*
X232116402Y-108323253D01*
X232098223Y-108306777D01*
X232081747Y-108288598D01*
X232067133Y-108268893D01*
X232054520Y-108247849D01*
X232044030Y-108225671D01*
X232035765Y-108202571D01*
X232029804Y-108178773D01*
X232026204Y-108154504D01*
X232025000Y-108130000D01*
X232025000Y-105230000D01*
X232026204Y-105205496D01*
X232029804Y-105181227D01*
X232035765Y-105157429D01*
X232044030Y-105134329D01*
X232054520Y-105112151D01*
X232067133Y-105091107D01*
X232081747Y-105071402D01*
X232098223Y-105053223D01*
X232116402Y-105036747D01*
X232136107Y-105022133D01*
X232157151Y-105009520D01*
X232179329Y-104999030D01*
X232202429Y-104990765D01*
X232226227Y-104984804D01*
X232250496Y-104981204D01*
X232275000Y-104980000D01*
X232950000Y-104980000D01*
X232974504Y-104981204D01*
X232974504Y-104981204D01*
G37*
D16*
G04 #@! TD*
G04 #@! TO.P,R5,2*
G04 #@! TO.N,Net-(R5-Pad2)*
X232612500Y-106680000D03*
D10*
G04 #@! TO.N,Net-(J3-Pad2)*
G04 #@! TO.C,R5*
G36*
X231299504Y-104981204D02*
X231323773Y-104984804D01*
X231347571Y-104990765D01*
X231370671Y-104999030D01*
X231392849Y-105009520D01*
X231413893Y-105022133D01*
X231433598Y-105036747D01*
X231451777Y-105053223D01*
X231468253Y-105071402D01*
X231482867Y-105091107D01*
X231495480Y-105112151D01*
X231505970Y-105134329D01*
X231514235Y-105157429D01*
X231520196Y-105181227D01*
X231523796Y-105205496D01*
X231525000Y-105230000D01*
X231525000Y-108130000D01*
X231523796Y-108154504D01*
X231520196Y-108178773D01*
X231514235Y-108202571D01*
X231505970Y-108225671D01*
X231495480Y-108247849D01*
X231482867Y-108268893D01*
X231468253Y-108288598D01*
X231451777Y-108306777D01*
X231433598Y-108323253D01*
X231413893Y-108337867D01*
X231392849Y-108350480D01*
X231370671Y-108360970D01*
X231347571Y-108369235D01*
X231323773Y-108375196D01*
X231299504Y-108378796D01*
X231275000Y-108380000D01*
X230600000Y-108380000D01*
X230575496Y-108378796D01*
X230551227Y-108375196D01*
X230527429Y-108369235D01*
X230504329Y-108360970D01*
X230482151Y-108350480D01*
X230461107Y-108337867D01*
X230441402Y-108323253D01*
X230423223Y-108306777D01*
X230406747Y-108288598D01*
X230392133Y-108268893D01*
X230379520Y-108247849D01*
X230369030Y-108225671D01*
X230360765Y-108202571D01*
X230354804Y-108178773D01*
X230351204Y-108154504D01*
X230350000Y-108130000D01*
X230350000Y-105230000D01*
X230351204Y-105205496D01*
X230354804Y-105181227D01*
X230360765Y-105157429D01*
X230369030Y-105134329D01*
X230379520Y-105112151D01*
X230392133Y-105091107D01*
X230406747Y-105071402D01*
X230423223Y-105053223D01*
X230441402Y-105036747D01*
X230461107Y-105022133D01*
X230482151Y-105009520D01*
X230504329Y-104999030D01*
X230527429Y-104990765D01*
X230551227Y-104984804D01*
X230575496Y-104981204D01*
X230600000Y-104980000D01*
X231275000Y-104980000D01*
X231299504Y-104981204D01*
X231299504Y-104981204D01*
G37*
D16*
G04 #@! TD*
G04 #@! TO.P,R5,1*
G04 #@! TO.N,Net-(J3-Pad2)*
X230937500Y-106680000D03*
D10*
G04 #@! TO.N,VDD1*
G04 #@! TO.C,R6*
G36*
X248287004Y-97001204D02*
X248311273Y-97004804D01*
X248335071Y-97010765D01*
X248358171Y-97019030D01*
X248380349Y-97029520D01*
X248401393Y-97042133D01*
X248421098Y-97056747D01*
X248439277Y-97073223D01*
X248455753Y-97091402D01*
X248470367Y-97111107D01*
X248482980Y-97132151D01*
X248493470Y-97154329D01*
X248501735Y-97177429D01*
X248507696Y-97201227D01*
X248511296Y-97225496D01*
X248512500Y-97250000D01*
X248512500Y-97925000D01*
X248511296Y-97949504D01*
X248507696Y-97973773D01*
X248501735Y-97997571D01*
X248493470Y-98020671D01*
X248482980Y-98042849D01*
X248470367Y-98063893D01*
X248455753Y-98083598D01*
X248439277Y-98101777D01*
X248421098Y-98118253D01*
X248401393Y-98132867D01*
X248380349Y-98145480D01*
X248358171Y-98155970D01*
X248335071Y-98164235D01*
X248311273Y-98170196D01*
X248287004Y-98173796D01*
X248262500Y-98175000D01*
X245362500Y-98175000D01*
X245337996Y-98173796D01*
X245313727Y-98170196D01*
X245289929Y-98164235D01*
X245266829Y-98155970D01*
X245244651Y-98145480D01*
X245223607Y-98132867D01*
X245203902Y-98118253D01*
X245185723Y-98101777D01*
X245169247Y-98083598D01*
X245154633Y-98063893D01*
X245142020Y-98042849D01*
X245131530Y-98020671D01*
X245123265Y-97997571D01*
X245117304Y-97973773D01*
X245113704Y-97949504D01*
X245112500Y-97925000D01*
X245112500Y-97250000D01*
X245113704Y-97225496D01*
X245117304Y-97201227D01*
X245123265Y-97177429D01*
X245131530Y-97154329D01*
X245142020Y-97132151D01*
X245154633Y-97111107D01*
X245169247Y-97091402D01*
X245185723Y-97073223D01*
X245203902Y-97056747D01*
X245223607Y-97042133D01*
X245244651Y-97029520D01*
X245266829Y-97019030D01*
X245289929Y-97010765D01*
X245313727Y-97004804D01*
X245337996Y-97001204D01*
X245362500Y-97000000D01*
X248262500Y-97000000D01*
X248287004Y-97001204D01*
X248287004Y-97001204D01*
G37*
D16*
G04 #@! TD*
G04 #@! TO.P,R6,1*
G04 #@! TO.N,VDD1*
X246812500Y-97587500D03*
D10*
G04 #@! TO.N,Net-(C6-Pad1)*
G04 #@! TO.C,R6*
G36*
X248287004Y-98676204D02*
X248311273Y-98679804D01*
X248335071Y-98685765D01*
X248358171Y-98694030D01*
X248380349Y-98704520D01*
X248401393Y-98717133D01*
X248421098Y-98731747D01*
X248439277Y-98748223D01*
X248455753Y-98766402D01*
X248470367Y-98786107D01*
X248482980Y-98807151D01*
X248493470Y-98829329D01*
X248501735Y-98852429D01*
X248507696Y-98876227D01*
X248511296Y-98900496D01*
X248512500Y-98925000D01*
X248512500Y-99600000D01*
X248511296Y-99624504D01*
X248507696Y-99648773D01*
X248501735Y-99672571D01*
X248493470Y-99695671D01*
X248482980Y-99717849D01*
X248470367Y-99738893D01*
X248455753Y-99758598D01*
X248439277Y-99776777D01*
X248421098Y-99793253D01*
X248401393Y-99807867D01*
X248380349Y-99820480D01*
X248358171Y-99830970D01*
X248335071Y-99839235D01*
X248311273Y-99845196D01*
X248287004Y-99848796D01*
X248262500Y-99850000D01*
X245362500Y-99850000D01*
X245337996Y-99848796D01*
X245313727Y-99845196D01*
X245289929Y-99839235D01*
X245266829Y-99830970D01*
X245244651Y-99820480D01*
X245223607Y-99807867D01*
X245203902Y-99793253D01*
X245185723Y-99776777D01*
X245169247Y-99758598D01*
X245154633Y-99738893D01*
X245142020Y-99717849D01*
X245131530Y-99695671D01*
X245123265Y-99672571D01*
X245117304Y-99648773D01*
X245113704Y-99624504D01*
X245112500Y-99600000D01*
X245112500Y-98925000D01*
X245113704Y-98900496D01*
X245117304Y-98876227D01*
X245123265Y-98852429D01*
X245131530Y-98829329D01*
X245142020Y-98807151D01*
X245154633Y-98786107D01*
X245169247Y-98766402D01*
X245185723Y-98748223D01*
X245203902Y-98731747D01*
X245223607Y-98717133D01*
X245244651Y-98704520D01*
X245266829Y-98694030D01*
X245289929Y-98685765D01*
X245313727Y-98679804D01*
X245337996Y-98676204D01*
X245362500Y-98675000D01*
X248262500Y-98675000D01*
X248287004Y-98676204D01*
X248287004Y-98676204D01*
G37*
D16*
G04 #@! TD*
G04 #@! TO.P,R6,2*
G04 #@! TO.N,Net-(C6-Pad1)*
X246812500Y-99262500D03*
D17*
G04 #@! TO.P,U1,11*
G04 #@! TO.N,GND*
X241300000Y-74295000D03*
D18*
G04 #@! TO.P,U1,8*
G04 #@! TO.N,Net-(R2-Pad1)*
X239750000Y-74295000D03*
G04 #@! TO.P,U1,10*
G04 #@! TO.N,GND*
X239750000Y-73295000D03*
G04 #@! TO.P,U1,7*
G04 #@! TO.N,VDD1*
X239750000Y-74795000D03*
G04 #@! TO.P,U1,6*
X239750000Y-75295000D03*
G04 #@! TO.P,U1,9*
G04 #@! TO.N,GND*
X239750000Y-73795000D03*
G04 #@! TO.P,U1,1*
G04 #@! TO.N,VDD2*
X242850000Y-75295000D03*
G04 #@! TO.P,U1,2*
X242850000Y-74795000D03*
G04 #@! TO.P,U1,3*
G04 #@! TO.N,Net-(R1-Pad2)*
X242850000Y-74295000D03*
G04 #@! TO.P,U1,4*
G04 #@! TO.N,Net-(U1-Pad4)*
X242850000Y-73795000D03*
G04 #@! TO.P,U1,5*
G04 #@! TO.N,Net-(U1-Pad5)*
X242850000Y-73295000D03*
G04 #@! TD*
D19*
G04 #@! TO.P,U2,9*
G04 #@! TO.N,N/C*
X240665000Y-107315000D03*
D20*
G04 #@! TO.P,U2,5*
G04 #@! TO.N,GND*
X242065000Y-106365000D03*
G04 #@! TO.P,U2,6*
X242065000Y-107015000D03*
G04 #@! TO.P,U2,7*
G04 #@! TO.N,Net-(C6-Pad1)*
X242065000Y-107615000D03*
G04 #@! TO.P,U2,8*
G04 #@! TO.N,Net-(J5-Pad2)*
X242065000Y-108265000D03*
G04 #@! TO.P,U2,1*
G04 #@! TO.N,Net-(C3-Pad1)*
X239265000Y-106365000D03*
G04 #@! TO.P,U2,2*
G04 #@! TO.N,Net-(C3-Pad2)*
X239265000Y-107015000D03*
G04 #@! TO.P,U2,3*
G04 #@! TO.N,Net-(R5-Pad2)*
X239265000Y-107615000D03*
G04 #@! TO.P,U2,4*
G04 #@! TO.N,Net-(C5-Pad1)*
X239265000Y-108265000D03*
G04 #@! TD*
D21*
G04 #@! TO.N,GND*
X252095000Y-80010000D03*
X257810000Y-80010000D03*
G04 #@! TD*
D22*
G04 #@! TO.N,*
X240665000Y-108765000D02*
X240665000Y-107315000D01*
X241349999Y-109449999D02*
X240665000Y-108765000D01*
X251385001Y-109449999D02*
X241349999Y-109449999D01*
X252885000Y-107950000D02*
X251385001Y-109449999D01*
X260205000Y-106450000D02*
X258705000Y-107950000D01*
X258705000Y-107950000D02*
X258445000Y-107950000D01*
X260205000Y-109450000D02*
X258705000Y-107950000D01*
X258445000Y-107950000D02*
X252885000Y-107950000D01*
G04 #@! TO.N,GND*
X240800000Y-73795000D02*
X239750000Y-73795000D01*
X241300000Y-74295000D02*
X240800000Y-73795000D01*
X239175000Y-73295000D02*
X239750000Y-73295000D01*
X238149990Y-72269990D02*
X239175000Y-73295000D01*
X235846820Y-72269990D02*
X238149990Y-72269990D01*
X235405710Y-72711100D02*
X235846820Y-72269990D01*
X235405710Y-73636790D02*
X235405710Y-72711100D01*
X234747500Y-74295000D02*
X235405710Y-73636790D01*
X240300000Y-73295000D02*
X241300000Y-74295000D01*
X239750000Y-73295000D02*
X240300000Y-73295000D01*
X255759999Y-90199999D02*
X254460000Y-88900000D01*
X261280001Y-95720001D02*
X255759999Y-90199999D01*
X260721001Y-110525001D02*
X261280001Y-109966001D01*
X258280001Y-110525001D02*
X260721001Y-110525001D01*
X257205000Y-109450000D02*
X258280001Y-110525001D01*
X234793372Y-111748372D02*
X234170000Y-111125000D01*
X236710000Y-113665000D02*
X234793372Y-111748372D01*
X257205000Y-109450000D02*
X252990000Y-113665000D01*
X235321810Y-113665000D02*
X237490000Y-113665000D01*
X220980000Y-93345000D02*
X220980000Y-99323190D01*
X252990000Y-113665000D02*
X237490000Y-113665000D01*
X237490000Y-113665000D02*
X236710000Y-113665000D01*
X220980000Y-94795000D02*
X220980000Y-93345000D01*
X228845000Y-93345000D02*
X230750000Y-95250000D01*
X220980000Y-93345000D02*
X228845000Y-93345000D01*
X258740001Y-98425000D02*
X261280001Y-95885000D01*
X253365000Y-98425000D02*
X258740001Y-98425000D01*
X261280001Y-109966001D02*
X261280001Y-95885000D01*
X261280001Y-95885000D02*
X261280001Y-95720001D01*
X242065000Y-106365000D02*
X242065000Y-107015000D01*
X244486628Y-80633372D02*
X245110000Y-80010000D01*
X242215000Y-106365000D02*
X244486628Y-104093372D01*
X242065000Y-106365000D02*
X242215000Y-106365000D01*
X251460000Y-71295000D02*
X251460000Y-69595000D01*
X254460000Y-74295000D02*
X251460000Y-71295000D01*
X248745000Y-80010000D02*
X248920000Y-79835000D01*
X245110000Y-80010000D02*
X248745000Y-80010000D01*
X248920000Y-79835000D02*
X254460000Y-74295000D01*
X248920000Y-83498477D02*
X248920000Y-79835000D01*
X251460000Y-84200000D02*
X249621523Y-84200000D01*
X249621523Y-84200000D02*
X248920000Y-83498477D01*
X241300000Y-77860000D02*
X241300000Y-74295000D01*
X219454999Y-97798189D02*
X221351810Y-99695000D01*
X227138027Y-63419971D02*
X219454999Y-71102999D01*
X248326383Y-63419971D02*
X227138027Y-63419971D01*
X257175000Y-86185000D02*
X257175000Y-72268588D01*
X254460000Y-88900000D02*
X257175000Y-86185000D01*
X257175000Y-72268588D02*
X248326383Y-63419971D01*
X221351810Y-99695000D02*
X235321810Y-113665000D01*
X220980000Y-99323190D02*
X221351810Y-99695000D01*
X240030000Y-79998372D02*
X244486628Y-84455000D01*
X240030000Y-79130000D02*
X240030000Y-79998372D01*
X244486628Y-84455000D02*
X244486628Y-80633372D01*
X244486628Y-85090000D02*
X244486628Y-84455000D01*
X240030000Y-79130000D02*
X241300000Y-77860000D01*
X238515000Y-80645000D02*
X240030000Y-79130000D01*
X244486628Y-104093372D02*
X244486628Y-85090000D01*
X219454999Y-71102999D02*
X219454999Y-97798189D01*
X254460000Y-76133477D02*
X254000000Y-76593477D01*
X254460000Y-74295000D02*
X254460000Y-76133477D01*
X254000000Y-76593477D02*
X254000000Y-78105000D01*
X254000000Y-78105000D02*
X252095000Y-80010000D01*
X254460000Y-88900000D02*
X257810000Y-85550000D01*
X257810000Y-85550000D02*
X257810000Y-80010000D01*
G04 #@! TO.N,VDD2*
X243425000Y-74795000D02*
X242850000Y-74795000D01*
X246621523Y-74295000D02*
X246121523Y-74795000D01*
X248460000Y-74295000D02*
X246621523Y-74295000D01*
X242850000Y-75295000D02*
X244110000Y-75295000D01*
X244475000Y-74930000D02*
X244475000Y-74795000D01*
X244110000Y-75295000D02*
X244475000Y-74930000D01*
X246121523Y-74795000D02*
X244475000Y-74795000D01*
X244475000Y-74795000D02*
X243425000Y-74795000D01*
X248460000Y-72456523D02*
X248460000Y-74295000D01*
X248460000Y-68059310D02*
X248460000Y-72456523D01*
X244720680Y-64319990D02*
X248460000Y-68059310D01*
X241748600Y-64319990D02*
X244720680Y-64319990D01*
X240030000Y-66038590D02*
X241748600Y-64319990D01*
X240030000Y-67700000D02*
X240030000Y-66038590D01*
X241300000Y-68970000D02*
X240030000Y-67700000D01*
X243060000Y-75505000D02*
X242850000Y-75295000D01*
X243060000Y-80010000D02*
X243060000Y-75505000D01*
G04 #@! TO.N,VDD1*
X239750000Y-74795000D02*
X239750000Y-75295000D01*
X222179999Y-73034999D02*
X220980000Y-71835000D01*
X225465010Y-76320010D02*
X222179999Y-73034999D01*
X239750000Y-75295000D02*
X239575000Y-75295000D01*
X238670000Y-76200000D02*
X238549990Y-76320010D01*
X239575000Y-75295000D02*
X238670000Y-76200000D01*
X242137500Y-98425000D02*
X242795710Y-97766790D01*
X246812500Y-90547500D02*
X248460000Y-88900000D01*
X246812500Y-97587500D02*
X246812500Y-90547500D01*
X233045000Y-72387180D02*
X233045000Y-76320010D01*
X241562199Y-63869981D02*
X233045000Y-72387180D01*
X248139983Y-63869981D02*
X241562199Y-63869981D01*
X256085001Y-71814999D02*
X248139983Y-63869981D01*
X256085001Y-81980001D02*
X256085001Y-71814999D01*
X250465001Y-87600001D02*
X256085001Y-81980001D01*
X249759999Y-87600001D02*
X250465001Y-87600001D01*
X248460000Y-88900000D02*
X249759999Y-87600001D01*
X238549990Y-76320010D02*
X233045000Y-76320010D01*
X233045000Y-76320010D02*
X225465010Y-76320010D01*
X233045000Y-77225000D02*
X236465000Y-80645000D01*
X233045000Y-76320010D02*
X233045000Y-77225000D01*
X242137500Y-86317500D02*
X242137500Y-98425000D01*
X236465000Y-80645000D02*
X242137500Y-86317500D01*
G04 #@! TO.N,Net-(C3-Pad1)*
X235440000Y-99225000D02*
X235440000Y-98425000D01*
X235440000Y-102690000D02*
X235440000Y-99225000D01*
X239115000Y-106365000D02*
X235440000Y-102690000D01*
X239265000Y-106365000D02*
X239115000Y-106365000D01*
X239265000Y-99622500D02*
X240462500Y-98425000D01*
X239265000Y-106365000D02*
X239265000Y-99622500D01*
G04 #@! TO.N,Net-(C3-Pad2)*
X236866628Y-97801628D02*
X237490000Y-98425000D01*
X236464990Y-97399990D02*
X236866628Y-97801628D01*
X234876820Y-97399990D02*
X236464990Y-97399990D01*
X233068210Y-100306790D02*
X233068210Y-99208600D01*
X232410000Y-100965000D02*
X233068210Y-100306790D01*
X238460000Y-107015000D02*
X239265000Y-107015000D01*
X232410000Y-100965000D02*
X238460000Y-107015000D01*
X232800000Y-96103190D02*
X234486810Y-97790000D01*
X232800000Y-95250000D02*
X232800000Y-96103190D01*
X233068210Y-99208600D02*
X234486810Y-97790000D01*
X234486810Y-97790000D02*
X234876820Y-97399990D01*
G04 #@! TO.N,Net-(C5-Pad1)*
X236255000Y-111125000D02*
X236220000Y-111125000D01*
X239115000Y-108265000D02*
X236255000Y-111125000D01*
X239265000Y-108265000D02*
X239115000Y-108265000D01*
G04 #@! TO.N,Net-(C6-Pad1)*
X242615000Y-107615000D02*
X242065000Y-107615000D01*
X246991790Y-103238210D02*
X242615000Y-107615000D01*
X246812500Y-103058920D02*
X246812500Y-99262500D01*
X246991790Y-103238210D02*
X246812500Y-103058920D01*
X250477500Y-99262500D02*
X246812500Y-99262500D01*
X251315000Y-98425000D02*
X250477500Y-99262500D01*
G04 #@! TO.N,Net-(D1-Pad1)*
X245745000Y-66145000D02*
X244370000Y-64770000D01*
X245745000Y-67945000D02*
X245745000Y-66145000D01*
X244370000Y-64770000D02*
X241935000Y-64770000D01*
X241300000Y-65405000D02*
X241300000Y-66920000D01*
X241935000Y-64770000D02*
X241300000Y-65405000D01*
G04 #@! TO.N,Net-(R1-Pad2)*
X243425000Y-74295000D02*
X242850000Y-74295000D01*
X244070000Y-73650000D02*
X243425000Y-74295000D01*
X244070000Y-67945000D02*
X244070000Y-73650000D01*
G04 #@! TO.N,Net-(R2-Pad1)*
X236422500Y-74295000D02*
X239750000Y-74295000D01*
G04 #@! TO.N,Net-(J3-Pad2)*
X220980000Y-78285000D02*
X220980000Y-88345000D01*
X220980000Y-76835000D02*
X220980000Y-78285000D01*
X230735000Y-106477500D02*
X230937500Y-106680000D01*
X230735000Y-100965000D02*
X230735000Y-106477500D01*
X222677056Y-88345000D02*
X220980000Y-88345000D01*
X225433190Y-88345000D02*
X222677056Y-88345000D01*
X231650010Y-94561820D02*
X225433190Y-88345000D01*
X231650010Y-97279990D02*
X231650010Y-94561820D01*
X231393210Y-97536790D02*
X231650010Y-97279990D01*
X231393210Y-100306790D02*
X231393210Y-97536790D01*
X230735000Y-100965000D02*
X231393210Y-100306790D01*
G04 #@! TO.N,Net-(R5-Pad2)*
X233547500Y-107615000D02*
X232612500Y-106680000D01*
X239265000Y-107615000D02*
X233547500Y-107615000D01*
G04 #@! TO.N,Net-(J5-Pad2)*
X242615000Y-108265000D02*
X242065000Y-108265000D01*
X245179999Y-105700001D02*
X242615000Y-108265000D01*
X256455001Y-105700001D02*
X245179999Y-105700001D01*
X257205000Y-106450000D02*
X256455001Y-105700001D01*
G04 #@! TD*
D23*
G04 #@! TO.N,GND*
G36*
X267895001Y-125655000D02*
X210895000Y-125655000D01*
X210895000Y-118300431D01*
X217475000Y-118300431D01*
X217475000Y-119189569D01*
X217815259Y-120011026D01*
X218443974Y-120639741D01*
X219265431Y-120980000D01*
X220154569Y-120980000D01*
X220976026Y-120639741D01*
X221604741Y-120011026D01*
X221945000Y-119189569D01*
X221945000Y-118935431D01*
X260655000Y-118935431D01*
X260655000Y-119824569D01*
X260995259Y-120646026D01*
X261623974Y-121274741D01*
X262445431Y-121615000D01*
X263334569Y-121615000D01*
X264156026Y-121274741D01*
X264784741Y-120646026D01*
X265125000Y-119824569D01*
X265125000Y-118935431D01*
X264784741Y-118113974D01*
X264156026Y-117485259D01*
X263334569Y-117145000D01*
X262445431Y-117145000D01*
X261623974Y-117485259D01*
X260995259Y-118113974D01*
X260655000Y-118935431D01*
X221945000Y-118935431D01*
X221945000Y-118300431D01*
X221604741Y-117478974D01*
X220976026Y-116850259D01*
X220154569Y-116510000D01*
X219265431Y-116510000D01*
X218443974Y-116850259D01*
X217815259Y-117478974D01*
X217475000Y-118300431D01*
X210895000Y-118300431D01*
X210895000Y-111410750D01*
X232960000Y-111410750D01*
X232960000Y-111951310D01*
X233056673Y-112184699D01*
X233235302Y-112363327D01*
X233468691Y-112460000D01*
X233884250Y-112460000D01*
X234043000Y-112301250D01*
X234043000Y-111252000D01*
X233118750Y-111252000D01*
X232960000Y-111410750D01*
X210895000Y-111410750D01*
X210895000Y-110298690D01*
X232960000Y-110298690D01*
X232960000Y-110839250D01*
X233118750Y-110998000D01*
X234043000Y-110998000D01*
X234043000Y-109948750D01*
X233884250Y-109790000D01*
X233468691Y-109790000D01*
X233235302Y-109886673D01*
X233056673Y-110065301D01*
X232960000Y-110298690D01*
X210895000Y-110298690D01*
X210895000Y-95535750D01*
X229540000Y-95535750D01*
X229540000Y-96076310D01*
X229636673Y-96309699D01*
X229815302Y-96488327D01*
X230048691Y-96585000D01*
X230464250Y-96585000D01*
X230623000Y-96426250D01*
X230623000Y-95377000D01*
X229698750Y-95377000D01*
X229540000Y-95535750D01*
X210895000Y-95535750D01*
X210895000Y-93630750D01*
X219145000Y-93630750D01*
X219145000Y-94671309D01*
X219241673Y-94904698D01*
X219420301Y-95083327D01*
X219653690Y-95180000D01*
X220694250Y-95180000D01*
X220853000Y-95021250D01*
X220853000Y-93472000D01*
X221107000Y-93472000D01*
X221107000Y-95021250D01*
X221265750Y-95180000D01*
X222306310Y-95180000D01*
X222539699Y-95083327D01*
X222718327Y-94904698D01*
X222815000Y-94671309D01*
X222815000Y-93630750D01*
X222656250Y-93472000D01*
X221107000Y-93472000D01*
X220853000Y-93472000D01*
X219303750Y-93472000D01*
X219145000Y-93630750D01*
X210895000Y-93630750D01*
X210895000Y-92018691D01*
X219145000Y-92018691D01*
X219145000Y-93059250D01*
X219303750Y-93218000D01*
X220853000Y-93218000D01*
X220853000Y-91668750D01*
X221107000Y-91668750D01*
X221107000Y-93218000D01*
X222656250Y-93218000D01*
X222815000Y-93059250D01*
X222815000Y-92018691D01*
X222718327Y-91785302D01*
X222539699Y-91606673D01*
X222306310Y-91510000D01*
X221265750Y-91510000D01*
X221107000Y-91668750D01*
X220853000Y-91668750D01*
X220694250Y-91510000D01*
X219653690Y-91510000D01*
X219420301Y-91606673D01*
X219241673Y-91785302D01*
X219145000Y-92018691D01*
X210895000Y-92018691D01*
X210895000Y-75635000D01*
X219132560Y-75635000D01*
X219132560Y-78035000D01*
X219181843Y-78282765D01*
X219322191Y-78492809D01*
X219532235Y-78633157D01*
X219780000Y-78682440D01*
X220220000Y-78682440D01*
X220220001Y-86673612D01*
X219940556Y-86789362D01*
X219424362Y-87305556D01*
X219145000Y-87979996D01*
X219145000Y-88710004D01*
X219424362Y-89384444D01*
X219940556Y-89900638D01*
X220614996Y-90180000D01*
X221345004Y-90180000D01*
X222019444Y-89900638D01*
X222535638Y-89384444D01*
X222651387Y-89105000D01*
X225118389Y-89105000D01*
X229963624Y-93950236D01*
X229815302Y-94011673D01*
X229636673Y-94190301D01*
X229540000Y-94423690D01*
X229540000Y-94964250D01*
X229698750Y-95123000D01*
X230623000Y-95123000D01*
X230623000Y-95103000D01*
X230877000Y-95103000D01*
X230877000Y-95123000D01*
X230890011Y-95123000D01*
X230890011Y-95377000D01*
X230877000Y-95377000D01*
X230877000Y-96426250D01*
X230890010Y-96439260D01*
X230890010Y-96958975D01*
X230845282Y-96988861D01*
X230802882Y-97052317D01*
X230802881Y-97052318D01*
X230677307Y-97240253D01*
X230618322Y-97536790D01*
X230633211Y-97611642D01*
X230633211Y-98617560D01*
X230397500Y-98617560D01*
X230054065Y-98685874D01*
X229762914Y-98880414D01*
X229568374Y-99171565D01*
X229500060Y-99515000D01*
X229500060Y-102415000D01*
X229568374Y-102758435D01*
X229762914Y-103049586D01*
X229975000Y-103191297D01*
X229975001Y-104589008D01*
X229965414Y-104595414D01*
X229770874Y-104886565D01*
X229702560Y-105230000D01*
X229702560Y-108130000D01*
X229770874Y-108473435D01*
X229965414Y-108764586D01*
X230256565Y-108959126D01*
X230600000Y-109027440D01*
X231275000Y-109027440D01*
X231618435Y-108959126D01*
X231775000Y-108854513D01*
X231931565Y-108959126D01*
X232275000Y-109027440D01*
X232950000Y-109027440D01*
X233293435Y-108959126D01*
X233584586Y-108764586D01*
X233779126Y-108473435D01*
X233798706Y-108375000D01*
X237930198Y-108375000D01*
X236527639Y-109777560D01*
X235894999Y-109777560D01*
X235551564Y-109845873D01*
X235260414Y-110040414D01*
X235259623Y-110041597D01*
X235104698Y-109886673D01*
X234871309Y-109790000D01*
X234455750Y-109790000D01*
X234297000Y-109948750D01*
X234297000Y-110998000D01*
X234317000Y-110998000D01*
X234317000Y-111252000D01*
X234297000Y-111252000D01*
X234297000Y-112301250D01*
X234455750Y-112460000D01*
X234871309Y-112460000D01*
X235104698Y-112363327D01*
X235259623Y-112208403D01*
X235260414Y-112209586D01*
X235551564Y-112404127D01*
X235894999Y-112472440D01*
X236545001Y-112472440D01*
X236888436Y-112404127D01*
X237179586Y-112209586D01*
X237374127Y-111918436D01*
X237442440Y-111575001D01*
X237442440Y-111012361D01*
X238033284Y-110421517D01*
X256413088Y-110421517D01*
X256481077Y-110662460D01*
X257000171Y-110847201D01*
X257550448Y-110819230D01*
X257928923Y-110662460D01*
X257996912Y-110421517D01*
X257205000Y-109629605D01*
X256413088Y-110421517D01*
X238033284Y-110421517D01*
X239392362Y-109062440D01*
X239516332Y-109062440D01*
X239592235Y-109113157D01*
X239840000Y-109162440D01*
X240016518Y-109162440D01*
X240117071Y-109312929D01*
X240180530Y-109355331D01*
X240759670Y-109934472D01*
X240802070Y-109997928D01*
X241053462Y-110165903D01*
X241275147Y-110209999D01*
X241275152Y-110209999D01*
X241349999Y-110224887D01*
X241424846Y-110209999D01*
X251310154Y-110209999D01*
X251385001Y-110224887D01*
X251459848Y-110209999D01*
X251459853Y-110209999D01*
X251681538Y-110165903D01*
X251932930Y-109997928D01*
X251975332Y-109934469D01*
X252010941Y-109898860D01*
X252460322Y-110085000D01*
X253309678Y-110085000D01*
X254094380Y-109759966D01*
X254694966Y-109159380D01*
X254881105Y-108710000D01*
X256049515Y-108710000D01*
X255992540Y-108726077D01*
X255807799Y-109245171D01*
X255835770Y-109795448D01*
X255992540Y-110173923D01*
X256233483Y-110241912D01*
X257025395Y-109450000D01*
X257011253Y-109435858D01*
X257190858Y-109256253D01*
X257205000Y-109270395D01*
X257219143Y-109256253D01*
X257398748Y-109435858D01*
X257384605Y-109450000D01*
X258176517Y-110241912D01*
X258417460Y-110173923D01*
X258602201Y-109654829D01*
X258574230Y-109104552D01*
X258425369Y-108745170D01*
X258830165Y-109149966D01*
X258820000Y-109174506D01*
X258820000Y-109725494D01*
X259030853Y-110234540D01*
X259420460Y-110624147D01*
X259929506Y-110835000D01*
X260480494Y-110835000D01*
X260989540Y-110624147D01*
X261379147Y-110234540D01*
X261590000Y-109725494D01*
X261590000Y-109174506D01*
X261379147Y-108665460D01*
X260989540Y-108275853D01*
X260480494Y-108065000D01*
X259929506Y-108065000D01*
X259904966Y-108075165D01*
X259779802Y-107950000D01*
X259904966Y-107824835D01*
X259929506Y-107835000D01*
X260480494Y-107835000D01*
X260989540Y-107624147D01*
X261379147Y-107234540D01*
X261590000Y-106725494D01*
X261590000Y-106174506D01*
X261379147Y-105665460D01*
X260989540Y-105275853D01*
X260480494Y-105065000D01*
X259929506Y-105065000D01*
X259420460Y-105275853D01*
X259030853Y-105665460D01*
X258820000Y-106174506D01*
X258820000Y-106725494D01*
X258830165Y-106750034D01*
X258402827Y-107177372D01*
X258590000Y-106725494D01*
X258590000Y-106174506D01*
X258379147Y-105665460D01*
X257989540Y-105275853D01*
X257480494Y-105065000D01*
X256929506Y-105065000D01*
X256894388Y-105079546D01*
X256751538Y-104984097D01*
X256529853Y-104940001D01*
X256529848Y-104940001D01*
X256455001Y-104925113D01*
X256380154Y-104940001D01*
X246364801Y-104940001D01*
X247476264Y-103828538D01*
X247539719Y-103786139D01*
X247582119Y-103722683D01*
X247707694Y-103534748D01*
X247766678Y-103238210D01*
X247707694Y-102941673D01*
X247572500Y-102739341D01*
X247572500Y-100497440D01*
X248262500Y-100497440D01*
X248605935Y-100429126D01*
X248897086Y-100234586D01*
X249038797Y-100022500D01*
X250402653Y-100022500D01*
X250477500Y-100037388D01*
X250552347Y-100022500D01*
X250552352Y-100022500D01*
X250774037Y-99978404D01*
X251025429Y-99810429D01*
X251050812Y-99772440D01*
X251640001Y-99772440D01*
X251983436Y-99704127D01*
X252274586Y-99509586D01*
X252275377Y-99508403D01*
X252430302Y-99663327D01*
X252663691Y-99760000D01*
X253079250Y-99760000D01*
X253238000Y-99601250D01*
X253238000Y-98552000D01*
X253492000Y-98552000D01*
X253492000Y-99601250D01*
X253650750Y-99760000D01*
X254066309Y-99760000D01*
X254299698Y-99663327D01*
X254478327Y-99484699D01*
X254575000Y-99251310D01*
X254575000Y-98710750D01*
X254416250Y-98552000D01*
X253492000Y-98552000D01*
X253238000Y-98552000D01*
X253218000Y-98552000D01*
X253218000Y-98298000D01*
X253238000Y-98298000D01*
X253238000Y-97248750D01*
X253492000Y-97248750D01*
X253492000Y-98298000D01*
X254416250Y-98298000D01*
X254575000Y-98139250D01*
X254575000Y-97598690D01*
X254478327Y-97365301D01*
X254299698Y-97186673D01*
X254066309Y-97090000D01*
X253650750Y-97090000D01*
X253492000Y-97248750D01*
X253238000Y-97248750D01*
X253079250Y-97090000D01*
X252663691Y-97090000D01*
X252430302Y-97186673D01*
X252275377Y-97341597D01*
X252274586Y-97340414D01*
X251983436Y-97145873D01*
X251640001Y-97077560D01*
X250989999Y-97077560D01*
X250646564Y-97145873D01*
X250355414Y-97340414D01*
X250160873Y-97631564D01*
X250092560Y-97974999D01*
X250092560Y-98502500D01*
X249038797Y-98502500D01*
X248987013Y-98425000D01*
X249091626Y-98268435D01*
X249159940Y-97925000D01*
X249159940Y-97250000D01*
X249091626Y-96906565D01*
X248897086Y-96615414D01*
X248605935Y-96420874D01*
X248262500Y-96352560D01*
X247572500Y-96352560D01*
X247572500Y-90862301D01*
X247739014Y-90695787D01*
X248075105Y-90835000D01*
X248844895Y-90835000D01*
X249556090Y-90540414D01*
X249827045Y-90269459D01*
X253270146Y-90269459D01*
X253405504Y-90567455D01*
X254123880Y-90844066D01*
X254893427Y-90824710D01*
X255514496Y-90567455D01*
X255649854Y-90269459D01*
X254460000Y-89079605D01*
X253270146Y-90269459D01*
X249827045Y-90269459D01*
X250100414Y-89996090D01*
X250395000Y-89284895D01*
X250395000Y-88563880D01*
X252515934Y-88563880D01*
X252535290Y-89333427D01*
X252792545Y-89954496D01*
X253090541Y-90089854D01*
X254280395Y-88900000D01*
X254639605Y-88900000D01*
X255829459Y-90089854D01*
X256127455Y-89954496D01*
X256404066Y-89236120D01*
X256384710Y-88466573D01*
X256127455Y-87845504D01*
X255829459Y-87710146D01*
X254639605Y-88900000D01*
X254280395Y-88900000D01*
X253090541Y-87710146D01*
X252792545Y-87845504D01*
X252515934Y-88563880D01*
X250395000Y-88563880D01*
X250395000Y-88515105D01*
X250330754Y-88360001D01*
X250390154Y-88360001D01*
X250465001Y-88374889D01*
X250539848Y-88360001D01*
X250539853Y-88360001D01*
X250761538Y-88315905D01*
X251012930Y-88147930D01*
X251055332Y-88084471D01*
X251609262Y-87530541D01*
X253270146Y-87530541D01*
X254460000Y-88720395D01*
X255649854Y-87530541D01*
X255514496Y-87232545D01*
X254796120Y-86955934D01*
X254026573Y-86975290D01*
X253405504Y-87232545D01*
X253270146Y-87530541D01*
X251609262Y-87530541D01*
X256569474Y-82570330D01*
X256632930Y-82527930D01*
X256800905Y-82276538D01*
X256845001Y-82054853D01*
X256845001Y-82054849D01*
X256859889Y-81980002D01*
X256845001Y-81905155D01*
X256845001Y-71889845D01*
X256859889Y-71814998D01*
X256845001Y-71740151D01*
X256845001Y-71740147D01*
X256800905Y-71518462D01*
X256632930Y-71267070D01*
X256569474Y-71224670D01*
X248730314Y-63385511D01*
X248687912Y-63322052D01*
X248436520Y-63154077D01*
X248214835Y-63109981D01*
X248214830Y-63109981D01*
X248139983Y-63095093D01*
X248065136Y-63109981D01*
X241637045Y-63109981D01*
X241562198Y-63095093D01*
X241487351Y-63109981D01*
X241487347Y-63109981D01*
X241265662Y-63154077D01*
X241265660Y-63154078D01*
X241265661Y-63154078D01*
X241077725Y-63279652D01*
X241077723Y-63279654D01*
X241014270Y-63322052D01*
X240971872Y-63385505D01*
X232560530Y-71796849D01*
X232497071Y-71839251D01*
X232329096Y-72090644D01*
X232285000Y-72312329D01*
X232285000Y-72312333D01*
X232270112Y-72387180D01*
X232285000Y-72462027D01*
X232285001Y-75560010D01*
X225779812Y-75560010D01*
X222770330Y-72550529D01*
X222770328Y-72550526D01*
X222699250Y-72479448D01*
X222815000Y-72200004D01*
X222815000Y-71469996D01*
X222535638Y-70795556D01*
X222019444Y-70279362D01*
X221345004Y-70000000D01*
X220614996Y-70000000D01*
X219940556Y-70279362D01*
X219424362Y-70795556D01*
X219145000Y-71469996D01*
X219145000Y-72200004D01*
X219424362Y-72874444D01*
X219940556Y-73390638D01*
X220614996Y-73670000D01*
X221345004Y-73670000D01*
X221624448Y-73554250D01*
X221695526Y-73625328D01*
X221695529Y-73625330D01*
X224874681Y-76804483D01*
X224917081Y-76867939D01*
X225168473Y-77035914D01*
X225390158Y-77080010D01*
X225390162Y-77080010D01*
X225465009Y-77094898D01*
X225539856Y-77080010D01*
X232285001Y-77080010D01*
X232285001Y-77150149D01*
X232270112Y-77225000D01*
X232285001Y-77299852D01*
X232329097Y-77521537D01*
X232497072Y-77772929D01*
X232560528Y-77815329D01*
X235242560Y-80497363D01*
X235242560Y-81095001D01*
X235310873Y-81438436D01*
X235505414Y-81729586D01*
X235796564Y-81924127D01*
X236139999Y-81992440D01*
X236737639Y-81992440D01*
X241377500Y-86632303D01*
X241377501Y-96198703D01*
X241300000Y-96250487D01*
X241143435Y-96145874D01*
X240800000Y-96077560D01*
X240125000Y-96077560D01*
X239781565Y-96145874D01*
X239490414Y-96340414D01*
X239295874Y-96631565D01*
X239227560Y-96975000D01*
X239227560Y-98585139D01*
X238780528Y-99032171D01*
X238717072Y-99074571D01*
X238674672Y-99138027D01*
X238674671Y-99138028D01*
X238653954Y-99169034D01*
X238712440Y-98875001D01*
X238712440Y-97974999D01*
X238644127Y-97631564D01*
X238449586Y-97340414D01*
X238158436Y-97145873D01*
X237815001Y-97077560D01*
X237217361Y-97077560D01*
X237055321Y-96915520D01*
X237012919Y-96852061D01*
X236761527Y-96684086D01*
X236539842Y-96639990D01*
X236539837Y-96639990D01*
X236464990Y-96625102D01*
X236390143Y-96639990D01*
X234951666Y-96639990D01*
X234876819Y-96625102D01*
X234801972Y-96639990D01*
X234801968Y-96639990D01*
X234580283Y-96684086D01*
X234505600Y-96733988D01*
X233898419Y-96126808D01*
X233954127Y-96043436D01*
X234022440Y-95700001D01*
X234022440Y-94799999D01*
X233954127Y-94456564D01*
X233759586Y-94165414D01*
X233468436Y-93970873D01*
X233125001Y-93902560D01*
X232474999Y-93902560D01*
X232133483Y-93970491D01*
X226023521Y-87860530D01*
X225981119Y-87797071D01*
X225729727Y-87629096D01*
X225508042Y-87585000D01*
X225508037Y-87585000D01*
X225433190Y-87570112D01*
X225358343Y-87585000D01*
X222651387Y-87585000D01*
X222535638Y-87305556D01*
X222019444Y-86789362D01*
X221740000Y-86673613D01*
X221740000Y-78682440D01*
X222180000Y-78682440D01*
X222427765Y-78633157D01*
X222637809Y-78492809D01*
X222778157Y-78282765D01*
X222827440Y-78035000D01*
X222827440Y-75635000D01*
X222778157Y-75387235D01*
X222637809Y-75177191D01*
X222427765Y-75036843D01*
X222180000Y-74987560D01*
X219780000Y-74987560D01*
X219532235Y-75036843D01*
X219322191Y-75177191D01*
X219181843Y-75387235D01*
X219132560Y-75635000D01*
X210895000Y-75635000D01*
X210895000Y-62420431D01*
X216840000Y-62420431D01*
X216840000Y-63309569D01*
X217180259Y-64131026D01*
X217808974Y-64759741D01*
X218630431Y-65100000D01*
X219519569Y-65100000D01*
X220341026Y-64759741D01*
X220969741Y-64131026D01*
X221310000Y-63309569D01*
X221310000Y-63055431D01*
X260655000Y-63055431D01*
X260655000Y-63944569D01*
X260995259Y-64766026D01*
X261623974Y-65394741D01*
X262445431Y-65735000D01*
X263334569Y-65735000D01*
X264156026Y-65394741D01*
X264784741Y-64766026D01*
X265125000Y-63944569D01*
X265125000Y-63055431D01*
X264784741Y-62233974D01*
X264156026Y-61605259D01*
X263334569Y-61265000D01*
X262445431Y-61265000D01*
X261623974Y-61605259D01*
X260995259Y-62233974D01*
X260655000Y-63055431D01*
X221310000Y-63055431D01*
X221310000Y-62420431D01*
X220969741Y-61598974D01*
X220341026Y-60970259D01*
X219519569Y-60630000D01*
X218630431Y-60630000D01*
X217808974Y-60970259D01*
X217180259Y-61598974D01*
X216840000Y-62420431D01*
X210895000Y-62420431D01*
X210895000Y-58495000D01*
X267895000Y-58495000D01*
X267895001Y-125655000D01*
X267895001Y-125655000D01*
G37*
X267895001Y-125655000D02*
X210895000Y-125655000D01*
X210895000Y-118300431D01*
X217475000Y-118300431D01*
X217475000Y-119189569D01*
X217815259Y-120011026D01*
X218443974Y-120639741D01*
X219265431Y-120980000D01*
X220154569Y-120980000D01*
X220976026Y-120639741D01*
X221604741Y-120011026D01*
X221945000Y-119189569D01*
X221945000Y-118935431D01*
X260655000Y-118935431D01*
X260655000Y-119824569D01*
X260995259Y-120646026D01*
X261623974Y-121274741D01*
X262445431Y-121615000D01*
X263334569Y-121615000D01*
X264156026Y-121274741D01*
X264784741Y-120646026D01*
X265125000Y-119824569D01*
X265125000Y-118935431D01*
X264784741Y-118113974D01*
X264156026Y-117485259D01*
X263334569Y-117145000D01*
X262445431Y-117145000D01*
X261623974Y-117485259D01*
X260995259Y-118113974D01*
X260655000Y-118935431D01*
X221945000Y-118935431D01*
X221945000Y-118300431D01*
X221604741Y-117478974D01*
X220976026Y-116850259D01*
X220154569Y-116510000D01*
X219265431Y-116510000D01*
X218443974Y-116850259D01*
X217815259Y-117478974D01*
X217475000Y-118300431D01*
X210895000Y-118300431D01*
X210895000Y-111410750D01*
X232960000Y-111410750D01*
X232960000Y-111951310D01*
X233056673Y-112184699D01*
X233235302Y-112363327D01*
X233468691Y-112460000D01*
X233884250Y-112460000D01*
X234043000Y-112301250D01*
X234043000Y-111252000D01*
X233118750Y-111252000D01*
X232960000Y-111410750D01*
X210895000Y-111410750D01*
X210895000Y-110298690D01*
X232960000Y-110298690D01*
X232960000Y-110839250D01*
X233118750Y-110998000D01*
X234043000Y-110998000D01*
X234043000Y-109948750D01*
X233884250Y-109790000D01*
X233468691Y-109790000D01*
X233235302Y-109886673D01*
X233056673Y-110065301D01*
X232960000Y-110298690D01*
X210895000Y-110298690D01*
X210895000Y-95535750D01*
X229540000Y-95535750D01*
X229540000Y-96076310D01*
X229636673Y-96309699D01*
X229815302Y-96488327D01*
X230048691Y-96585000D01*
X230464250Y-96585000D01*
X230623000Y-96426250D01*
X230623000Y-95377000D01*
X229698750Y-95377000D01*
X229540000Y-95535750D01*
X210895000Y-95535750D01*
X210895000Y-93630750D01*
X219145000Y-93630750D01*
X219145000Y-94671309D01*
X219241673Y-94904698D01*
X219420301Y-95083327D01*
X219653690Y-95180000D01*
X220694250Y-95180000D01*
X220853000Y-95021250D01*
X220853000Y-93472000D01*
X221107000Y-93472000D01*
X221107000Y-95021250D01*
X221265750Y-95180000D01*
X222306310Y-95180000D01*
X222539699Y-95083327D01*
X222718327Y-94904698D01*
X222815000Y-94671309D01*
X222815000Y-93630750D01*
X222656250Y-93472000D01*
X221107000Y-93472000D01*
X220853000Y-93472000D01*
X219303750Y-93472000D01*
X219145000Y-93630750D01*
X210895000Y-93630750D01*
X210895000Y-92018691D01*
X219145000Y-92018691D01*
X219145000Y-93059250D01*
X219303750Y-93218000D01*
X220853000Y-93218000D01*
X220853000Y-91668750D01*
X221107000Y-91668750D01*
X221107000Y-93218000D01*
X222656250Y-93218000D01*
X222815000Y-93059250D01*
X222815000Y-92018691D01*
X222718327Y-91785302D01*
X222539699Y-91606673D01*
X222306310Y-91510000D01*
X221265750Y-91510000D01*
X221107000Y-91668750D01*
X220853000Y-91668750D01*
X220694250Y-91510000D01*
X219653690Y-91510000D01*
X219420301Y-91606673D01*
X219241673Y-91785302D01*
X219145000Y-92018691D01*
X210895000Y-92018691D01*
X210895000Y-75635000D01*
X219132560Y-75635000D01*
X219132560Y-78035000D01*
X219181843Y-78282765D01*
X219322191Y-78492809D01*
X219532235Y-78633157D01*
X219780000Y-78682440D01*
X220220000Y-78682440D01*
X220220001Y-86673612D01*
X219940556Y-86789362D01*
X219424362Y-87305556D01*
X219145000Y-87979996D01*
X219145000Y-88710004D01*
X219424362Y-89384444D01*
X219940556Y-89900638D01*
X220614996Y-90180000D01*
X221345004Y-90180000D01*
X222019444Y-89900638D01*
X222535638Y-89384444D01*
X222651387Y-89105000D01*
X225118389Y-89105000D01*
X229963624Y-93950236D01*
X229815302Y-94011673D01*
X229636673Y-94190301D01*
X229540000Y-94423690D01*
X229540000Y-94964250D01*
X229698750Y-95123000D01*
X230623000Y-95123000D01*
X230623000Y-95103000D01*
X230877000Y-95103000D01*
X230877000Y-95123000D01*
X230890011Y-95123000D01*
X230890011Y-95377000D01*
X230877000Y-95377000D01*
X230877000Y-96426250D01*
X230890010Y-96439260D01*
X230890010Y-96958975D01*
X230845282Y-96988861D01*
X230802882Y-97052317D01*
X230802881Y-97052318D01*
X230677307Y-97240253D01*
X230618322Y-97536790D01*
X230633211Y-97611642D01*
X230633211Y-98617560D01*
X230397500Y-98617560D01*
X230054065Y-98685874D01*
X229762914Y-98880414D01*
X229568374Y-99171565D01*
X229500060Y-99515000D01*
X229500060Y-102415000D01*
X229568374Y-102758435D01*
X229762914Y-103049586D01*
X229975000Y-103191297D01*
X229975001Y-104589008D01*
X229965414Y-104595414D01*
X229770874Y-104886565D01*
X229702560Y-105230000D01*
X229702560Y-108130000D01*
X229770874Y-108473435D01*
X229965414Y-108764586D01*
X230256565Y-108959126D01*
X230600000Y-109027440D01*
X231275000Y-109027440D01*
X231618435Y-108959126D01*
X231775000Y-108854513D01*
X231931565Y-108959126D01*
X232275000Y-109027440D01*
X232950000Y-109027440D01*
X233293435Y-108959126D01*
X233584586Y-108764586D01*
X233779126Y-108473435D01*
X233798706Y-108375000D01*
X237930198Y-108375000D01*
X236527639Y-109777560D01*
X235894999Y-109777560D01*
X235551564Y-109845873D01*
X235260414Y-110040414D01*
X235259623Y-110041597D01*
X235104698Y-109886673D01*
X234871309Y-109790000D01*
X234455750Y-109790000D01*
X234297000Y-109948750D01*
X234297000Y-110998000D01*
X234317000Y-110998000D01*
X234317000Y-111252000D01*
X234297000Y-111252000D01*
X234297000Y-112301250D01*
X234455750Y-112460000D01*
X234871309Y-112460000D01*
X235104698Y-112363327D01*
X235259623Y-112208403D01*
X235260414Y-112209586D01*
X235551564Y-112404127D01*
X235894999Y-112472440D01*
X236545001Y-112472440D01*
X236888436Y-112404127D01*
X237179586Y-112209586D01*
X237374127Y-111918436D01*
X237442440Y-111575001D01*
X237442440Y-111012361D01*
X238033284Y-110421517D01*
X256413088Y-110421517D01*
X256481077Y-110662460D01*
X257000171Y-110847201D01*
X257550448Y-110819230D01*
X257928923Y-110662460D01*
X257996912Y-110421517D01*
X257205000Y-109629605D01*
X256413088Y-110421517D01*
X238033284Y-110421517D01*
X239392362Y-109062440D01*
X239516332Y-109062440D01*
X239592235Y-109113157D01*
X239840000Y-109162440D01*
X240016518Y-109162440D01*
X240117071Y-109312929D01*
X240180530Y-109355331D01*
X240759670Y-109934472D01*
X240802070Y-109997928D01*
X241053462Y-110165903D01*
X241275147Y-110209999D01*
X241275152Y-110209999D01*
X241349999Y-110224887D01*
X241424846Y-110209999D01*
X251310154Y-110209999D01*
X251385001Y-110224887D01*
X251459848Y-110209999D01*
X251459853Y-110209999D01*
X251681538Y-110165903D01*
X251932930Y-109997928D01*
X251975332Y-109934469D01*
X252010941Y-109898860D01*
X252460322Y-110085000D01*
X253309678Y-110085000D01*
X254094380Y-109759966D01*
X254694966Y-109159380D01*
X254881105Y-108710000D01*
X256049515Y-108710000D01*
X255992540Y-108726077D01*
X255807799Y-109245171D01*
X255835770Y-109795448D01*
X255992540Y-110173923D01*
X256233483Y-110241912D01*
X257025395Y-109450000D01*
X257011253Y-109435858D01*
X257190858Y-109256253D01*
X257205000Y-109270395D01*
X257219143Y-109256253D01*
X257398748Y-109435858D01*
X257384605Y-109450000D01*
X258176517Y-110241912D01*
X258417460Y-110173923D01*
X258602201Y-109654829D01*
X258574230Y-109104552D01*
X258425369Y-108745170D01*
X258830165Y-109149966D01*
X258820000Y-109174506D01*
X258820000Y-109725494D01*
X259030853Y-110234540D01*
X259420460Y-110624147D01*
X259929506Y-110835000D01*
X260480494Y-110835000D01*
X260989540Y-110624147D01*
X261379147Y-110234540D01*
X261590000Y-109725494D01*
X261590000Y-109174506D01*
X261379147Y-108665460D01*
X260989540Y-108275853D01*
X260480494Y-108065000D01*
X259929506Y-108065000D01*
X259904966Y-108075165D01*
X259779802Y-107950000D01*
X259904966Y-107824835D01*
X259929506Y-107835000D01*
X260480494Y-107835000D01*
X260989540Y-107624147D01*
X261379147Y-107234540D01*
X261590000Y-106725494D01*
X261590000Y-106174506D01*
X261379147Y-105665460D01*
X260989540Y-105275853D01*
X260480494Y-105065000D01*
X259929506Y-105065000D01*
X259420460Y-105275853D01*
X259030853Y-105665460D01*
X258820000Y-106174506D01*
X258820000Y-106725494D01*
X258830165Y-106750034D01*
X258402827Y-107177372D01*
X258590000Y-106725494D01*
X258590000Y-106174506D01*
X258379147Y-105665460D01*
X257989540Y-105275853D01*
X257480494Y-105065000D01*
X256929506Y-105065000D01*
X256894388Y-105079546D01*
X256751538Y-104984097D01*
X256529853Y-104940001D01*
X256529848Y-104940001D01*
X256455001Y-104925113D01*
X256380154Y-104940001D01*
X246364801Y-104940001D01*
X247476264Y-103828538D01*
X247539719Y-103786139D01*
X247582119Y-103722683D01*
X247707694Y-103534748D01*
X247766678Y-103238210D01*
X247707694Y-102941673D01*
X247572500Y-102739341D01*
X247572500Y-100497440D01*
X248262500Y-100497440D01*
X248605935Y-100429126D01*
X248897086Y-100234586D01*
X249038797Y-100022500D01*
X250402653Y-100022500D01*
X250477500Y-100037388D01*
X250552347Y-100022500D01*
X250552352Y-100022500D01*
X250774037Y-99978404D01*
X251025429Y-99810429D01*
X251050812Y-99772440D01*
X251640001Y-99772440D01*
X251983436Y-99704127D01*
X252274586Y-99509586D01*
X252275377Y-99508403D01*
X252430302Y-99663327D01*
X252663691Y-99760000D01*
X253079250Y-99760000D01*
X253238000Y-99601250D01*
X253238000Y-98552000D01*
X253492000Y-98552000D01*
X253492000Y-99601250D01*
X253650750Y-99760000D01*
X254066309Y-99760000D01*
X254299698Y-99663327D01*
X254478327Y-99484699D01*
X254575000Y-99251310D01*
X254575000Y-98710750D01*
X254416250Y-98552000D01*
X253492000Y-98552000D01*
X253238000Y-98552000D01*
X253218000Y-98552000D01*
X253218000Y-98298000D01*
X253238000Y-98298000D01*
X253238000Y-97248750D01*
X253492000Y-97248750D01*
X253492000Y-98298000D01*
X254416250Y-98298000D01*
X254575000Y-98139250D01*
X254575000Y-97598690D01*
X254478327Y-97365301D01*
X254299698Y-97186673D01*
X254066309Y-97090000D01*
X253650750Y-97090000D01*
X253492000Y-97248750D01*
X253238000Y-97248750D01*
X253079250Y-97090000D01*
X252663691Y-97090000D01*
X252430302Y-97186673D01*
X252275377Y-97341597D01*
X252274586Y-97340414D01*
X251983436Y-97145873D01*
X251640001Y-97077560D01*
X250989999Y-97077560D01*
X250646564Y-97145873D01*
X250355414Y-97340414D01*
X250160873Y-97631564D01*
X250092560Y-97974999D01*
X250092560Y-98502500D01*
X249038797Y-98502500D01*
X248987013Y-98425000D01*
X249091626Y-98268435D01*
X249159940Y-97925000D01*
X249159940Y-97250000D01*
X249091626Y-96906565D01*
X248897086Y-96615414D01*
X248605935Y-96420874D01*
X248262500Y-96352560D01*
X247572500Y-96352560D01*
X247572500Y-90862301D01*
X247739014Y-90695787D01*
X248075105Y-90835000D01*
X248844895Y-90835000D01*
X249556090Y-90540414D01*
X249827045Y-90269459D01*
X253270146Y-90269459D01*
X253405504Y-90567455D01*
X254123880Y-90844066D01*
X254893427Y-90824710D01*
X255514496Y-90567455D01*
X255649854Y-90269459D01*
X254460000Y-89079605D01*
X253270146Y-90269459D01*
X249827045Y-90269459D01*
X250100414Y-89996090D01*
X250395000Y-89284895D01*
X250395000Y-88563880D01*
X252515934Y-88563880D01*
X252535290Y-89333427D01*
X252792545Y-89954496D01*
X253090541Y-90089854D01*
X254280395Y-88900000D01*
X254639605Y-88900000D01*
X255829459Y-90089854D01*
X256127455Y-89954496D01*
X256404066Y-89236120D01*
X256384710Y-88466573D01*
X256127455Y-87845504D01*
X255829459Y-87710146D01*
X254639605Y-88900000D01*
X254280395Y-88900000D01*
X253090541Y-87710146D01*
X252792545Y-87845504D01*
X252515934Y-88563880D01*
X250395000Y-88563880D01*
X250395000Y-88515105D01*
X250330754Y-88360001D01*
X250390154Y-88360001D01*
X250465001Y-88374889D01*
X250539848Y-88360001D01*
X250539853Y-88360001D01*
X250761538Y-88315905D01*
X251012930Y-88147930D01*
X251055332Y-88084471D01*
X251609262Y-87530541D01*
X253270146Y-87530541D01*
X254460000Y-88720395D01*
X255649854Y-87530541D01*
X255514496Y-87232545D01*
X254796120Y-86955934D01*
X254026573Y-86975290D01*
X253405504Y-87232545D01*
X253270146Y-87530541D01*
X251609262Y-87530541D01*
X256569474Y-82570330D01*
X256632930Y-82527930D01*
X256800905Y-82276538D01*
X256845001Y-82054853D01*
X256845001Y-82054849D01*
X256859889Y-81980002D01*
X256845001Y-81905155D01*
X256845001Y-71889845D01*
X256859889Y-71814998D01*
X256845001Y-71740151D01*
X256845001Y-71740147D01*
X256800905Y-71518462D01*
X256632930Y-71267070D01*
X256569474Y-71224670D01*
X248730314Y-63385511D01*
X248687912Y-63322052D01*
X248436520Y-63154077D01*
X248214835Y-63109981D01*
X248214830Y-63109981D01*
X248139983Y-63095093D01*
X248065136Y-63109981D01*
X241637045Y-63109981D01*
X241562198Y-63095093D01*
X241487351Y-63109981D01*
X241487347Y-63109981D01*
X241265662Y-63154077D01*
X241265660Y-63154078D01*
X241265661Y-63154078D01*
X241077725Y-63279652D01*
X241077723Y-63279654D01*
X241014270Y-63322052D01*
X240971872Y-63385505D01*
X232560530Y-71796849D01*
X232497071Y-71839251D01*
X232329096Y-72090644D01*
X232285000Y-72312329D01*
X232285000Y-72312333D01*
X232270112Y-72387180D01*
X232285000Y-72462027D01*
X232285001Y-75560010D01*
X225779812Y-75560010D01*
X222770330Y-72550529D01*
X222770328Y-72550526D01*
X222699250Y-72479448D01*
X222815000Y-72200004D01*
X222815000Y-71469996D01*
X222535638Y-70795556D01*
X222019444Y-70279362D01*
X221345004Y-70000000D01*
X220614996Y-70000000D01*
X219940556Y-70279362D01*
X219424362Y-70795556D01*
X219145000Y-71469996D01*
X219145000Y-72200004D01*
X219424362Y-72874444D01*
X219940556Y-73390638D01*
X220614996Y-73670000D01*
X221345004Y-73670000D01*
X221624448Y-73554250D01*
X221695526Y-73625328D01*
X221695529Y-73625330D01*
X224874681Y-76804483D01*
X224917081Y-76867939D01*
X225168473Y-77035914D01*
X225390158Y-77080010D01*
X225390162Y-77080010D01*
X225465009Y-77094898D01*
X225539856Y-77080010D01*
X232285001Y-77080010D01*
X232285001Y-77150149D01*
X232270112Y-77225000D01*
X232285001Y-77299852D01*
X232329097Y-77521537D01*
X232497072Y-77772929D01*
X232560528Y-77815329D01*
X235242560Y-80497363D01*
X235242560Y-81095001D01*
X235310873Y-81438436D01*
X235505414Y-81729586D01*
X235796564Y-81924127D01*
X236139999Y-81992440D01*
X236737639Y-81992440D01*
X241377500Y-86632303D01*
X241377501Y-96198703D01*
X241300000Y-96250487D01*
X241143435Y-96145874D01*
X240800000Y-96077560D01*
X240125000Y-96077560D01*
X239781565Y-96145874D01*
X239490414Y-96340414D01*
X239295874Y-96631565D01*
X239227560Y-96975000D01*
X239227560Y-98585139D01*
X238780528Y-99032171D01*
X238717072Y-99074571D01*
X238674672Y-99138027D01*
X238674671Y-99138028D01*
X238653954Y-99169034D01*
X238712440Y-98875001D01*
X238712440Y-97974999D01*
X238644127Y-97631564D01*
X238449586Y-97340414D01*
X238158436Y-97145873D01*
X237815001Y-97077560D01*
X237217361Y-97077560D01*
X237055321Y-96915520D01*
X237012919Y-96852061D01*
X236761527Y-96684086D01*
X236539842Y-96639990D01*
X236539837Y-96639990D01*
X236464990Y-96625102D01*
X236390143Y-96639990D01*
X234951666Y-96639990D01*
X234876819Y-96625102D01*
X234801972Y-96639990D01*
X234801968Y-96639990D01*
X234580283Y-96684086D01*
X234505600Y-96733988D01*
X233898419Y-96126808D01*
X233954127Y-96043436D01*
X234022440Y-95700001D01*
X234022440Y-94799999D01*
X233954127Y-94456564D01*
X233759586Y-94165414D01*
X233468436Y-93970873D01*
X233125001Y-93902560D01*
X232474999Y-93902560D01*
X232133483Y-93970491D01*
X226023521Y-87860530D01*
X225981119Y-87797071D01*
X225729727Y-87629096D01*
X225508042Y-87585000D01*
X225508037Y-87585000D01*
X225433190Y-87570112D01*
X225358343Y-87585000D01*
X222651387Y-87585000D01*
X222535638Y-87305556D01*
X222019444Y-86789362D01*
X221740000Y-86673613D01*
X221740000Y-78682440D01*
X222180000Y-78682440D01*
X222427765Y-78633157D01*
X222637809Y-78492809D01*
X222778157Y-78282765D01*
X222827440Y-78035000D01*
X222827440Y-75635000D01*
X222778157Y-75387235D01*
X222637809Y-75177191D01*
X222427765Y-75036843D01*
X222180000Y-74987560D01*
X219780000Y-74987560D01*
X219532235Y-75036843D01*
X219322191Y-75177191D01*
X219181843Y-75387235D01*
X219132560Y-75635000D01*
X210895000Y-75635000D01*
X210895000Y-62420431D01*
X216840000Y-62420431D01*
X216840000Y-63309569D01*
X217180259Y-64131026D01*
X217808974Y-64759741D01*
X218630431Y-65100000D01*
X219519569Y-65100000D01*
X220341026Y-64759741D01*
X220969741Y-64131026D01*
X221310000Y-63309569D01*
X221310000Y-63055431D01*
X260655000Y-63055431D01*
X260655000Y-63944569D01*
X260995259Y-64766026D01*
X261623974Y-65394741D01*
X262445431Y-65735000D01*
X263334569Y-65735000D01*
X264156026Y-65394741D01*
X264784741Y-64766026D01*
X265125000Y-63944569D01*
X265125000Y-63055431D01*
X264784741Y-62233974D01*
X264156026Y-61605259D01*
X263334569Y-61265000D01*
X262445431Y-61265000D01*
X261623974Y-61605259D01*
X260995259Y-62233974D01*
X260655000Y-63055431D01*
X221310000Y-63055431D01*
X221310000Y-62420431D01*
X220969741Y-61598974D01*
X220341026Y-60970259D01*
X219519569Y-60630000D01*
X218630431Y-60630000D01*
X217808974Y-60970259D01*
X217180259Y-61598974D01*
X216840000Y-62420431D01*
X210895000Y-62420431D01*
X210895000Y-58495000D01*
X267895000Y-58495000D01*
X267895001Y-125655000D01*
G36*
X242212000Y-106368750D02*
X242192002Y-106388748D01*
X242192002Y-106290000D01*
X242212000Y-106290000D01*
X242212000Y-106368750D01*
X242212000Y-106368750D01*
G37*
X242212000Y-106368750D02*
X242192002Y-106388748D01*
X242192002Y-106290000D01*
X242212000Y-106290000D01*
X242212000Y-106368750D01*
G36*
X250912671Y-67717470D02*
X250405504Y-67927545D01*
X250270146Y-68225541D01*
X251460000Y-69415395D01*
X251474143Y-69401253D01*
X251653748Y-69580858D01*
X251639605Y-69595000D01*
X252829459Y-70784854D01*
X253127455Y-70649496D01*
X253326851Y-70131651D01*
X255325002Y-72129802D01*
X255325002Y-72554580D01*
X254796120Y-72350934D01*
X254026573Y-72370290D01*
X253405504Y-72627545D01*
X253270146Y-72925541D01*
X254460000Y-74115395D01*
X254474143Y-74101253D01*
X254653748Y-74280858D01*
X254639605Y-74295000D01*
X254653748Y-74309143D01*
X254474143Y-74488748D01*
X254460000Y-74474605D01*
X253270146Y-75664459D01*
X253405504Y-75962455D01*
X254123880Y-76239066D01*
X254893427Y-76219710D01*
X255325002Y-76040946D01*
X255325001Y-81665199D01*
X253337530Y-83652670D01*
X253127455Y-83145504D01*
X252829459Y-83010146D01*
X251639605Y-84200000D01*
X251653748Y-84214143D01*
X251474143Y-84393748D01*
X251460000Y-84379605D01*
X250270146Y-85569459D01*
X250405504Y-85867455D01*
X250923349Y-86066852D01*
X250150200Y-86840001D01*
X249834845Y-86840001D01*
X249759998Y-86825113D01*
X249685151Y-86840001D01*
X249685147Y-86840001D01*
X249463462Y-86884097D01*
X249212070Y-87052072D01*
X249178044Y-87102995D01*
X248844895Y-86965000D01*
X248075105Y-86965000D01*
X247363910Y-87259586D01*
X246819586Y-87803910D01*
X246525000Y-88515105D01*
X246525000Y-89284895D01*
X246664213Y-89620986D01*
X246328028Y-89957171D01*
X246264572Y-89999571D01*
X246222172Y-90063027D01*
X246222171Y-90063028D01*
X246096597Y-90250963D01*
X246037612Y-90547500D01*
X246052501Y-90622352D01*
X246052500Y-96352560D01*
X245362500Y-96352560D01*
X245019065Y-96420874D01*
X244727914Y-96615414D01*
X244533374Y-96906565D01*
X244465060Y-97250000D01*
X244465060Y-97925000D01*
X244533374Y-98268435D01*
X244637987Y-98425000D01*
X244533374Y-98581565D01*
X244465060Y-98925000D01*
X244465060Y-99600000D01*
X244533374Y-99943435D01*
X244727914Y-100234586D01*
X245019065Y-100429126D01*
X245362500Y-100497440D01*
X246052501Y-100497440D01*
X246052500Y-102984073D01*
X246037612Y-103058920D01*
X246047345Y-103107853D01*
X242917201Y-106237998D01*
X242893252Y-106237998D01*
X243000000Y-106131250D01*
X243000000Y-106088690D01*
X242903327Y-105855301D01*
X242724698Y-105676673D01*
X242491309Y-105580000D01*
X242350750Y-105580000D01*
X242192000Y-105738750D01*
X242192000Y-106230000D01*
X242137440Y-106230000D01*
X242137440Y-106115000D01*
X242088157Y-105867235D01*
X241947809Y-105657191D01*
X241737765Y-105516843D01*
X241490000Y-105467560D01*
X240025000Y-105467560D01*
X240025000Y-100752549D01*
X240125000Y-100772440D01*
X240800000Y-100772440D01*
X241143435Y-100704126D01*
X241300000Y-100599513D01*
X241456565Y-100704126D01*
X241800000Y-100772440D01*
X242475000Y-100772440D01*
X242818435Y-100704126D01*
X243109586Y-100509586D01*
X243304126Y-100218435D01*
X243372440Y-99875000D01*
X243372440Y-98264862D01*
X243386039Y-98251263D01*
X243511614Y-98063327D01*
X243570598Y-97766790D01*
X243511614Y-97470253D01*
X243372440Y-97261965D01*
X243372440Y-96975000D01*
X243304126Y-96631565D01*
X243109586Y-96340414D01*
X242897500Y-96198703D01*
X242897500Y-86392346D01*
X242912388Y-86317499D01*
X242897500Y-86242652D01*
X242897500Y-86242648D01*
X242853404Y-86020963D01*
X242811602Y-85958402D01*
X242727829Y-85833026D01*
X242727827Y-85833024D01*
X242685429Y-85769571D01*
X242621976Y-85727173D01*
X240758683Y-83863880D01*
X249515934Y-83863880D01*
X249535290Y-84633427D01*
X249792545Y-85254496D01*
X250090541Y-85389854D01*
X251280395Y-84200000D01*
X250090541Y-83010146D01*
X249792545Y-83145504D01*
X249515934Y-83863880D01*
X240758683Y-83863880D01*
X239725344Y-82830541D01*
X250270146Y-82830541D01*
X251460000Y-84020395D01*
X252649854Y-82830541D01*
X252514496Y-82532545D01*
X251796120Y-82255934D01*
X251026573Y-82275290D01*
X250405504Y-82532545D01*
X250270146Y-82830541D01*
X239725344Y-82830541D01*
X238874802Y-81980000D01*
X239216309Y-81980000D01*
X239449698Y-81883327D01*
X239628327Y-81704699D01*
X239725000Y-81471310D01*
X239725000Y-80930750D01*
X239566250Y-80772000D01*
X238642000Y-80772000D01*
X238642000Y-80792000D01*
X238388000Y-80792000D01*
X238388000Y-80772000D01*
X238368000Y-80772000D01*
X238368000Y-80518000D01*
X238388000Y-80518000D01*
X238388000Y-79468750D01*
X238642000Y-79468750D01*
X238642000Y-80518000D01*
X239566250Y-80518000D01*
X239725000Y-80359250D01*
X239725000Y-79818690D01*
X239628327Y-79585301D01*
X239449698Y-79406673D01*
X239216309Y-79310000D01*
X238800750Y-79310000D01*
X238642000Y-79468750D01*
X238388000Y-79468750D01*
X238229250Y-79310000D01*
X237813691Y-79310000D01*
X237580302Y-79406673D01*
X237425377Y-79561597D01*
X237424586Y-79560414D01*
X237133436Y-79365873D01*
X236790001Y-79297560D01*
X236192363Y-79297560D01*
X233974811Y-77080010D01*
X238475143Y-77080010D01*
X238549990Y-77094898D01*
X238624837Y-77080010D01*
X238624842Y-77080010D01*
X238846527Y-77035914D01*
X239097919Y-76867939D01*
X239140321Y-76804480D01*
X239260329Y-76684472D01*
X239852362Y-76092440D01*
X240075000Y-76092440D01*
X240167179Y-76074105D01*
X240398690Y-76170000D01*
X241014250Y-76170000D01*
X241173000Y-76011250D01*
X241173000Y-74422000D01*
X241153000Y-74422000D01*
X241153000Y-74168000D01*
X241173000Y-74168000D01*
X241173000Y-72578750D01*
X241014250Y-72420000D01*
X240398690Y-72420000D01*
X240181411Y-72510000D01*
X240035750Y-72510000D01*
X239877000Y-72668750D01*
X239877000Y-73442000D01*
X239623000Y-73442000D01*
X239623000Y-72668750D01*
X239464250Y-72510000D01*
X239298690Y-72510000D01*
X239065301Y-72606673D01*
X238886673Y-72785302D01*
X238790000Y-73018691D01*
X238790000Y-73061250D01*
X238948750Y-73220000D01*
X238951975Y-73220000D01*
X238886673Y-73285302D01*
X238790000Y-73518691D01*
X238790000Y-73535000D01*
X237657440Y-73535000D01*
X237657440Y-72845000D01*
X237589126Y-72501565D01*
X237394586Y-72210414D01*
X237103435Y-72015874D01*
X236760000Y-71947560D01*
X236085000Y-71947560D01*
X235741565Y-72015874D01*
X235685936Y-72053044D01*
X235461309Y-71960000D01*
X235033250Y-71960000D01*
X234874500Y-72118750D01*
X234874500Y-74168000D01*
X234894500Y-74168000D01*
X234894500Y-74422000D01*
X234874500Y-74422000D01*
X234874500Y-74442000D01*
X234620500Y-74442000D01*
X234620500Y-74422000D01*
X234600500Y-74422000D01*
X234600500Y-74168000D01*
X234620500Y-74168000D01*
X234620500Y-72118750D01*
X234504366Y-72002616D01*
X239270000Y-67236982D01*
X239270000Y-67625153D01*
X239255112Y-67700000D01*
X239270000Y-67774847D01*
X239270000Y-67774851D01*
X239314096Y-67996536D01*
X239482071Y-68247929D01*
X239545530Y-68290331D01*
X239952560Y-68697361D01*
X239952560Y-69295001D01*
X240020873Y-69638436D01*
X240215414Y-69929586D01*
X240506564Y-70124127D01*
X240849999Y-70192440D01*
X241750001Y-70192440D01*
X242093436Y-70124127D01*
X242384586Y-69929586D01*
X242579127Y-69638436D01*
X242647440Y-69295001D01*
X242647440Y-68644999D01*
X242579127Y-68301564D01*
X242384586Y-68010414D01*
X242286687Y-67945000D01*
X242384586Y-67879586D01*
X242579127Y-67588436D01*
X242647440Y-67245001D01*
X242647440Y-66594999D01*
X242579127Y-66251564D01*
X242384586Y-65960414D01*
X242093436Y-65765873D01*
X242060000Y-65759222D01*
X242060000Y-65719801D01*
X242249802Y-65530000D01*
X244055199Y-65530000D01*
X244122759Y-65597560D01*
X243732500Y-65597560D01*
X243389065Y-65665874D01*
X243097914Y-65860414D01*
X242903374Y-66151565D01*
X242835060Y-66495000D01*
X242835060Y-69395000D01*
X242903374Y-69738435D01*
X243097914Y-70029586D01*
X243310000Y-70171297D01*
X243310001Y-72524413D01*
X243175000Y-72497560D01*
X242525000Y-72497560D01*
X242432821Y-72515895D01*
X242201310Y-72420000D01*
X241585750Y-72420000D01*
X241427000Y-72578750D01*
X241427000Y-74168000D01*
X241447000Y-74168000D01*
X241447000Y-74422000D01*
X241427000Y-74422000D01*
X241427000Y-76011250D01*
X241585750Y-76170000D01*
X242201310Y-76170000D01*
X242300001Y-76129121D01*
X242300000Y-78792054D01*
X242100414Y-78925414D01*
X241905873Y-79216564D01*
X241837560Y-79559999D01*
X241837560Y-80460001D01*
X241905873Y-80803436D01*
X242100414Y-81094586D01*
X242391564Y-81289127D01*
X242734999Y-81357440D01*
X243385001Y-81357440D01*
X243728436Y-81289127D01*
X244019586Y-81094586D01*
X244020377Y-81093403D01*
X244175302Y-81248327D01*
X244408691Y-81345000D01*
X244824250Y-81345000D01*
X244983000Y-81186250D01*
X244983000Y-80137000D01*
X245237000Y-80137000D01*
X245237000Y-81186250D01*
X245395750Y-81345000D01*
X245811309Y-81345000D01*
X246044698Y-81248327D01*
X246223327Y-81069699D01*
X246320000Y-80836310D01*
X246320000Y-80295750D01*
X246161250Y-80137000D01*
X245237000Y-80137000D01*
X244983000Y-80137000D01*
X244963000Y-80137000D01*
X244963000Y-79883000D01*
X244983000Y-79883000D01*
X244983000Y-78833750D01*
X245237000Y-78833750D01*
X245237000Y-79883000D01*
X246161250Y-79883000D01*
X246320000Y-79724250D01*
X246320000Y-79183690D01*
X246223327Y-78950301D01*
X246044698Y-78771673D01*
X245811309Y-78675000D01*
X245395750Y-78675000D01*
X245237000Y-78833750D01*
X244983000Y-78833750D01*
X244824250Y-78675000D01*
X244408691Y-78675000D01*
X244175302Y-78771673D01*
X244020377Y-78926597D01*
X244019586Y-78925414D01*
X243820000Y-78792054D01*
X243820000Y-76055000D01*
X244035153Y-76055000D01*
X244110000Y-76069888D01*
X244184847Y-76055000D01*
X244184852Y-76055000D01*
X244406537Y-76010904D01*
X244657929Y-75842929D01*
X244700331Y-75779470D01*
X244924801Y-75555000D01*
X246046676Y-75555000D01*
X246121523Y-75569888D01*
X246196370Y-75555000D01*
X246196375Y-75555000D01*
X246418060Y-75510904D01*
X246669452Y-75342929D01*
X246711854Y-75279471D01*
X246755339Y-75235985D01*
X246819586Y-75391090D01*
X247363910Y-75935414D01*
X248075105Y-76230000D01*
X248844895Y-76230000D01*
X249556090Y-75935414D01*
X250100414Y-75391090D01*
X250395000Y-74679895D01*
X250395000Y-73958880D01*
X252515934Y-73958880D01*
X252535290Y-74728427D01*
X252792545Y-75349496D01*
X253090541Y-75484854D01*
X254280395Y-74295000D01*
X253090541Y-73105146D01*
X252792545Y-73240504D01*
X252515934Y-73958880D01*
X250395000Y-73958880D01*
X250395000Y-73910105D01*
X250100414Y-73198910D01*
X249556090Y-72654586D01*
X249220000Y-72515373D01*
X249220000Y-70964459D01*
X250270146Y-70964459D01*
X250405504Y-71262455D01*
X251123880Y-71539066D01*
X251893427Y-71519710D01*
X252514496Y-71262455D01*
X252649854Y-70964459D01*
X251460000Y-69774605D01*
X250270146Y-70964459D01*
X249220000Y-70964459D01*
X249220000Y-69258880D01*
X249515934Y-69258880D01*
X249535290Y-70028427D01*
X249792545Y-70649496D01*
X250090541Y-70784854D01*
X251280395Y-69595000D01*
X250090541Y-68405146D01*
X249792545Y-68540504D01*
X249515934Y-69258880D01*
X249220000Y-69258880D01*
X249220000Y-68134156D01*
X249234888Y-68059309D01*
X249220000Y-67984462D01*
X249220000Y-67984458D01*
X249175904Y-67762773D01*
X249007929Y-67511381D01*
X248944473Y-67468981D01*
X246105472Y-64629981D01*
X247825182Y-64629981D01*
X250912671Y-67717470D01*
X250912671Y-67717470D01*
G37*
X250912671Y-67717470D02*
X250405504Y-67927545D01*
X250270146Y-68225541D01*
X251460000Y-69415395D01*
X251474143Y-69401253D01*
X251653748Y-69580858D01*
X251639605Y-69595000D01*
X252829459Y-70784854D01*
X253127455Y-70649496D01*
X253326851Y-70131651D01*
X255325002Y-72129802D01*
X255325002Y-72554580D01*
X254796120Y-72350934D01*
X254026573Y-72370290D01*
X253405504Y-72627545D01*
X253270146Y-72925541D01*
X254460000Y-74115395D01*
X254474143Y-74101253D01*
X254653748Y-74280858D01*
X254639605Y-74295000D01*
X254653748Y-74309143D01*
X254474143Y-74488748D01*
X254460000Y-74474605D01*
X253270146Y-75664459D01*
X253405504Y-75962455D01*
X254123880Y-76239066D01*
X254893427Y-76219710D01*
X255325002Y-76040946D01*
X255325001Y-81665199D01*
X253337530Y-83652670D01*
X253127455Y-83145504D01*
X252829459Y-83010146D01*
X251639605Y-84200000D01*
X251653748Y-84214143D01*
X251474143Y-84393748D01*
X251460000Y-84379605D01*
X250270146Y-85569459D01*
X250405504Y-85867455D01*
X250923349Y-86066852D01*
X250150200Y-86840001D01*
X249834845Y-86840001D01*
X249759998Y-86825113D01*
X249685151Y-86840001D01*
X249685147Y-86840001D01*
X249463462Y-86884097D01*
X249212070Y-87052072D01*
X249178044Y-87102995D01*
X248844895Y-86965000D01*
X248075105Y-86965000D01*
X247363910Y-87259586D01*
X246819586Y-87803910D01*
X246525000Y-88515105D01*
X246525000Y-89284895D01*
X246664213Y-89620986D01*
X246328028Y-89957171D01*
X246264572Y-89999571D01*
X246222172Y-90063027D01*
X246222171Y-90063028D01*
X246096597Y-90250963D01*
X246037612Y-90547500D01*
X246052501Y-90622352D01*
X246052500Y-96352560D01*
X245362500Y-96352560D01*
X245019065Y-96420874D01*
X244727914Y-96615414D01*
X244533374Y-96906565D01*
X244465060Y-97250000D01*
X244465060Y-97925000D01*
X244533374Y-98268435D01*
X244637987Y-98425000D01*
X244533374Y-98581565D01*
X244465060Y-98925000D01*
X244465060Y-99600000D01*
X244533374Y-99943435D01*
X244727914Y-100234586D01*
X245019065Y-100429126D01*
X245362500Y-100497440D01*
X246052501Y-100497440D01*
X246052500Y-102984073D01*
X246037612Y-103058920D01*
X246047345Y-103107853D01*
X242917201Y-106237998D01*
X242893252Y-106237998D01*
X243000000Y-106131250D01*
X243000000Y-106088690D01*
X242903327Y-105855301D01*
X242724698Y-105676673D01*
X242491309Y-105580000D01*
X242350750Y-105580000D01*
X242192000Y-105738750D01*
X242192000Y-106230000D01*
X242137440Y-106230000D01*
X242137440Y-106115000D01*
X242088157Y-105867235D01*
X241947809Y-105657191D01*
X241737765Y-105516843D01*
X241490000Y-105467560D01*
X240025000Y-105467560D01*
X240025000Y-100752549D01*
X240125000Y-100772440D01*
X240800000Y-100772440D01*
X241143435Y-100704126D01*
X241300000Y-100599513D01*
X241456565Y-100704126D01*
X241800000Y-100772440D01*
X242475000Y-100772440D01*
X242818435Y-100704126D01*
X243109586Y-100509586D01*
X243304126Y-100218435D01*
X243372440Y-99875000D01*
X243372440Y-98264862D01*
X243386039Y-98251263D01*
X243511614Y-98063327D01*
X243570598Y-97766790D01*
X243511614Y-97470253D01*
X243372440Y-97261965D01*
X243372440Y-96975000D01*
X243304126Y-96631565D01*
X243109586Y-96340414D01*
X242897500Y-96198703D01*
X242897500Y-86392346D01*
X242912388Y-86317499D01*
X242897500Y-86242652D01*
X242897500Y-86242648D01*
X242853404Y-86020963D01*
X242811602Y-85958402D01*
X242727829Y-85833026D01*
X242727827Y-85833024D01*
X242685429Y-85769571D01*
X242621976Y-85727173D01*
X240758683Y-83863880D01*
X249515934Y-83863880D01*
X249535290Y-84633427D01*
X249792545Y-85254496D01*
X250090541Y-85389854D01*
X251280395Y-84200000D01*
X250090541Y-83010146D01*
X249792545Y-83145504D01*
X249515934Y-83863880D01*
X240758683Y-83863880D01*
X239725344Y-82830541D01*
X250270146Y-82830541D01*
X251460000Y-84020395D01*
X252649854Y-82830541D01*
X252514496Y-82532545D01*
X251796120Y-82255934D01*
X251026573Y-82275290D01*
X250405504Y-82532545D01*
X250270146Y-82830541D01*
X239725344Y-82830541D01*
X238874802Y-81980000D01*
X239216309Y-81980000D01*
X239449698Y-81883327D01*
X239628327Y-81704699D01*
X239725000Y-81471310D01*
X239725000Y-80930750D01*
X239566250Y-80772000D01*
X238642000Y-80772000D01*
X238642000Y-80792000D01*
X238388000Y-80792000D01*
X238388000Y-80772000D01*
X238368000Y-80772000D01*
X238368000Y-80518000D01*
X238388000Y-80518000D01*
X238388000Y-79468750D01*
X238642000Y-79468750D01*
X238642000Y-80518000D01*
X239566250Y-80518000D01*
X239725000Y-80359250D01*
X239725000Y-79818690D01*
X239628327Y-79585301D01*
X239449698Y-79406673D01*
X239216309Y-79310000D01*
X238800750Y-79310000D01*
X238642000Y-79468750D01*
X238388000Y-79468750D01*
X238229250Y-79310000D01*
X237813691Y-79310000D01*
X237580302Y-79406673D01*
X237425377Y-79561597D01*
X237424586Y-79560414D01*
X237133436Y-79365873D01*
X236790001Y-79297560D01*
X236192363Y-79297560D01*
X233974811Y-77080010D01*
X238475143Y-77080010D01*
X238549990Y-77094898D01*
X238624837Y-77080010D01*
X238624842Y-77080010D01*
X238846527Y-77035914D01*
X239097919Y-76867939D01*
X239140321Y-76804480D01*
X239260329Y-76684472D01*
X239852362Y-76092440D01*
X240075000Y-76092440D01*
X240167179Y-76074105D01*
X240398690Y-76170000D01*
X241014250Y-76170000D01*
X241173000Y-76011250D01*
X241173000Y-74422000D01*
X241153000Y-74422000D01*
X241153000Y-74168000D01*
X241173000Y-74168000D01*
X241173000Y-72578750D01*
X241014250Y-72420000D01*
X240398690Y-72420000D01*
X240181411Y-72510000D01*
X240035750Y-72510000D01*
X239877000Y-72668750D01*
X239877000Y-73442000D01*
X239623000Y-73442000D01*
X239623000Y-72668750D01*
X239464250Y-72510000D01*
X239298690Y-72510000D01*
X239065301Y-72606673D01*
X238886673Y-72785302D01*
X238790000Y-73018691D01*
X238790000Y-73061250D01*
X238948750Y-73220000D01*
X238951975Y-73220000D01*
X238886673Y-73285302D01*
X238790000Y-73518691D01*
X238790000Y-73535000D01*
X237657440Y-73535000D01*
X237657440Y-72845000D01*
X237589126Y-72501565D01*
X237394586Y-72210414D01*
X237103435Y-72015874D01*
X236760000Y-71947560D01*
X236085000Y-71947560D01*
X235741565Y-72015874D01*
X235685936Y-72053044D01*
X235461309Y-71960000D01*
X235033250Y-71960000D01*
X234874500Y-72118750D01*
X234874500Y-74168000D01*
X234894500Y-74168000D01*
X234894500Y-74422000D01*
X234874500Y-74422000D01*
X234874500Y-74442000D01*
X234620500Y-74442000D01*
X234620500Y-74422000D01*
X234600500Y-74422000D01*
X234600500Y-74168000D01*
X234620500Y-74168000D01*
X234620500Y-72118750D01*
X234504366Y-72002616D01*
X239270000Y-67236982D01*
X239270000Y-67625153D01*
X239255112Y-67700000D01*
X239270000Y-67774847D01*
X239270000Y-67774851D01*
X239314096Y-67996536D01*
X239482071Y-68247929D01*
X239545530Y-68290331D01*
X239952560Y-68697361D01*
X239952560Y-69295001D01*
X240020873Y-69638436D01*
X240215414Y-69929586D01*
X240506564Y-70124127D01*
X240849999Y-70192440D01*
X241750001Y-70192440D01*
X242093436Y-70124127D01*
X242384586Y-69929586D01*
X242579127Y-69638436D01*
X242647440Y-69295001D01*
X242647440Y-68644999D01*
X242579127Y-68301564D01*
X242384586Y-68010414D01*
X242286687Y-67945000D01*
X242384586Y-67879586D01*
X242579127Y-67588436D01*
X242647440Y-67245001D01*
X242647440Y-66594999D01*
X242579127Y-66251564D01*
X242384586Y-65960414D01*
X242093436Y-65765873D01*
X242060000Y-65759222D01*
X242060000Y-65719801D01*
X242249802Y-65530000D01*
X244055199Y-65530000D01*
X244122759Y-65597560D01*
X243732500Y-65597560D01*
X243389065Y-65665874D01*
X243097914Y-65860414D01*
X242903374Y-66151565D01*
X242835060Y-66495000D01*
X242835060Y-69395000D01*
X242903374Y-69738435D01*
X243097914Y-70029586D01*
X243310000Y-70171297D01*
X243310001Y-72524413D01*
X243175000Y-72497560D01*
X242525000Y-72497560D01*
X242432821Y-72515895D01*
X242201310Y-72420000D01*
X241585750Y-72420000D01*
X241427000Y-72578750D01*
X241427000Y-74168000D01*
X241447000Y-74168000D01*
X241447000Y-74422000D01*
X241427000Y-74422000D01*
X241427000Y-76011250D01*
X241585750Y-76170000D01*
X242201310Y-76170000D01*
X242300001Y-76129121D01*
X242300000Y-78792054D01*
X242100414Y-78925414D01*
X241905873Y-79216564D01*
X241837560Y-79559999D01*
X241837560Y-80460001D01*
X241905873Y-80803436D01*
X242100414Y-81094586D01*
X242391564Y-81289127D01*
X242734999Y-81357440D01*
X243385001Y-81357440D01*
X243728436Y-81289127D01*
X244019586Y-81094586D01*
X244020377Y-81093403D01*
X244175302Y-81248327D01*
X244408691Y-81345000D01*
X244824250Y-81345000D01*
X244983000Y-81186250D01*
X244983000Y-80137000D01*
X245237000Y-80137000D01*
X245237000Y-81186250D01*
X245395750Y-81345000D01*
X245811309Y-81345000D01*
X246044698Y-81248327D01*
X246223327Y-81069699D01*
X246320000Y-80836310D01*
X246320000Y-80295750D01*
X246161250Y-80137000D01*
X245237000Y-80137000D01*
X244983000Y-80137000D01*
X244963000Y-80137000D01*
X244963000Y-79883000D01*
X244983000Y-79883000D01*
X244983000Y-78833750D01*
X245237000Y-78833750D01*
X245237000Y-79883000D01*
X246161250Y-79883000D01*
X246320000Y-79724250D01*
X246320000Y-79183690D01*
X246223327Y-78950301D01*
X246044698Y-78771673D01*
X245811309Y-78675000D01*
X245395750Y-78675000D01*
X245237000Y-78833750D01*
X244983000Y-78833750D01*
X244824250Y-78675000D01*
X244408691Y-78675000D01*
X244175302Y-78771673D01*
X244020377Y-78926597D01*
X244019586Y-78925414D01*
X243820000Y-78792054D01*
X243820000Y-76055000D01*
X244035153Y-76055000D01*
X244110000Y-76069888D01*
X244184847Y-76055000D01*
X244184852Y-76055000D01*
X244406537Y-76010904D01*
X244657929Y-75842929D01*
X244700331Y-75779470D01*
X244924801Y-75555000D01*
X246046676Y-75555000D01*
X246121523Y-75569888D01*
X246196370Y-75555000D01*
X246196375Y-75555000D01*
X246418060Y-75510904D01*
X246669452Y-75342929D01*
X246711854Y-75279471D01*
X246755339Y-75235985D01*
X246819586Y-75391090D01*
X247363910Y-75935414D01*
X248075105Y-76230000D01*
X248844895Y-76230000D01*
X249556090Y-75935414D01*
X250100414Y-75391090D01*
X250395000Y-74679895D01*
X250395000Y-73958880D01*
X252515934Y-73958880D01*
X252535290Y-74728427D01*
X252792545Y-75349496D01*
X253090541Y-75484854D01*
X254280395Y-74295000D01*
X253090541Y-73105146D01*
X252792545Y-73240504D01*
X252515934Y-73958880D01*
X250395000Y-73958880D01*
X250395000Y-73910105D01*
X250100414Y-73198910D01*
X249556090Y-72654586D01*
X249220000Y-72515373D01*
X249220000Y-70964459D01*
X250270146Y-70964459D01*
X250405504Y-71262455D01*
X251123880Y-71539066D01*
X251893427Y-71519710D01*
X252514496Y-71262455D01*
X252649854Y-70964459D01*
X251460000Y-69774605D01*
X250270146Y-70964459D01*
X249220000Y-70964459D01*
X249220000Y-69258880D01*
X249515934Y-69258880D01*
X249535290Y-70028427D01*
X249792545Y-70649496D01*
X250090541Y-70784854D01*
X251280395Y-69595000D01*
X250090541Y-68405146D01*
X249792545Y-68540504D01*
X249515934Y-69258880D01*
X249220000Y-69258880D01*
X249220000Y-68134156D01*
X249234888Y-68059309D01*
X249220000Y-67984462D01*
X249220000Y-67984458D01*
X249175904Y-67762773D01*
X249007929Y-67511381D01*
X248944473Y-67468981D01*
X246105472Y-64629981D01*
X247825182Y-64629981D01*
X250912671Y-67717470D01*
G04 #@! TD*
M02*
