G04 #@! TF.GenerationSoftware,KiCad,Pcbnew,(5.0.1)-3*
G04 #@! TF.CreationDate,2018-12-28T16:37:43-07:00*
G04 #@! TF.ProjectId,New_battery,4E65775F626174746572792E6B696361,rev?*
G04 #@! TF.SameCoordinates,Original*
G04 #@! TF.FileFunction,Soldermask,Top*
G04 #@! TF.FilePolarity,Negative*
%FSLAX46Y46*%
G04 Gerber Fmt 4.6, Leading zero omitted, Abs format (unit mm)*
G04 Created by KiCad (PCBNEW (5.0.1)-3) date 2018-12-28 4:37:43 PM*
%MOMM*%
%LPD*%
G01*
G04 APERTURE LIST*
%ADD10C,0.100000*%
G04 APERTURE END LIST*
D10*
G36*
X263265256Y-117771298D02*
X263371579Y-117792447D01*
X263672042Y-117916903D01*
X263740968Y-117962958D01*
X263942454Y-118097587D01*
X264172413Y-118327546D01*
X264172415Y-118327549D01*
X264353097Y-118597958D01*
X264477553Y-118898421D01*
X264479381Y-118907611D01*
X264541000Y-119217389D01*
X264541000Y-119542611D01*
X264477553Y-119861578D01*
X264353098Y-120162040D01*
X264172413Y-120432454D01*
X263942454Y-120662413D01*
X263942451Y-120662415D01*
X263672042Y-120843097D01*
X263371579Y-120967553D01*
X263265256Y-120988702D01*
X263052611Y-121031000D01*
X262727389Y-121031000D01*
X262514744Y-120988702D01*
X262408421Y-120967553D01*
X262107958Y-120843097D01*
X261837549Y-120662415D01*
X261837546Y-120662413D01*
X261607587Y-120432454D01*
X261426902Y-120162040D01*
X261302447Y-119861578D01*
X261239000Y-119542611D01*
X261239000Y-119217389D01*
X261300619Y-118907611D01*
X261302447Y-118898421D01*
X261426903Y-118597958D01*
X261607585Y-118327549D01*
X261607587Y-118327546D01*
X261837546Y-118097587D01*
X262039032Y-117962958D01*
X262107958Y-117916903D01*
X262408421Y-117792447D01*
X262514744Y-117771298D01*
X262727389Y-117729000D01*
X263052611Y-117729000D01*
X263265256Y-117771298D01*
X263265256Y-117771298D01*
G37*
G36*
X220085256Y-117136298D02*
X220191579Y-117157447D01*
X220492042Y-117281903D01*
X220758852Y-117460180D01*
X220762454Y-117462587D01*
X220992413Y-117692546D01*
X220992415Y-117692549D01*
X221173097Y-117962958D01*
X221297553Y-118263421D01*
X221361000Y-118582391D01*
X221361000Y-118907609D01*
X221299381Y-119217391D01*
X221297553Y-119226578D01*
X221173098Y-119527040D01*
X220992413Y-119797454D01*
X220762454Y-120027413D01*
X220762451Y-120027415D01*
X220492042Y-120208097D01*
X220191579Y-120332553D01*
X220085256Y-120353702D01*
X219872611Y-120396000D01*
X219547389Y-120396000D01*
X219334744Y-120353702D01*
X219228421Y-120332553D01*
X218927958Y-120208097D01*
X218657549Y-120027415D01*
X218657546Y-120027413D01*
X218427587Y-119797454D01*
X218246902Y-119527040D01*
X218122447Y-119226578D01*
X218120620Y-119217391D01*
X218059000Y-118907609D01*
X218059000Y-118582391D01*
X218122447Y-118263421D01*
X218246903Y-117962958D01*
X218427585Y-117692549D01*
X218427587Y-117692546D01*
X218657546Y-117462587D01*
X218661148Y-117460180D01*
X218927958Y-117281903D01*
X219228421Y-117157447D01*
X219334744Y-117136298D01*
X219547389Y-117094000D01*
X219872611Y-117094000D01*
X220085256Y-117136298D01*
X220085256Y-117136298D01*
G37*
G36*
X236683677Y-110378465D02*
X236721364Y-110389898D01*
X236756103Y-110408466D01*
X236786548Y-110433452D01*
X236811534Y-110463897D01*
X236830102Y-110498636D01*
X236841535Y-110536323D01*
X236846000Y-110581661D01*
X236846000Y-111668339D01*
X236841535Y-111713677D01*
X236830102Y-111751364D01*
X236811534Y-111786103D01*
X236786548Y-111816548D01*
X236756103Y-111841534D01*
X236721364Y-111860102D01*
X236683677Y-111871535D01*
X236638339Y-111876000D01*
X235801661Y-111876000D01*
X235756323Y-111871535D01*
X235718636Y-111860102D01*
X235683897Y-111841534D01*
X235653452Y-111816548D01*
X235628466Y-111786103D01*
X235609898Y-111751364D01*
X235598465Y-111713677D01*
X235594000Y-111668339D01*
X235594000Y-110581661D01*
X235598465Y-110536323D01*
X235609898Y-110498636D01*
X235628466Y-110463897D01*
X235653452Y-110433452D01*
X235683897Y-110408466D01*
X235718636Y-110389898D01*
X235756323Y-110378465D01*
X235801661Y-110374000D01*
X236638339Y-110374000D01*
X236683677Y-110378465D01*
X236683677Y-110378465D01*
G37*
G36*
X234633677Y-110378465D02*
X234671364Y-110389898D01*
X234706103Y-110408466D01*
X234736548Y-110433452D01*
X234761534Y-110463897D01*
X234780102Y-110498636D01*
X234791535Y-110536323D01*
X234796000Y-110581661D01*
X234796000Y-111668339D01*
X234791535Y-111713677D01*
X234780102Y-111751364D01*
X234761534Y-111786103D01*
X234736548Y-111816548D01*
X234706103Y-111841534D01*
X234671364Y-111860102D01*
X234633677Y-111871535D01*
X234588339Y-111876000D01*
X233751661Y-111876000D01*
X233706323Y-111871535D01*
X233668636Y-111860102D01*
X233633897Y-111841534D01*
X233603452Y-111816548D01*
X233578466Y-111786103D01*
X233559898Y-111751364D01*
X233548465Y-111713677D01*
X233544000Y-111668339D01*
X233544000Y-110581661D01*
X233548465Y-110536323D01*
X233559898Y-110498636D01*
X233578466Y-110463897D01*
X233603452Y-110433452D01*
X233633897Y-110408466D01*
X233668636Y-110389898D01*
X233706323Y-110378465D01*
X233751661Y-110374000D01*
X234588339Y-110374000D01*
X234633677Y-110378465D01*
X234633677Y-110378465D01*
G37*
G36*
X260438643Y-108679781D02*
X260584415Y-108740162D01*
X260715611Y-108827824D01*
X260827176Y-108939389D01*
X260914838Y-109070585D01*
X260975219Y-109216357D01*
X261006000Y-109371107D01*
X261006000Y-109528893D01*
X260975219Y-109683643D01*
X260914838Y-109829415D01*
X260827176Y-109960611D01*
X260715611Y-110072176D01*
X260584415Y-110159838D01*
X260438643Y-110220219D01*
X260283893Y-110251000D01*
X260126107Y-110251000D01*
X259971357Y-110220219D01*
X259825585Y-110159838D01*
X259694389Y-110072176D01*
X259582824Y-109960611D01*
X259495162Y-109829415D01*
X259434781Y-109683643D01*
X259404000Y-109528893D01*
X259404000Y-109371107D01*
X259434781Y-109216357D01*
X259495162Y-109070585D01*
X259582824Y-108939389D01*
X259694389Y-108827824D01*
X259825585Y-108740162D01*
X259971357Y-108679781D01*
X260126107Y-108649000D01*
X260283893Y-108649000D01*
X260438643Y-108679781D01*
X260438643Y-108679781D01*
G37*
G36*
X257438643Y-108679781D02*
X257584415Y-108740162D01*
X257715611Y-108827824D01*
X257827176Y-108939389D01*
X257914838Y-109070585D01*
X257975219Y-109216357D01*
X258006000Y-109371107D01*
X258006000Y-109528893D01*
X257975219Y-109683643D01*
X257914838Y-109829415D01*
X257827176Y-109960611D01*
X257715611Y-110072176D01*
X257584415Y-110159838D01*
X257438643Y-110220219D01*
X257283893Y-110251000D01*
X257126107Y-110251000D01*
X256971357Y-110220219D01*
X256825585Y-110159838D01*
X256694389Y-110072176D01*
X256582824Y-109960611D01*
X256495162Y-109829415D01*
X256434781Y-109683643D01*
X256404000Y-109528893D01*
X256404000Y-109371107D01*
X256434781Y-109216357D01*
X256495162Y-109070585D01*
X256582824Y-108939389D01*
X256694389Y-108827824D01*
X256825585Y-108740162D01*
X256971357Y-108679781D01*
X257126107Y-108649000D01*
X257283893Y-108649000D01*
X257438643Y-108679781D01*
X257438643Y-108679781D01*
G37*
G36*
X253237527Y-106438736D02*
X253337410Y-106458604D01*
X253619674Y-106575521D01*
X253873705Y-106745259D01*
X254089741Y-106961295D01*
X254259479Y-107215326D01*
X254341772Y-107414000D01*
X254376396Y-107497591D01*
X254436000Y-107797238D01*
X254436000Y-108102762D01*
X254411692Y-108224966D01*
X254376396Y-108402410D01*
X254259479Y-108684674D01*
X254089741Y-108938705D01*
X253873705Y-109154741D01*
X253619674Y-109324479D01*
X253337410Y-109441396D01*
X253237527Y-109461264D01*
X253037762Y-109501000D01*
X252732238Y-109501000D01*
X252532473Y-109461264D01*
X252432590Y-109441396D01*
X252150326Y-109324479D01*
X251896295Y-109154741D01*
X251680259Y-108938705D01*
X251510521Y-108684674D01*
X251393604Y-108402410D01*
X251358308Y-108224966D01*
X251334000Y-108102762D01*
X251334000Y-107797238D01*
X251393604Y-107497591D01*
X251428228Y-107414000D01*
X251510521Y-107215326D01*
X251680259Y-106961295D01*
X251896295Y-106745259D01*
X252150326Y-106575521D01*
X252432590Y-106458604D01*
X252532473Y-106438736D01*
X252732238Y-106399000D01*
X253037762Y-106399000D01*
X253237527Y-106438736D01*
X253237527Y-106438736D01*
G37*
G36*
X241550515Y-106086835D02*
X241562066Y-106108446D01*
X241577612Y-106127388D01*
X241596554Y-106142934D01*
X241618165Y-106154485D01*
X241641614Y-106161598D01*
X241666000Y-106164000D01*
X242416000Y-106164000D01*
X242416000Y-108466000D01*
X241666000Y-108466000D01*
X241641614Y-108468402D01*
X241618165Y-108475515D01*
X241596554Y-108487066D01*
X241577612Y-108502612D01*
X241562066Y-108521554D01*
X241550515Y-108543165D01*
X241543588Y-108566000D01*
X239786412Y-108566000D01*
X239779485Y-108543165D01*
X239767934Y-108521554D01*
X239752388Y-108502612D01*
X239733446Y-108487066D01*
X239711835Y-108475515D01*
X239688386Y-108468402D01*
X239664000Y-108466000D01*
X238914000Y-108466000D01*
X238914000Y-106164000D01*
X239664000Y-106164000D01*
X239688386Y-106161598D01*
X239711835Y-106154485D01*
X239733446Y-106142934D01*
X239752388Y-106127388D01*
X239767934Y-106108446D01*
X239779485Y-106086835D01*
X239786412Y-106064000D01*
X241543588Y-106064000D01*
X241550515Y-106086835D01*
X241550515Y-106086835D01*
G37*
G36*
X233089984Y-104933434D02*
X233127371Y-104944775D01*
X233161826Y-104963191D01*
X233192025Y-104987975D01*
X233216809Y-105018174D01*
X233235225Y-105052629D01*
X233246566Y-105090016D01*
X233251000Y-105135034D01*
X233251000Y-108224966D01*
X233246566Y-108269984D01*
X233235225Y-108307371D01*
X233216809Y-108341826D01*
X233192025Y-108372025D01*
X233161826Y-108396809D01*
X233127371Y-108415225D01*
X233089984Y-108426566D01*
X233044966Y-108431000D01*
X232180034Y-108431000D01*
X232135016Y-108426566D01*
X232097629Y-108415225D01*
X232063174Y-108396809D01*
X232032975Y-108372025D01*
X232008191Y-108341826D01*
X231989775Y-108307371D01*
X231978434Y-108269984D01*
X231974000Y-108224966D01*
X231974000Y-105135034D01*
X231978434Y-105090016D01*
X231989775Y-105052629D01*
X232008191Y-105018174D01*
X232032975Y-104987975D01*
X232063174Y-104963191D01*
X232097629Y-104944775D01*
X232135016Y-104933434D01*
X232180034Y-104929000D01*
X233044966Y-104929000D01*
X233089984Y-104933434D01*
X233089984Y-104933434D01*
G37*
G36*
X231414984Y-104933434D02*
X231452371Y-104944775D01*
X231486826Y-104963191D01*
X231517025Y-104987975D01*
X231541809Y-105018174D01*
X231560225Y-105052629D01*
X231571566Y-105090016D01*
X231576000Y-105135034D01*
X231576000Y-108224966D01*
X231571566Y-108269984D01*
X231560225Y-108307371D01*
X231541809Y-108341826D01*
X231517025Y-108372025D01*
X231486826Y-108396809D01*
X231452371Y-108415225D01*
X231414984Y-108426566D01*
X231369966Y-108431000D01*
X230505034Y-108431000D01*
X230460016Y-108426566D01*
X230422629Y-108415225D01*
X230388174Y-108396809D01*
X230357975Y-108372025D01*
X230333191Y-108341826D01*
X230314775Y-108307371D01*
X230303434Y-108269984D01*
X230299000Y-108224966D01*
X230299000Y-105135034D01*
X230303434Y-105090016D01*
X230314775Y-105052629D01*
X230333191Y-105018174D01*
X230357975Y-104987975D01*
X230388174Y-104963191D01*
X230422629Y-104944775D01*
X230460016Y-104933434D01*
X230505034Y-104929000D01*
X231369966Y-104929000D01*
X231414984Y-104933434D01*
X231414984Y-104933434D01*
G37*
G36*
X260438643Y-105679781D02*
X260584415Y-105740162D01*
X260715611Y-105827824D01*
X260827176Y-105939389D01*
X260914838Y-106070585D01*
X260975219Y-106216357D01*
X261006000Y-106371107D01*
X261006000Y-106528893D01*
X260975219Y-106683643D01*
X260914838Y-106829415D01*
X260827176Y-106960611D01*
X260715611Y-107072176D01*
X260584415Y-107159838D01*
X260438643Y-107220219D01*
X260283893Y-107251000D01*
X260126107Y-107251000D01*
X259971357Y-107220219D01*
X259825585Y-107159838D01*
X259694389Y-107072176D01*
X259582824Y-106960611D01*
X259495162Y-106829415D01*
X259434781Y-106683643D01*
X259404000Y-106528893D01*
X259404000Y-106371107D01*
X259434781Y-106216357D01*
X259495162Y-106070585D01*
X259582824Y-105939389D01*
X259694389Y-105827824D01*
X259825585Y-105740162D01*
X259971357Y-105679781D01*
X260126107Y-105649000D01*
X260283893Y-105649000D01*
X260438643Y-105679781D01*
X260438643Y-105679781D01*
G37*
G36*
X257438643Y-105679781D02*
X257584415Y-105740162D01*
X257715611Y-105827824D01*
X257827176Y-105939389D01*
X257914838Y-106070585D01*
X257975219Y-106216357D01*
X258006000Y-106371107D01*
X258006000Y-106528893D01*
X257975219Y-106683643D01*
X257914838Y-106829415D01*
X257827176Y-106960611D01*
X257715611Y-107072176D01*
X257584415Y-107159838D01*
X257438643Y-107220219D01*
X257283893Y-107251000D01*
X257126107Y-107251000D01*
X256971357Y-107220219D01*
X256825585Y-107159838D01*
X256694389Y-107072176D01*
X256582824Y-106960611D01*
X256495162Y-106829415D01*
X256434781Y-106683643D01*
X256404000Y-106528893D01*
X256404000Y-106371107D01*
X256434781Y-106216357D01*
X256495162Y-106070585D01*
X256582824Y-105939389D01*
X256694389Y-105827824D01*
X256825585Y-105740162D01*
X256971357Y-105679781D01*
X257126107Y-105649000D01*
X257283893Y-105649000D01*
X257438643Y-105679781D01*
X257438643Y-105679781D01*
G37*
G36*
X232887484Y-99218434D02*
X232924871Y-99229775D01*
X232959326Y-99248191D01*
X232989525Y-99272975D01*
X233014309Y-99303174D01*
X233032725Y-99337629D01*
X233044066Y-99375016D01*
X233048500Y-99420034D01*
X233048500Y-102509966D01*
X233044066Y-102554984D01*
X233032725Y-102592371D01*
X233014309Y-102626826D01*
X232989525Y-102657025D01*
X232959326Y-102681809D01*
X232924871Y-102700225D01*
X232887484Y-102711566D01*
X232842466Y-102716000D01*
X231977534Y-102716000D01*
X231932516Y-102711566D01*
X231895129Y-102700225D01*
X231860674Y-102681809D01*
X231830475Y-102657025D01*
X231805691Y-102626826D01*
X231787275Y-102592371D01*
X231775934Y-102554984D01*
X231771500Y-102509966D01*
X231771500Y-99420034D01*
X231775934Y-99375016D01*
X231787275Y-99337629D01*
X231805691Y-99303174D01*
X231830475Y-99272975D01*
X231860674Y-99248191D01*
X231895129Y-99229775D01*
X231932516Y-99218434D01*
X231977534Y-99214000D01*
X232842466Y-99214000D01*
X232887484Y-99218434D01*
X232887484Y-99218434D01*
G37*
G36*
X231212484Y-99218434D02*
X231249871Y-99229775D01*
X231284326Y-99248191D01*
X231314525Y-99272975D01*
X231339309Y-99303174D01*
X231357725Y-99337629D01*
X231369066Y-99375016D01*
X231373500Y-99420034D01*
X231373500Y-102509966D01*
X231369066Y-102554984D01*
X231357725Y-102592371D01*
X231339309Y-102626826D01*
X231314525Y-102657025D01*
X231284326Y-102681809D01*
X231249871Y-102700225D01*
X231212484Y-102711566D01*
X231167466Y-102716000D01*
X230302534Y-102716000D01*
X230257516Y-102711566D01*
X230220129Y-102700225D01*
X230185674Y-102681809D01*
X230155475Y-102657025D01*
X230130691Y-102626826D01*
X230112275Y-102592371D01*
X230100934Y-102554984D01*
X230096500Y-102509966D01*
X230096500Y-99420034D01*
X230100934Y-99375016D01*
X230112275Y-99337629D01*
X230130691Y-99303174D01*
X230155475Y-99272975D01*
X230185674Y-99248191D01*
X230220129Y-99229775D01*
X230257516Y-99218434D01*
X230302534Y-99214000D01*
X231167466Y-99214000D01*
X231212484Y-99218434D01*
X231212484Y-99218434D01*
G37*
G36*
X240939984Y-96678434D02*
X240977371Y-96689775D01*
X241011826Y-96708191D01*
X241042025Y-96732975D01*
X241066809Y-96763174D01*
X241085225Y-96797629D01*
X241096566Y-96835016D01*
X241101000Y-96880034D01*
X241101000Y-99969966D01*
X241096566Y-100014984D01*
X241085225Y-100052371D01*
X241066809Y-100086826D01*
X241042025Y-100117025D01*
X241011826Y-100141809D01*
X240977371Y-100160225D01*
X240939984Y-100171566D01*
X240894966Y-100176000D01*
X240030034Y-100176000D01*
X239985016Y-100171566D01*
X239947629Y-100160225D01*
X239913174Y-100141809D01*
X239882975Y-100117025D01*
X239858191Y-100086826D01*
X239839775Y-100052371D01*
X239828434Y-100014984D01*
X239824000Y-99969966D01*
X239824000Y-96880034D01*
X239828434Y-96835016D01*
X239839775Y-96797629D01*
X239858191Y-96763174D01*
X239882975Y-96732975D01*
X239913174Y-96708191D01*
X239947629Y-96689775D01*
X239985016Y-96678434D01*
X240030034Y-96674000D01*
X240894966Y-96674000D01*
X240939984Y-96678434D01*
X240939984Y-96678434D01*
G37*
G36*
X242614984Y-96678434D02*
X242652371Y-96689775D01*
X242686826Y-96708191D01*
X242717025Y-96732975D01*
X242741809Y-96763174D01*
X242760225Y-96797629D01*
X242771566Y-96835016D01*
X242776000Y-96880034D01*
X242776000Y-99969966D01*
X242771566Y-100014984D01*
X242760225Y-100052371D01*
X242741809Y-100086826D01*
X242717025Y-100117025D01*
X242686826Y-100141809D01*
X242652371Y-100160225D01*
X242614984Y-100171566D01*
X242569966Y-100176000D01*
X241705034Y-100176000D01*
X241660016Y-100171566D01*
X241622629Y-100160225D01*
X241588174Y-100141809D01*
X241557975Y-100117025D01*
X241533191Y-100086826D01*
X241514775Y-100052371D01*
X241503434Y-100014984D01*
X241499000Y-99969966D01*
X241499000Y-96880034D01*
X241503434Y-96835016D01*
X241514775Y-96797629D01*
X241533191Y-96763174D01*
X241557975Y-96732975D01*
X241588174Y-96708191D01*
X241622629Y-96689775D01*
X241660016Y-96678434D01*
X241705034Y-96674000D01*
X242569966Y-96674000D01*
X242614984Y-96678434D01*
X242614984Y-96678434D01*
G37*
G36*
X248402484Y-98628434D02*
X248439871Y-98639775D01*
X248474326Y-98658191D01*
X248504525Y-98682975D01*
X248529309Y-98713174D01*
X248547725Y-98747629D01*
X248559066Y-98785016D01*
X248563500Y-98830034D01*
X248563500Y-99694966D01*
X248559066Y-99739984D01*
X248547725Y-99777371D01*
X248529309Y-99811826D01*
X248504525Y-99842025D01*
X248474326Y-99866809D01*
X248439871Y-99885225D01*
X248402484Y-99896566D01*
X248357466Y-99901000D01*
X245267534Y-99901000D01*
X245222516Y-99896566D01*
X245185129Y-99885225D01*
X245150674Y-99866809D01*
X245120475Y-99842025D01*
X245095691Y-99811826D01*
X245077275Y-99777371D01*
X245065934Y-99739984D01*
X245061500Y-99694966D01*
X245061500Y-98830034D01*
X245065934Y-98785016D01*
X245077275Y-98747629D01*
X245095691Y-98713174D01*
X245120475Y-98682975D01*
X245150674Y-98658191D01*
X245185129Y-98639775D01*
X245222516Y-98628434D01*
X245267534Y-98624000D01*
X248357466Y-98624000D01*
X248402484Y-98628434D01*
X248402484Y-98628434D01*
G37*
G36*
X237953677Y-97678465D02*
X237991364Y-97689898D01*
X238026103Y-97708466D01*
X238056548Y-97733452D01*
X238081534Y-97763897D01*
X238100102Y-97798636D01*
X238111535Y-97836323D01*
X238116000Y-97881661D01*
X238116000Y-98968339D01*
X238111535Y-99013677D01*
X238100102Y-99051364D01*
X238081534Y-99086103D01*
X238056548Y-99116548D01*
X238026103Y-99141534D01*
X237991364Y-99160102D01*
X237953677Y-99171535D01*
X237908339Y-99176000D01*
X237071661Y-99176000D01*
X237026323Y-99171535D01*
X236988636Y-99160102D01*
X236953897Y-99141534D01*
X236923452Y-99116548D01*
X236898466Y-99086103D01*
X236879898Y-99051364D01*
X236868465Y-99013677D01*
X236864000Y-98968339D01*
X236864000Y-97881661D01*
X236868465Y-97836323D01*
X236879898Y-97798636D01*
X236898466Y-97763897D01*
X236923452Y-97733452D01*
X236953897Y-97708466D01*
X236988636Y-97689898D01*
X237026323Y-97678465D01*
X237071661Y-97674000D01*
X237908339Y-97674000D01*
X237953677Y-97678465D01*
X237953677Y-97678465D01*
G37*
G36*
X251778677Y-97678465D02*
X251816364Y-97689898D01*
X251851103Y-97708466D01*
X251881548Y-97733452D01*
X251906534Y-97763897D01*
X251925102Y-97798636D01*
X251936535Y-97836323D01*
X251941000Y-97881661D01*
X251941000Y-98968339D01*
X251936535Y-99013677D01*
X251925102Y-99051364D01*
X251906534Y-99086103D01*
X251881548Y-99116548D01*
X251851103Y-99141534D01*
X251816364Y-99160102D01*
X251778677Y-99171535D01*
X251733339Y-99176000D01*
X250896661Y-99176000D01*
X250851323Y-99171535D01*
X250813636Y-99160102D01*
X250778897Y-99141534D01*
X250748452Y-99116548D01*
X250723466Y-99086103D01*
X250704898Y-99051364D01*
X250693465Y-99013677D01*
X250689000Y-98968339D01*
X250689000Y-97881661D01*
X250693465Y-97836323D01*
X250704898Y-97798636D01*
X250723466Y-97763897D01*
X250748452Y-97733452D01*
X250778897Y-97708466D01*
X250813636Y-97689898D01*
X250851323Y-97678465D01*
X250896661Y-97674000D01*
X251733339Y-97674000D01*
X251778677Y-97678465D01*
X251778677Y-97678465D01*
G37*
G36*
X253828677Y-97678465D02*
X253866364Y-97689898D01*
X253901103Y-97708466D01*
X253931548Y-97733452D01*
X253956534Y-97763897D01*
X253975102Y-97798636D01*
X253986535Y-97836323D01*
X253991000Y-97881661D01*
X253991000Y-98968339D01*
X253986535Y-99013677D01*
X253975102Y-99051364D01*
X253956534Y-99086103D01*
X253931548Y-99116548D01*
X253901103Y-99141534D01*
X253866364Y-99160102D01*
X253828677Y-99171535D01*
X253783339Y-99176000D01*
X252946661Y-99176000D01*
X252901323Y-99171535D01*
X252863636Y-99160102D01*
X252828897Y-99141534D01*
X252798452Y-99116548D01*
X252773466Y-99086103D01*
X252754898Y-99051364D01*
X252743465Y-99013677D01*
X252739000Y-98968339D01*
X252739000Y-97881661D01*
X252743465Y-97836323D01*
X252754898Y-97798636D01*
X252773466Y-97763897D01*
X252798452Y-97733452D01*
X252828897Y-97708466D01*
X252863636Y-97689898D01*
X252901323Y-97678465D01*
X252946661Y-97674000D01*
X253783339Y-97674000D01*
X253828677Y-97678465D01*
X253828677Y-97678465D01*
G37*
G36*
X235903677Y-97678465D02*
X235941364Y-97689898D01*
X235976103Y-97708466D01*
X236006548Y-97733452D01*
X236031534Y-97763897D01*
X236050102Y-97798636D01*
X236061535Y-97836323D01*
X236066000Y-97881661D01*
X236066000Y-98968339D01*
X236061535Y-99013677D01*
X236050102Y-99051364D01*
X236031534Y-99086103D01*
X236006548Y-99116548D01*
X235976103Y-99141534D01*
X235941364Y-99160102D01*
X235903677Y-99171535D01*
X235858339Y-99176000D01*
X235021661Y-99176000D01*
X234976323Y-99171535D01*
X234938636Y-99160102D01*
X234903897Y-99141534D01*
X234873452Y-99116548D01*
X234848466Y-99086103D01*
X234829898Y-99051364D01*
X234818465Y-99013677D01*
X234814000Y-98968339D01*
X234814000Y-97881661D01*
X234818465Y-97836323D01*
X234829898Y-97798636D01*
X234848466Y-97763897D01*
X234873452Y-97733452D01*
X234903897Y-97708466D01*
X234938636Y-97689898D01*
X234976323Y-97678465D01*
X235021661Y-97674000D01*
X235858339Y-97674000D01*
X235903677Y-97678465D01*
X235903677Y-97678465D01*
G37*
G36*
X248402484Y-96953434D02*
X248439871Y-96964775D01*
X248474326Y-96983191D01*
X248504525Y-97007975D01*
X248529309Y-97038174D01*
X248547725Y-97072629D01*
X248559066Y-97110016D01*
X248563500Y-97155034D01*
X248563500Y-98019966D01*
X248559066Y-98064984D01*
X248547725Y-98102371D01*
X248529309Y-98136826D01*
X248504525Y-98167025D01*
X248474326Y-98191809D01*
X248439871Y-98210225D01*
X248402484Y-98221566D01*
X248357466Y-98226000D01*
X245267534Y-98226000D01*
X245222516Y-98221566D01*
X245185129Y-98210225D01*
X245150674Y-98191809D01*
X245120475Y-98167025D01*
X245095691Y-98136826D01*
X245077275Y-98102371D01*
X245065934Y-98064984D01*
X245061500Y-98019966D01*
X245061500Y-97155034D01*
X245065934Y-97110016D01*
X245077275Y-97072629D01*
X245095691Y-97038174D01*
X245120475Y-97007975D01*
X245150674Y-96983191D01*
X245185129Y-96964775D01*
X245222516Y-96953434D01*
X245267534Y-96949000D01*
X248357466Y-96949000D01*
X248402484Y-96953434D01*
X248402484Y-96953434D01*
G37*
G36*
X233263677Y-94503465D02*
X233301364Y-94514898D01*
X233336103Y-94533466D01*
X233366548Y-94558452D01*
X233391534Y-94588897D01*
X233410102Y-94623636D01*
X233421535Y-94661323D01*
X233426000Y-94706661D01*
X233426000Y-95793339D01*
X233421535Y-95838677D01*
X233410102Y-95876364D01*
X233391534Y-95911103D01*
X233366548Y-95941548D01*
X233336103Y-95966534D01*
X233301364Y-95985102D01*
X233263677Y-95996535D01*
X233218339Y-96001000D01*
X232381661Y-96001000D01*
X232336323Y-95996535D01*
X232298636Y-95985102D01*
X232263897Y-95966534D01*
X232233452Y-95941548D01*
X232208466Y-95911103D01*
X232189898Y-95876364D01*
X232178465Y-95838677D01*
X232174000Y-95793339D01*
X232174000Y-94706661D01*
X232178465Y-94661323D01*
X232189898Y-94623636D01*
X232208466Y-94588897D01*
X232233452Y-94558452D01*
X232263897Y-94533466D01*
X232298636Y-94514898D01*
X232336323Y-94503465D01*
X232381661Y-94499000D01*
X233218339Y-94499000D01*
X233263677Y-94503465D01*
X233263677Y-94503465D01*
G37*
G36*
X231213677Y-94503465D02*
X231251364Y-94514898D01*
X231286103Y-94533466D01*
X231316548Y-94558452D01*
X231341534Y-94588897D01*
X231360102Y-94623636D01*
X231371535Y-94661323D01*
X231376000Y-94706661D01*
X231376000Y-95793339D01*
X231371535Y-95838677D01*
X231360102Y-95876364D01*
X231341534Y-95911103D01*
X231316548Y-95941548D01*
X231286103Y-95966534D01*
X231251364Y-95985102D01*
X231213677Y-95996535D01*
X231168339Y-96001000D01*
X230331661Y-96001000D01*
X230286323Y-95996535D01*
X230248636Y-95985102D01*
X230213897Y-95966534D01*
X230183452Y-95941548D01*
X230158466Y-95911103D01*
X230139898Y-95876364D01*
X230128465Y-95838677D01*
X230124000Y-95793339D01*
X230124000Y-94706661D01*
X230128465Y-94661323D01*
X230139898Y-94623636D01*
X230158466Y-94588897D01*
X230183452Y-94558452D01*
X230213897Y-94533466D01*
X230248636Y-94514898D01*
X230286323Y-94503465D01*
X230331661Y-94499000D01*
X231168339Y-94499000D01*
X231213677Y-94503465D01*
X231213677Y-94503465D01*
G37*
G36*
X222231000Y-94596000D02*
X219729000Y-94596000D01*
X219729000Y-92094000D01*
X222231000Y-92094000D01*
X222231000Y-94596000D01*
X222231000Y-94596000D01*
G37*
G36*
X248723567Y-87574959D02*
X248854072Y-87600918D01*
X249099939Y-87702759D01*
X249320464Y-87850110D01*
X249321215Y-87850612D01*
X249509388Y-88038785D01*
X249509390Y-88038788D01*
X249657241Y-88260061D01*
X249743460Y-88468213D01*
X249759082Y-88505929D01*
X249799655Y-88709900D01*
X249811000Y-88766938D01*
X249811000Y-89033062D01*
X249759082Y-89294072D01*
X249657241Y-89539939D01*
X249509890Y-89760464D01*
X249509388Y-89761215D01*
X249321215Y-89949388D01*
X249321212Y-89949390D01*
X249099939Y-90097241D01*
X248854072Y-90199082D01*
X248723567Y-90225041D01*
X248593063Y-90251000D01*
X248326937Y-90251000D01*
X248196433Y-90225041D01*
X248065928Y-90199082D01*
X247820061Y-90097241D01*
X247598788Y-89949390D01*
X247598785Y-89949388D01*
X247410612Y-89761215D01*
X247410110Y-89760464D01*
X247262759Y-89539939D01*
X247160918Y-89294072D01*
X247109000Y-89033062D01*
X247109000Y-88766938D01*
X247120346Y-88709900D01*
X247160918Y-88505929D01*
X247176540Y-88468213D01*
X247262759Y-88260061D01*
X247410610Y-88038788D01*
X247410612Y-88038785D01*
X247598785Y-87850612D01*
X247599536Y-87850110D01*
X247820061Y-87702759D01*
X248065928Y-87600918D01*
X248196433Y-87574959D01*
X248326937Y-87549000D01*
X248593063Y-87549000D01*
X248723567Y-87574959D01*
X248723567Y-87574959D01*
G37*
G36*
X254723567Y-87574959D02*
X254854072Y-87600918D01*
X255099939Y-87702759D01*
X255320464Y-87850110D01*
X255321215Y-87850612D01*
X255509388Y-88038785D01*
X255509390Y-88038788D01*
X255657241Y-88260061D01*
X255743460Y-88468213D01*
X255759082Y-88505929D01*
X255799655Y-88709900D01*
X255811000Y-88766938D01*
X255811000Y-89033062D01*
X255759082Y-89294072D01*
X255657241Y-89539939D01*
X255509890Y-89760464D01*
X255509388Y-89761215D01*
X255321215Y-89949388D01*
X255321212Y-89949390D01*
X255099939Y-90097241D01*
X254854072Y-90199082D01*
X254723567Y-90225041D01*
X254593063Y-90251000D01*
X254326937Y-90251000D01*
X254196433Y-90225041D01*
X254065928Y-90199082D01*
X253820061Y-90097241D01*
X253598788Y-89949390D01*
X253598785Y-89949388D01*
X253410612Y-89761215D01*
X253410110Y-89760464D01*
X253262759Y-89539939D01*
X253160918Y-89294072D01*
X253109000Y-89033062D01*
X253109000Y-88766938D01*
X253120346Y-88709900D01*
X253160918Y-88505929D01*
X253176540Y-88468213D01*
X253262759Y-88260061D01*
X253410610Y-88038788D01*
X253410612Y-88038785D01*
X253598785Y-87850612D01*
X253599536Y-87850110D01*
X253820061Y-87702759D01*
X254065928Y-87600918D01*
X254196433Y-87574959D01*
X254326937Y-87549000D01*
X254593063Y-87549000D01*
X254723567Y-87574959D01*
X254723567Y-87574959D01*
G37*
G36*
X221163635Y-87106019D02*
X221344903Y-87142075D01*
X221572571Y-87236378D01*
X221776542Y-87372668D01*
X221777469Y-87373287D01*
X221951713Y-87547531D01*
X221951715Y-87547534D01*
X222088622Y-87752429D01*
X222182925Y-87980097D01*
X222231000Y-88221787D01*
X222231000Y-88468213D01*
X222182925Y-88709903D01*
X222088622Y-88937571D01*
X222024816Y-89033063D01*
X221951713Y-89142469D01*
X221777469Y-89316713D01*
X221777466Y-89316715D01*
X221572571Y-89453622D01*
X221344903Y-89547925D01*
X221163635Y-89583981D01*
X221103214Y-89596000D01*
X220856786Y-89596000D01*
X220796365Y-89583981D01*
X220615097Y-89547925D01*
X220387429Y-89453622D01*
X220182534Y-89316715D01*
X220182531Y-89316713D01*
X220008287Y-89142469D01*
X219935184Y-89033063D01*
X219871378Y-88937571D01*
X219777075Y-88709903D01*
X219729000Y-88468213D01*
X219729000Y-88221787D01*
X219777075Y-87980097D01*
X219871378Y-87752429D01*
X220008285Y-87547534D01*
X220008287Y-87547531D01*
X220182531Y-87373287D01*
X220183458Y-87372668D01*
X220387429Y-87236378D01*
X220615097Y-87142075D01*
X220796365Y-87106019D01*
X220856786Y-87094000D01*
X221103214Y-87094000D01*
X221163635Y-87106019D01*
X221163635Y-87106019D01*
G37*
G36*
X251723567Y-82874959D02*
X251854072Y-82900918D01*
X252099939Y-83002759D01*
X252320464Y-83150110D01*
X252321215Y-83150612D01*
X252509388Y-83338785D01*
X252509390Y-83338788D01*
X252657241Y-83560061D01*
X252759082Y-83805928D01*
X252811000Y-84066938D01*
X252811000Y-84333062D01*
X252759082Y-84594072D01*
X252657241Y-84839939D01*
X252509890Y-85060464D01*
X252509388Y-85061215D01*
X252321215Y-85249388D01*
X252321212Y-85249390D01*
X252099939Y-85397241D01*
X251854072Y-85499082D01*
X251723567Y-85525041D01*
X251593063Y-85551000D01*
X251326937Y-85551000D01*
X251196433Y-85525041D01*
X251065928Y-85499082D01*
X250820061Y-85397241D01*
X250598788Y-85249390D01*
X250598785Y-85249388D01*
X250410612Y-85061215D01*
X250410110Y-85060464D01*
X250262759Y-84839939D01*
X250160918Y-84594072D01*
X250109000Y-84333062D01*
X250109000Y-84066938D01*
X250160918Y-83805928D01*
X250262759Y-83560061D01*
X250410610Y-83338788D01*
X250410612Y-83338785D01*
X250598785Y-83150612D01*
X250599536Y-83150110D01*
X250820061Y-83002759D01*
X251065928Y-82900918D01*
X251196433Y-82874959D01*
X251326937Y-82849000D01*
X251593063Y-82849000D01*
X251723567Y-82874959D01*
X251723567Y-82874959D01*
G37*
G36*
X236928677Y-79898465D02*
X236966364Y-79909898D01*
X237001103Y-79928466D01*
X237031548Y-79953452D01*
X237056534Y-79983897D01*
X237075102Y-80018636D01*
X237086535Y-80056323D01*
X237091000Y-80101661D01*
X237091000Y-81188339D01*
X237086535Y-81233677D01*
X237075102Y-81271364D01*
X237056534Y-81306103D01*
X237031548Y-81336548D01*
X237001103Y-81361534D01*
X236966364Y-81380102D01*
X236928677Y-81391535D01*
X236883339Y-81396000D01*
X236046661Y-81396000D01*
X236001323Y-81391535D01*
X235963636Y-81380102D01*
X235928897Y-81361534D01*
X235898452Y-81336548D01*
X235873466Y-81306103D01*
X235854898Y-81271364D01*
X235843465Y-81233677D01*
X235839000Y-81188339D01*
X235839000Y-80101661D01*
X235843465Y-80056323D01*
X235854898Y-80018636D01*
X235873466Y-79983897D01*
X235898452Y-79953452D01*
X235928897Y-79928466D01*
X235963636Y-79909898D01*
X236001323Y-79898465D01*
X236046661Y-79894000D01*
X236883339Y-79894000D01*
X236928677Y-79898465D01*
X236928677Y-79898465D01*
G37*
G36*
X238978677Y-79898465D02*
X239016364Y-79909898D01*
X239051103Y-79928466D01*
X239081548Y-79953452D01*
X239106534Y-79983897D01*
X239125102Y-80018636D01*
X239136535Y-80056323D01*
X239141000Y-80101661D01*
X239141000Y-81188339D01*
X239136535Y-81233677D01*
X239125102Y-81271364D01*
X239106534Y-81306103D01*
X239081548Y-81336548D01*
X239051103Y-81361534D01*
X239016364Y-81380102D01*
X238978677Y-81391535D01*
X238933339Y-81396000D01*
X238096661Y-81396000D01*
X238051323Y-81391535D01*
X238013636Y-81380102D01*
X237978897Y-81361534D01*
X237948452Y-81336548D01*
X237923466Y-81306103D01*
X237904898Y-81271364D01*
X237893465Y-81233677D01*
X237889000Y-81188339D01*
X237889000Y-80101661D01*
X237893465Y-80056323D01*
X237904898Y-80018636D01*
X237923466Y-79983897D01*
X237948452Y-79953452D01*
X237978897Y-79928466D01*
X238013636Y-79909898D01*
X238051323Y-79898465D01*
X238096661Y-79894000D01*
X238933339Y-79894000D01*
X238978677Y-79898465D01*
X238978677Y-79898465D01*
G37*
G36*
X245573677Y-79263465D02*
X245611364Y-79274898D01*
X245646103Y-79293466D01*
X245676548Y-79318452D01*
X245701534Y-79348897D01*
X245720102Y-79383636D01*
X245731535Y-79421323D01*
X245736000Y-79466661D01*
X245736000Y-80553339D01*
X245731535Y-80598677D01*
X245720102Y-80636364D01*
X245701534Y-80671103D01*
X245676548Y-80701548D01*
X245646103Y-80726534D01*
X245611364Y-80745102D01*
X245573677Y-80756535D01*
X245528339Y-80761000D01*
X244691661Y-80761000D01*
X244646323Y-80756535D01*
X244608636Y-80745102D01*
X244573897Y-80726534D01*
X244543452Y-80701548D01*
X244518466Y-80671103D01*
X244499898Y-80636364D01*
X244488465Y-80598677D01*
X244484000Y-80553339D01*
X244484000Y-79466661D01*
X244488465Y-79421323D01*
X244499898Y-79383636D01*
X244518466Y-79348897D01*
X244543452Y-79318452D01*
X244573897Y-79293466D01*
X244608636Y-79274898D01*
X244646323Y-79263465D01*
X244691661Y-79259000D01*
X245528339Y-79259000D01*
X245573677Y-79263465D01*
X245573677Y-79263465D01*
G37*
G36*
X243523677Y-79263465D02*
X243561364Y-79274898D01*
X243596103Y-79293466D01*
X243626548Y-79318452D01*
X243651534Y-79348897D01*
X243670102Y-79383636D01*
X243681535Y-79421323D01*
X243686000Y-79466661D01*
X243686000Y-80553339D01*
X243681535Y-80598677D01*
X243670102Y-80636364D01*
X243651534Y-80671103D01*
X243626548Y-80701548D01*
X243596103Y-80726534D01*
X243561364Y-80745102D01*
X243523677Y-80756535D01*
X243478339Y-80761000D01*
X242641661Y-80761000D01*
X242596323Y-80756535D01*
X242558636Y-80745102D01*
X242523897Y-80726534D01*
X242493452Y-80701548D01*
X242468466Y-80671103D01*
X242449898Y-80636364D01*
X242438465Y-80598677D01*
X242434000Y-80553339D01*
X242434000Y-79466661D01*
X242438465Y-79421323D01*
X242449898Y-79383636D01*
X242468466Y-79348897D01*
X242493452Y-79318452D01*
X242523897Y-79293466D01*
X242558636Y-79274898D01*
X242596323Y-79263465D01*
X242641661Y-79259000D01*
X243478339Y-79259000D01*
X243523677Y-79263465D01*
X243523677Y-79263465D01*
G37*
G36*
X222231000Y-78086000D02*
X219729000Y-78086000D01*
X219729000Y-75584000D01*
X222231000Y-75584000D01*
X222231000Y-78086000D01*
X222231000Y-78086000D01*
G37*
G36*
X235224984Y-72548434D02*
X235262371Y-72559775D01*
X235296826Y-72578191D01*
X235327025Y-72602975D01*
X235351809Y-72633174D01*
X235370225Y-72667629D01*
X235381566Y-72705016D01*
X235386000Y-72750034D01*
X235386000Y-75839966D01*
X235381566Y-75884984D01*
X235370225Y-75922371D01*
X235351809Y-75956826D01*
X235327025Y-75987025D01*
X235296826Y-76011809D01*
X235262371Y-76030225D01*
X235224984Y-76041566D01*
X235179966Y-76046000D01*
X234315034Y-76046000D01*
X234270016Y-76041566D01*
X234232629Y-76030225D01*
X234198174Y-76011809D01*
X234167975Y-75987025D01*
X234143191Y-75956826D01*
X234124775Y-75922371D01*
X234113434Y-75884984D01*
X234109000Y-75839966D01*
X234109000Y-72750034D01*
X234113434Y-72705016D01*
X234124775Y-72667629D01*
X234143191Y-72633174D01*
X234167975Y-72602975D01*
X234198174Y-72578191D01*
X234232629Y-72559775D01*
X234270016Y-72548434D01*
X234315034Y-72544000D01*
X235179966Y-72544000D01*
X235224984Y-72548434D01*
X235224984Y-72548434D01*
G37*
G36*
X236899984Y-72548434D02*
X236937371Y-72559775D01*
X236971826Y-72578191D01*
X237002025Y-72602975D01*
X237026809Y-72633174D01*
X237045225Y-72667629D01*
X237056566Y-72705016D01*
X237061000Y-72750034D01*
X237061000Y-75839966D01*
X237056566Y-75884984D01*
X237045225Y-75922371D01*
X237026809Y-75956826D01*
X237002025Y-75987025D01*
X236971826Y-76011809D01*
X236937371Y-76030225D01*
X236899984Y-76041566D01*
X236854966Y-76046000D01*
X235990034Y-76046000D01*
X235945016Y-76041566D01*
X235907629Y-76030225D01*
X235873174Y-76011809D01*
X235842975Y-75987025D01*
X235818191Y-75956826D01*
X235799775Y-75922371D01*
X235788434Y-75884984D01*
X235784000Y-75839966D01*
X235784000Y-72750034D01*
X235788434Y-72705016D01*
X235799775Y-72667629D01*
X235818191Y-72633174D01*
X235842975Y-72602975D01*
X235873174Y-72578191D01*
X235907629Y-72559775D01*
X235945016Y-72548434D01*
X235990034Y-72544000D01*
X236854966Y-72544000D01*
X236899984Y-72548434D01*
X236899984Y-72548434D01*
G37*
G36*
X248723567Y-72969959D02*
X248854072Y-72995918D01*
X249099939Y-73097759D01*
X249320464Y-73245110D01*
X249321215Y-73245612D01*
X249509388Y-73433785D01*
X249509390Y-73433788D01*
X249657241Y-73655061D01*
X249759082Y-73900928D01*
X249811000Y-74161938D01*
X249811000Y-74428062D01*
X249759082Y-74689072D01*
X249657241Y-74934939D01*
X249550959Y-75094000D01*
X249509388Y-75156215D01*
X249321215Y-75344388D01*
X249321212Y-75344390D01*
X249099939Y-75492241D01*
X248854072Y-75594082D01*
X248723567Y-75620041D01*
X248593063Y-75646000D01*
X248326937Y-75646000D01*
X248196433Y-75620041D01*
X248065928Y-75594082D01*
X247820061Y-75492241D01*
X247598788Y-75344390D01*
X247598785Y-75344388D01*
X247410612Y-75156215D01*
X247369041Y-75094000D01*
X247262759Y-74934939D01*
X247160918Y-74689072D01*
X247109000Y-74428062D01*
X247109000Y-74161938D01*
X247160918Y-73900928D01*
X247262759Y-73655061D01*
X247410610Y-73433788D01*
X247410612Y-73433785D01*
X247598785Y-73245612D01*
X247599536Y-73245110D01*
X247820061Y-73097759D01*
X248065928Y-72995918D01*
X248196433Y-72969959D01*
X248326937Y-72944000D01*
X248593063Y-72944000D01*
X248723567Y-72969959D01*
X248723567Y-72969959D01*
G37*
G36*
X254723567Y-72969959D02*
X254854072Y-72995918D01*
X255099939Y-73097759D01*
X255320464Y-73245110D01*
X255321215Y-73245612D01*
X255509388Y-73433785D01*
X255509390Y-73433788D01*
X255657241Y-73655061D01*
X255759082Y-73900928D01*
X255811000Y-74161938D01*
X255811000Y-74428062D01*
X255759082Y-74689072D01*
X255657241Y-74934939D01*
X255550959Y-75094000D01*
X255509388Y-75156215D01*
X255321215Y-75344388D01*
X255321212Y-75344390D01*
X255099939Y-75492241D01*
X254854072Y-75594082D01*
X254723567Y-75620041D01*
X254593063Y-75646000D01*
X254326937Y-75646000D01*
X254196433Y-75620041D01*
X254065928Y-75594082D01*
X253820061Y-75492241D01*
X253598788Y-75344390D01*
X253598785Y-75344388D01*
X253410612Y-75156215D01*
X253369041Y-75094000D01*
X253262759Y-74934939D01*
X253160918Y-74689072D01*
X253109000Y-74428062D01*
X253109000Y-74161938D01*
X253160918Y-73900928D01*
X253262759Y-73655061D01*
X253410610Y-73433788D01*
X253410612Y-73433785D01*
X253598785Y-73245612D01*
X253599536Y-73245110D01*
X253820061Y-73097759D01*
X254065928Y-72995918D01*
X254196433Y-72969959D01*
X254326937Y-72944000D01*
X254593063Y-72944000D01*
X254723567Y-72969959D01*
X254723567Y-72969959D01*
G37*
G36*
X242126000Y-75586000D02*
X240474000Y-75586000D01*
X240474000Y-73004000D01*
X242126000Y-73004000D01*
X242126000Y-75586000D01*
X242126000Y-75586000D01*
G37*
G36*
X240126000Y-75496000D02*
X239374000Y-75496000D01*
X239374000Y-73094000D01*
X240126000Y-73094000D01*
X240126000Y-75496000D01*
X240126000Y-75496000D01*
G37*
G36*
X243226000Y-75496000D02*
X242474000Y-75496000D01*
X242474000Y-73094000D01*
X243226000Y-73094000D01*
X243226000Y-75496000D01*
X243226000Y-75496000D01*
G37*
G36*
X221163635Y-70596019D02*
X221344903Y-70632075D01*
X221572571Y-70726378D01*
X221776542Y-70862668D01*
X221777469Y-70863287D01*
X221951713Y-71037531D01*
X221951715Y-71037534D01*
X222088622Y-71242429D01*
X222182925Y-71470097D01*
X222231000Y-71711787D01*
X222231000Y-71958213D01*
X222182925Y-72199903D01*
X222088622Y-72427571D01*
X221980230Y-72589790D01*
X221951713Y-72632469D01*
X221777469Y-72806713D01*
X221777466Y-72806715D01*
X221572571Y-72943622D01*
X221344903Y-73037925D01*
X221163636Y-73073981D01*
X221103214Y-73086000D01*
X220856786Y-73086000D01*
X220796364Y-73073981D01*
X220615097Y-73037925D01*
X220387429Y-72943622D01*
X220182534Y-72806715D01*
X220182531Y-72806713D01*
X220008287Y-72632469D01*
X219979770Y-72589790D01*
X219871378Y-72427571D01*
X219777075Y-72199903D01*
X219729000Y-71958213D01*
X219729000Y-71711787D01*
X219777075Y-71470097D01*
X219871378Y-71242429D01*
X220008285Y-71037534D01*
X220008287Y-71037531D01*
X220182531Y-70863287D01*
X220183458Y-70862668D01*
X220387429Y-70726378D01*
X220615097Y-70632075D01*
X220796364Y-70596019D01*
X220856786Y-70584000D01*
X221103214Y-70584000D01*
X221163635Y-70596019D01*
X221163635Y-70596019D01*
G37*
G36*
X251723567Y-68269959D02*
X251854072Y-68295918D01*
X252099939Y-68397759D01*
X252320464Y-68545110D01*
X252321215Y-68545612D01*
X252509388Y-68733785D01*
X252509390Y-68733788D01*
X252657241Y-68955061D01*
X252759082Y-69200928D01*
X252811000Y-69461938D01*
X252811000Y-69728062D01*
X252759082Y-69989072D01*
X252657241Y-70234939D01*
X252509890Y-70455464D01*
X252509388Y-70456215D01*
X252321215Y-70644388D01*
X252321212Y-70644390D01*
X252099939Y-70792241D01*
X251854072Y-70894082D01*
X251723567Y-70920041D01*
X251593063Y-70946000D01*
X251326937Y-70946000D01*
X251196433Y-70920041D01*
X251065928Y-70894082D01*
X250820061Y-70792241D01*
X250598788Y-70644390D01*
X250598785Y-70644388D01*
X250410612Y-70456215D01*
X250410110Y-70455464D01*
X250262759Y-70234939D01*
X250160918Y-69989072D01*
X250109000Y-69728062D01*
X250109000Y-69461938D01*
X250160918Y-69200928D01*
X250262759Y-68955061D01*
X250410610Y-68733788D01*
X250410612Y-68733785D01*
X250598785Y-68545612D01*
X250599536Y-68545110D01*
X250820061Y-68397759D01*
X251065928Y-68295918D01*
X251196433Y-68269959D01*
X251326937Y-68244000D01*
X251593063Y-68244000D01*
X251723567Y-68269959D01*
X251723567Y-68269959D01*
G37*
G36*
X246222484Y-66198434D02*
X246259871Y-66209775D01*
X246294326Y-66228191D01*
X246324525Y-66252975D01*
X246349309Y-66283174D01*
X246367725Y-66317629D01*
X246379066Y-66355016D01*
X246383500Y-66400034D01*
X246383500Y-69489966D01*
X246379066Y-69534984D01*
X246367725Y-69572371D01*
X246349309Y-69606826D01*
X246324525Y-69637025D01*
X246294326Y-69661809D01*
X246259871Y-69680225D01*
X246222484Y-69691566D01*
X246177466Y-69696000D01*
X245312534Y-69696000D01*
X245267516Y-69691566D01*
X245230129Y-69680225D01*
X245195674Y-69661809D01*
X245165475Y-69637025D01*
X245140691Y-69606826D01*
X245122275Y-69572371D01*
X245110934Y-69534984D01*
X245106500Y-69489966D01*
X245106500Y-66400034D01*
X245110934Y-66355016D01*
X245122275Y-66317629D01*
X245140691Y-66283174D01*
X245165475Y-66252975D01*
X245195674Y-66228191D01*
X245230129Y-66209775D01*
X245267516Y-66198434D01*
X245312534Y-66194000D01*
X246177466Y-66194000D01*
X246222484Y-66198434D01*
X246222484Y-66198434D01*
G37*
G36*
X244547484Y-66198434D02*
X244584871Y-66209775D01*
X244619326Y-66228191D01*
X244649525Y-66252975D01*
X244674309Y-66283174D01*
X244692725Y-66317629D01*
X244704066Y-66355016D01*
X244708500Y-66400034D01*
X244708500Y-69489966D01*
X244704066Y-69534984D01*
X244692725Y-69572371D01*
X244674309Y-69606826D01*
X244649525Y-69637025D01*
X244619326Y-69661809D01*
X244584871Y-69680225D01*
X244547484Y-69691566D01*
X244502466Y-69696000D01*
X243637534Y-69696000D01*
X243592516Y-69691566D01*
X243555129Y-69680225D01*
X243520674Y-69661809D01*
X243490475Y-69637025D01*
X243465691Y-69606826D01*
X243447275Y-69572371D01*
X243435934Y-69534984D01*
X243431500Y-69489966D01*
X243431500Y-66400034D01*
X243435934Y-66355016D01*
X243447275Y-66317629D01*
X243465691Y-66283174D01*
X243490475Y-66252975D01*
X243520674Y-66228191D01*
X243555129Y-66209775D01*
X243592516Y-66198434D01*
X243637534Y-66194000D01*
X244502466Y-66194000D01*
X244547484Y-66198434D01*
X244547484Y-66198434D01*
G37*
G36*
X241888677Y-68348465D02*
X241926364Y-68359898D01*
X241961103Y-68378466D01*
X241991548Y-68403452D01*
X242016534Y-68433897D01*
X242035102Y-68468636D01*
X242046535Y-68506323D01*
X242051000Y-68551661D01*
X242051000Y-69388339D01*
X242046535Y-69433677D01*
X242035102Y-69471364D01*
X242016534Y-69506103D01*
X241991548Y-69536548D01*
X241961103Y-69561534D01*
X241926364Y-69580102D01*
X241888677Y-69591535D01*
X241843339Y-69596000D01*
X240756661Y-69596000D01*
X240711323Y-69591535D01*
X240673636Y-69580102D01*
X240638897Y-69561534D01*
X240608452Y-69536548D01*
X240583466Y-69506103D01*
X240564898Y-69471364D01*
X240553465Y-69433677D01*
X240549000Y-69388339D01*
X240549000Y-68551661D01*
X240553465Y-68506323D01*
X240564898Y-68468636D01*
X240583466Y-68433897D01*
X240608452Y-68403452D01*
X240638897Y-68378466D01*
X240673636Y-68359898D01*
X240711323Y-68348465D01*
X240756661Y-68344000D01*
X241843339Y-68344000D01*
X241888677Y-68348465D01*
X241888677Y-68348465D01*
G37*
G36*
X241888677Y-66298465D02*
X241926364Y-66309898D01*
X241961103Y-66328466D01*
X241991548Y-66353452D01*
X242016534Y-66383897D01*
X242035102Y-66418636D01*
X242046535Y-66456323D01*
X242051000Y-66501661D01*
X242051000Y-67338339D01*
X242046535Y-67383677D01*
X242035102Y-67421364D01*
X242016534Y-67456103D01*
X241991548Y-67486548D01*
X241961103Y-67511534D01*
X241926364Y-67530102D01*
X241888677Y-67541535D01*
X241843339Y-67546000D01*
X240756661Y-67546000D01*
X240711323Y-67541535D01*
X240673636Y-67530102D01*
X240638897Y-67511534D01*
X240608452Y-67486548D01*
X240583466Y-67456103D01*
X240564898Y-67421364D01*
X240553465Y-67383677D01*
X240549000Y-67338339D01*
X240549000Y-66501661D01*
X240553465Y-66456323D01*
X240564898Y-66418636D01*
X240583466Y-66383897D01*
X240608452Y-66353452D01*
X240638897Y-66328466D01*
X240673636Y-66309898D01*
X240711323Y-66298465D01*
X240756661Y-66294000D01*
X241843339Y-66294000D01*
X241888677Y-66298465D01*
X241888677Y-66298465D01*
G37*
G36*
X263265256Y-61891298D02*
X263371579Y-61912447D01*
X263672042Y-62036903D01*
X263740968Y-62082958D01*
X263942454Y-62217587D01*
X264172413Y-62447546D01*
X264172415Y-62447549D01*
X264353097Y-62717958D01*
X264477553Y-63018421D01*
X264479381Y-63027611D01*
X264541000Y-63337389D01*
X264541000Y-63662611D01*
X264477553Y-63981578D01*
X264353098Y-64282040D01*
X264172413Y-64552454D01*
X263942454Y-64782413D01*
X263942451Y-64782415D01*
X263672042Y-64963097D01*
X263371579Y-65087553D01*
X263265256Y-65108702D01*
X263052611Y-65151000D01*
X262727389Y-65151000D01*
X262514744Y-65108702D01*
X262408421Y-65087553D01*
X262107958Y-64963097D01*
X261837549Y-64782415D01*
X261837546Y-64782413D01*
X261607587Y-64552454D01*
X261426902Y-64282040D01*
X261302447Y-63981578D01*
X261239000Y-63662611D01*
X261239000Y-63337389D01*
X261300619Y-63027611D01*
X261302447Y-63018421D01*
X261426903Y-62717958D01*
X261607585Y-62447549D01*
X261607587Y-62447546D01*
X261837546Y-62217587D01*
X262039032Y-62082958D01*
X262107958Y-62036903D01*
X262408421Y-61912447D01*
X262514744Y-61891298D01*
X262727389Y-61849000D01*
X263052611Y-61849000D01*
X263265256Y-61891298D01*
X263265256Y-61891298D01*
G37*
G36*
X219450256Y-61256298D02*
X219556579Y-61277447D01*
X219857042Y-61401903D01*
X220123852Y-61580180D01*
X220127454Y-61582587D01*
X220357413Y-61812546D01*
X220357415Y-61812549D01*
X220538097Y-62082958D01*
X220662553Y-62383421D01*
X220726000Y-62702391D01*
X220726000Y-63027609D01*
X220664381Y-63337391D01*
X220662553Y-63346578D01*
X220538098Y-63647040D01*
X220357413Y-63917454D01*
X220127454Y-64147413D01*
X220127451Y-64147415D01*
X219857042Y-64328097D01*
X219556579Y-64452553D01*
X219450256Y-64473702D01*
X219237611Y-64516000D01*
X218912389Y-64516000D01*
X218699744Y-64473702D01*
X218593421Y-64452553D01*
X218292958Y-64328097D01*
X218022549Y-64147415D01*
X218022546Y-64147413D01*
X217792587Y-63917454D01*
X217611902Y-63647040D01*
X217487447Y-63346578D01*
X217485620Y-63337391D01*
X217424000Y-63027609D01*
X217424000Y-62702391D01*
X217487447Y-62383421D01*
X217611903Y-62082958D01*
X217792585Y-61812549D01*
X217792587Y-61812546D01*
X218022546Y-61582587D01*
X218026148Y-61580180D01*
X218292958Y-61401903D01*
X218593421Y-61277447D01*
X218699744Y-61256298D01*
X218912389Y-61214000D01*
X219237611Y-61214000D01*
X219450256Y-61256298D01*
X219450256Y-61256298D01*
G37*
M02*
