G04 #@! TF.GenerationSoftware,KiCad,Pcbnew,(5.0.1)-3*
G04 #@! TF.CreationDate,2018-12-28T16:37:43-07:00*
G04 #@! TF.ProjectId,New_battery,4E65775F626174746572792E6B696361,rev?*
G04 #@! TF.SameCoordinates,Original*
G04 #@! TF.FileFunction,Soldermask,Bot*
G04 #@! TF.FilePolarity,Negative*
%FSLAX46Y46*%
G04 Gerber Fmt 4.6, Leading zero omitted, Abs format (unit mm)*
G04 Created by KiCad (PCBNEW (5.0.1)-3) date 2018-12-28 4:37:43 PM*
%MOMM*%
%LPD*%
G01*
G04 APERTURE LIST*
%ADD10C,0.100000*%
G04 APERTURE END LIST*
D10*
G36*
X263265256Y-117771298D02*
X263371579Y-117792447D01*
X263672042Y-117916903D01*
X263740968Y-117962958D01*
X263942454Y-118097587D01*
X264172413Y-118327546D01*
X264172415Y-118327549D01*
X264353097Y-118597958D01*
X264477553Y-118898421D01*
X264479381Y-118907611D01*
X264541000Y-119217389D01*
X264541000Y-119542611D01*
X264477553Y-119861578D01*
X264353098Y-120162040D01*
X264172413Y-120432454D01*
X263942454Y-120662413D01*
X263942451Y-120662415D01*
X263672042Y-120843097D01*
X263371579Y-120967553D01*
X263265256Y-120988702D01*
X263052611Y-121031000D01*
X262727389Y-121031000D01*
X262514744Y-120988702D01*
X262408421Y-120967553D01*
X262107958Y-120843097D01*
X261837549Y-120662415D01*
X261837546Y-120662413D01*
X261607587Y-120432454D01*
X261426902Y-120162040D01*
X261302447Y-119861578D01*
X261239000Y-119542611D01*
X261239000Y-119217389D01*
X261300619Y-118907611D01*
X261302447Y-118898421D01*
X261426903Y-118597958D01*
X261607585Y-118327549D01*
X261607587Y-118327546D01*
X261837546Y-118097587D01*
X262039032Y-117962958D01*
X262107958Y-117916903D01*
X262408421Y-117792447D01*
X262514744Y-117771298D01*
X262727389Y-117729000D01*
X263052611Y-117729000D01*
X263265256Y-117771298D01*
X263265256Y-117771298D01*
G37*
G36*
X220085256Y-117136298D02*
X220191579Y-117157447D01*
X220492042Y-117281903D01*
X220758852Y-117460180D01*
X220762454Y-117462587D01*
X220992413Y-117692546D01*
X220992415Y-117692549D01*
X221173097Y-117962958D01*
X221297553Y-118263421D01*
X221361000Y-118582391D01*
X221361000Y-118907609D01*
X221299381Y-119217391D01*
X221297553Y-119226578D01*
X221173098Y-119527040D01*
X220992413Y-119797454D01*
X220762454Y-120027413D01*
X220762451Y-120027415D01*
X220492042Y-120208097D01*
X220191579Y-120332553D01*
X220085256Y-120353702D01*
X219872611Y-120396000D01*
X219547389Y-120396000D01*
X219334744Y-120353702D01*
X219228421Y-120332553D01*
X218927958Y-120208097D01*
X218657549Y-120027415D01*
X218657546Y-120027413D01*
X218427587Y-119797454D01*
X218246902Y-119527040D01*
X218122447Y-119226578D01*
X218120620Y-119217391D01*
X218059000Y-118907609D01*
X218059000Y-118582391D01*
X218122447Y-118263421D01*
X218246903Y-117962958D01*
X218427585Y-117692549D01*
X218427587Y-117692546D01*
X218657546Y-117462587D01*
X218661148Y-117460180D01*
X218927958Y-117281903D01*
X219228421Y-117157447D01*
X219334744Y-117136298D01*
X219547389Y-117094000D01*
X219872611Y-117094000D01*
X220085256Y-117136298D01*
X220085256Y-117136298D01*
G37*
G36*
X260438643Y-108679781D02*
X260584415Y-108740162D01*
X260715611Y-108827824D01*
X260827176Y-108939389D01*
X260914838Y-109070585D01*
X260975219Y-109216357D01*
X261006000Y-109371107D01*
X261006000Y-109528893D01*
X260975219Y-109683643D01*
X260914838Y-109829415D01*
X260827176Y-109960611D01*
X260715611Y-110072176D01*
X260584415Y-110159838D01*
X260438643Y-110220219D01*
X260283893Y-110251000D01*
X260126107Y-110251000D01*
X259971357Y-110220219D01*
X259825585Y-110159838D01*
X259694389Y-110072176D01*
X259582824Y-109960611D01*
X259495162Y-109829415D01*
X259434781Y-109683643D01*
X259404000Y-109528893D01*
X259404000Y-109371107D01*
X259434781Y-109216357D01*
X259495162Y-109070585D01*
X259582824Y-108939389D01*
X259694389Y-108827824D01*
X259825585Y-108740162D01*
X259971357Y-108679781D01*
X260126107Y-108649000D01*
X260283893Y-108649000D01*
X260438643Y-108679781D01*
X260438643Y-108679781D01*
G37*
G36*
X257438643Y-108679781D02*
X257584415Y-108740162D01*
X257715611Y-108827824D01*
X257827176Y-108939389D01*
X257914838Y-109070585D01*
X257975219Y-109216357D01*
X258006000Y-109371107D01*
X258006000Y-109528893D01*
X257975219Y-109683643D01*
X257914838Y-109829415D01*
X257827176Y-109960611D01*
X257715611Y-110072176D01*
X257584415Y-110159838D01*
X257438643Y-110220219D01*
X257283893Y-110251000D01*
X257126107Y-110251000D01*
X256971357Y-110220219D01*
X256825585Y-110159838D01*
X256694389Y-110072176D01*
X256582824Y-109960611D01*
X256495162Y-109829415D01*
X256434781Y-109683643D01*
X256404000Y-109528893D01*
X256404000Y-109371107D01*
X256434781Y-109216357D01*
X256495162Y-109070585D01*
X256582824Y-108939389D01*
X256694389Y-108827824D01*
X256825585Y-108740162D01*
X256971357Y-108679781D01*
X257126107Y-108649000D01*
X257283893Y-108649000D01*
X257438643Y-108679781D01*
X257438643Y-108679781D01*
G37*
G36*
X253237527Y-106438736D02*
X253337410Y-106458604D01*
X253619674Y-106575521D01*
X253873705Y-106745259D01*
X254089741Y-106961295D01*
X254259479Y-107215326D01*
X254376396Y-107497590D01*
X254436000Y-107797240D01*
X254436000Y-108102760D01*
X254376396Y-108402410D01*
X254259479Y-108684674D01*
X254089741Y-108938705D01*
X253873705Y-109154741D01*
X253619674Y-109324479D01*
X253337410Y-109441396D01*
X253237527Y-109461264D01*
X253037762Y-109501000D01*
X252732238Y-109501000D01*
X252532473Y-109461264D01*
X252432590Y-109441396D01*
X252150326Y-109324479D01*
X251896295Y-109154741D01*
X251680259Y-108938705D01*
X251510521Y-108684674D01*
X251393604Y-108402410D01*
X251334000Y-108102760D01*
X251334000Y-107797240D01*
X251393604Y-107497590D01*
X251510521Y-107215326D01*
X251680259Y-106961295D01*
X251896295Y-106745259D01*
X252150326Y-106575521D01*
X252432590Y-106458604D01*
X252532473Y-106438736D01*
X252732238Y-106399000D01*
X253037762Y-106399000D01*
X253237527Y-106438736D01*
X253237527Y-106438736D01*
G37*
G36*
X260438643Y-105679781D02*
X260584415Y-105740162D01*
X260715611Y-105827824D01*
X260827176Y-105939389D01*
X260914838Y-106070585D01*
X260975219Y-106216357D01*
X261006000Y-106371107D01*
X261006000Y-106528893D01*
X260975219Y-106683643D01*
X260914838Y-106829415D01*
X260827176Y-106960611D01*
X260715611Y-107072176D01*
X260584415Y-107159838D01*
X260438643Y-107220219D01*
X260283893Y-107251000D01*
X260126107Y-107251000D01*
X259971357Y-107220219D01*
X259825585Y-107159838D01*
X259694389Y-107072176D01*
X259582824Y-106960611D01*
X259495162Y-106829415D01*
X259434781Y-106683643D01*
X259404000Y-106528893D01*
X259404000Y-106371107D01*
X259434781Y-106216357D01*
X259495162Y-106070585D01*
X259582824Y-105939389D01*
X259694389Y-105827824D01*
X259825585Y-105740162D01*
X259971357Y-105679781D01*
X260126107Y-105649000D01*
X260283893Y-105649000D01*
X260438643Y-105679781D01*
X260438643Y-105679781D01*
G37*
G36*
X257438643Y-105679781D02*
X257584415Y-105740162D01*
X257715611Y-105827824D01*
X257827176Y-105939389D01*
X257914838Y-106070585D01*
X257975219Y-106216357D01*
X258006000Y-106371107D01*
X258006000Y-106528893D01*
X257975219Y-106683643D01*
X257914838Y-106829415D01*
X257827176Y-106960611D01*
X257715611Y-107072176D01*
X257584415Y-107159838D01*
X257438643Y-107220219D01*
X257283893Y-107251000D01*
X257126107Y-107251000D01*
X256971357Y-107220219D01*
X256825585Y-107159838D01*
X256694389Y-107072176D01*
X256582824Y-106960611D01*
X256495162Y-106829415D01*
X256434781Y-106683643D01*
X256404000Y-106528893D01*
X256404000Y-106371107D01*
X256434781Y-106216357D01*
X256495162Y-106070585D01*
X256582824Y-105939389D01*
X256694389Y-105827824D01*
X256825585Y-105740162D01*
X256971357Y-105679781D01*
X257126107Y-105649000D01*
X257283893Y-105649000D01*
X257438643Y-105679781D01*
X257438643Y-105679781D01*
G37*
G36*
X222231000Y-94596000D02*
X219729000Y-94596000D01*
X219729000Y-92094000D01*
X222231000Y-92094000D01*
X222231000Y-94596000D01*
X222231000Y-94596000D01*
G37*
G36*
X254723567Y-87574959D02*
X254854072Y-87600918D01*
X255099939Y-87702759D01*
X255320464Y-87850110D01*
X255321215Y-87850612D01*
X255509388Y-88038785D01*
X255509390Y-88038788D01*
X255657241Y-88260061D01*
X255743460Y-88468213D01*
X255759082Y-88505929D01*
X255799655Y-88709900D01*
X255811000Y-88766938D01*
X255811000Y-89033062D01*
X255759082Y-89294072D01*
X255657241Y-89539939D01*
X255509890Y-89760464D01*
X255509388Y-89761215D01*
X255321215Y-89949388D01*
X255321212Y-89949390D01*
X255099939Y-90097241D01*
X254854072Y-90199082D01*
X254723567Y-90225041D01*
X254593063Y-90251000D01*
X254326937Y-90251000D01*
X254196433Y-90225041D01*
X254065928Y-90199082D01*
X253820061Y-90097241D01*
X253598788Y-89949390D01*
X253598785Y-89949388D01*
X253410612Y-89761215D01*
X253410110Y-89760464D01*
X253262759Y-89539939D01*
X253160918Y-89294072D01*
X253109000Y-89033062D01*
X253109000Y-88766938D01*
X253120346Y-88709900D01*
X253160918Y-88505929D01*
X253176540Y-88468213D01*
X253262759Y-88260061D01*
X253410610Y-88038788D01*
X253410612Y-88038785D01*
X253598785Y-87850612D01*
X253599536Y-87850110D01*
X253820061Y-87702759D01*
X254065928Y-87600918D01*
X254196433Y-87574959D01*
X254326937Y-87549000D01*
X254593063Y-87549000D01*
X254723567Y-87574959D01*
X254723567Y-87574959D01*
G37*
G36*
X248723567Y-87574959D02*
X248854072Y-87600918D01*
X249099939Y-87702759D01*
X249320464Y-87850110D01*
X249321215Y-87850612D01*
X249509388Y-88038785D01*
X249509390Y-88038788D01*
X249657241Y-88260061D01*
X249743460Y-88468213D01*
X249759082Y-88505929D01*
X249799655Y-88709900D01*
X249811000Y-88766938D01*
X249811000Y-89033062D01*
X249759082Y-89294072D01*
X249657241Y-89539939D01*
X249509890Y-89760464D01*
X249509388Y-89761215D01*
X249321215Y-89949388D01*
X249321212Y-89949390D01*
X249099939Y-90097241D01*
X248854072Y-90199082D01*
X248723567Y-90225041D01*
X248593063Y-90251000D01*
X248326937Y-90251000D01*
X248196433Y-90225041D01*
X248065928Y-90199082D01*
X247820061Y-90097241D01*
X247598788Y-89949390D01*
X247598785Y-89949388D01*
X247410612Y-89761215D01*
X247410110Y-89760464D01*
X247262759Y-89539939D01*
X247160918Y-89294072D01*
X247109000Y-89033062D01*
X247109000Y-88766938D01*
X247120346Y-88709900D01*
X247160918Y-88505929D01*
X247176540Y-88468213D01*
X247262759Y-88260061D01*
X247410610Y-88038788D01*
X247410612Y-88038785D01*
X247598785Y-87850612D01*
X247599536Y-87850110D01*
X247820061Y-87702759D01*
X248065928Y-87600918D01*
X248196433Y-87574959D01*
X248326937Y-87549000D01*
X248593063Y-87549000D01*
X248723567Y-87574959D01*
X248723567Y-87574959D01*
G37*
G36*
X221163635Y-87106019D02*
X221344903Y-87142075D01*
X221572571Y-87236378D01*
X221776542Y-87372668D01*
X221777469Y-87373287D01*
X221951713Y-87547531D01*
X221951715Y-87547534D01*
X222088622Y-87752429D01*
X222182925Y-87980097D01*
X222231000Y-88221787D01*
X222231000Y-88468213D01*
X222182925Y-88709903D01*
X222088622Y-88937571D01*
X222024816Y-89033063D01*
X221951713Y-89142469D01*
X221777469Y-89316713D01*
X221777466Y-89316715D01*
X221572571Y-89453622D01*
X221344903Y-89547925D01*
X221163635Y-89583981D01*
X221103214Y-89596000D01*
X220856786Y-89596000D01*
X220796365Y-89583981D01*
X220615097Y-89547925D01*
X220387429Y-89453622D01*
X220182534Y-89316715D01*
X220182531Y-89316713D01*
X220008287Y-89142469D01*
X219935184Y-89033063D01*
X219871378Y-88937571D01*
X219777075Y-88709903D01*
X219729000Y-88468213D01*
X219729000Y-88221787D01*
X219777075Y-87980097D01*
X219871378Y-87752429D01*
X220008285Y-87547534D01*
X220008287Y-87547531D01*
X220182531Y-87373287D01*
X220183458Y-87372668D01*
X220387429Y-87236378D01*
X220615097Y-87142075D01*
X220796365Y-87106019D01*
X220856786Y-87094000D01*
X221103214Y-87094000D01*
X221163635Y-87106019D01*
X221163635Y-87106019D01*
G37*
G36*
X251723567Y-82874959D02*
X251854072Y-82900918D01*
X252099939Y-83002759D01*
X252320464Y-83150110D01*
X252321215Y-83150612D01*
X252509388Y-83338785D01*
X252509390Y-83338788D01*
X252657241Y-83560061D01*
X252759082Y-83805928D01*
X252811000Y-84066938D01*
X252811000Y-84333062D01*
X252759082Y-84594072D01*
X252657241Y-84839939D01*
X252509890Y-85060464D01*
X252509388Y-85061215D01*
X252321215Y-85249388D01*
X252321212Y-85249390D01*
X252099939Y-85397241D01*
X251854072Y-85499082D01*
X251723567Y-85525041D01*
X251593063Y-85551000D01*
X251326937Y-85551000D01*
X251196433Y-85525041D01*
X251065928Y-85499082D01*
X250820061Y-85397241D01*
X250598788Y-85249390D01*
X250598785Y-85249388D01*
X250410612Y-85061215D01*
X250410110Y-85060464D01*
X250262759Y-84839939D01*
X250160918Y-84594072D01*
X250109000Y-84333062D01*
X250109000Y-84066938D01*
X250160918Y-83805928D01*
X250262759Y-83560061D01*
X250410610Y-83338788D01*
X250410612Y-83338785D01*
X250598785Y-83150612D01*
X250599536Y-83150110D01*
X250820061Y-83002759D01*
X251065928Y-82900918D01*
X251196433Y-82874959D01*
X251326937Y-82849000D01*
X251593063Y-82849000D01*
X251723567Y-82874959D01*
X251723567Y-82874959D01*
G37*
G36*
X222231000Y-78086000D02*
X219729000Y-78086000D01*
X219729000Y-75584000D01*
X222231000Y-75584000D01*
X222231000Y-78086000D01*
X222231000Y-78086000D01*
G37*
G36*
X254723567Y-72969959D02*
X254854072Y-72995918D01*
X255099939Y-73097759D01*
X255320464Y-73245110D01*
X255321215Y-73245612D01*
X255509388Y-73433785D01*
X255509390Y-73433788D01*
X255657241Y-73655061D01*
X255759082Y-73900928D01*
X255811000Y-74161938D01*
X255811000Y-74428062D01*
X255759082Y-74689072D01*
X255657241Y-74934939D01*
X255509890Y-75155464D01*
X255509388Y-75156215D01*
X255321215Y-75344388D01*
X255321212Y-75344390D01*
X255099939Y-75492241D01*
X254854072Y-75594082D01*
X254723567Y-75620041D01*
X254593063Y-75646000D01*
X254326937Y-75646000D01*
X254196433Y-75620041D01*
X254065928Y-75594082D01*
X253820061Y-75492241D01*
X253598788Y-75344390D01*
X253598785Y-75344388D01*
X253410612Y-75156215D01*
X253410110Y-75155464D01*
X253262759Y-74934939D01*
X253160918Y-74689072D01*
X253109000Y-74428062D01*
X253109000Y-74161938D01*
X253160918Y-73900928D01*
X253262759Y-73655061D01*
X253410610Y-73433788D01*
X253410612Y-73433785D01*
X253598785Y-73245612D01*
X253599536Y-73245110D01*
X253820061Y-73097759D01*
X254065928Y-72995918D01*
X254196433Y-72969959D01*
X254326937Y-72944000D01*
X254593063Y-72944000D01*
X254723567Y-72969959D01*
X254723567Y-72969959D01*
G37*
G36*
X248723567Y-72969959D02*
X248854072Y-72995918D01*
X249099939Y-73097759D01*
X249320464Y-73245110D01*
X249321215Y-73245612D01*
X249509388Y-73433785D01*
X249509390Y-73433788D01*
X249657241Y-73655061D01*
X249759082Y-73900928D01*
X249811000Y-74161938D01*
X249811000Y-74428062D01*
X249759082Y-74689072D01*
X249657241Y-74934939D01*
X249509890Y-75155464D01*
X249509388Y-75156215D01*
X249321215Y-75344388D01*
X249321212Y-75344390D01*
X249099939Y-75492241D01*
X248854072Y-75594082D01*
X248723567Y-75620041D01*
X248593063Y-75646000D01*
X248326937Y-75646000D01*
X248196433Y-75620041D01*
X248065928Y-75594082D01*
X247820061Y-75492241D01*
X247598788Y-75344390D01*
X247598785Y-75344388D01*
X247410612Y-75156215D01*
X247410110Y-75155464D01*
X247262759Y-74934939D01*
X247160918Y-74689072D01*
X247109000Y-74428062D01*
X247109000Y-74161938D01*
X247160918Y-73900928D01*
X247262759Y-73655061D01*
X247410610Y-73433788D01*
X247410612Y-73433785D01*
X247598785Y-73245612D01*
X247599536Y-73245110D01*
X247820061Y-73097759D01*
X248065928Y-72995918D01*
X248196433Y-72969959D01*
X248326937Y-72944000D01*
X248593063Y-72944000D01*
X248723567Y-72969959D01*
X248723567Y-72969959D01*
G37*
G36*
X221163635Y-70596019D02*
X221344903Y-70632075D01*
X221572571Y-70726378D01*
X221776542Y-70862668D01*
X221777469Y-70863287D01*
X221951713Y-71037531D01*
X221951715Y-71037534D01*
X222088622Y-71242429D01*
X222182925Y-71470097D01*
X222231000Y-71711787D01*
X222231000Y-71958213D01*
X222182925Y-72199903D01*
X222088622Y-72427571D01*
X221952332Y-72631542D01*
X221951713Y-72632469D01*
X221777469Y-72806713D01*
X221777466Y-72806715D01*
X221572571Y-72943622D01*
X221344903Y-73037925D01*
X221163636Y-73073981D01*
X221103214Y-73086000D01*
X220856786Y-73086000D01*
X220796364Y-73073981D01*
X220615097Y-73037925D01*
X220387429Y-72943622D01*
X220182534Y-72806715D01*
X220182531Y-72806713D01*
X220008287Y-72632469D01*
X220007668Y-72631542D01*
X219871378Y-72427571D01*
X219777075Y-72199903D01*
X219729000Y-71958213D01*
X219729000Y-71711787D01*
X219777075Y-71470097D01*
X219871378Y-71242429D01*
X220008285Y-71037534D01*
X220008287Y-71037531D01*
X220182531Y-70863287D01*
X220183458Y-70862668D01*
X220387429Y-70726378D01*
X220615097Y-70632075D01*
X220796364Y-70596019D01*
X220856786Y-70584000D01*
X221103214Y-70584000D01*
X221163635Y-70596019D01*
X221163635Y-70596019D01*
G37*
G36*
X251723567Y-68269959D02*
X251854072Y-68295918D01*
X252099939Y-68397759D01*
X252320464Y-68545110D01*
X252321215Y-68545612D01*
X252509388Y-68733785D01*
X252509390Y-68733788D01*
X252657241Y-68955061D01*
X252759082Y-69200928D01*
X252811000Y-69461938D01*
X252811000Y-69728062D01*
X252759082Y-69989072D01*
X252657241Y-70234939D01*
X252509890Y-70455464D01*
X252509388Y-70456215D01*
X252321215Y-70644388D01*
X252321212Y-70644390D01*
X252099939Y-70792241D01*
X251854072Y-70894082D01*
X251723567Y-70920041D01*
X251593063Y-70946000D01*
X251326937Y-70946000D01*
X251196433Y-70920041D01*
X251065928Y-70894082D01*
X250820061Y-70792241D01*
X250598788Y-70644390D01*
X250598785Y-70644388D01*
X250410612Y-70456215D01*
X250410110Y-70455464D01*
X250262759Y-70234939D01*
X250160918Y-69989072D01*
X250109000Y-69728062D01*
X250109000Y-69461938D01*
X250160918Y-69200928D01*
X250262759Y-68955061D01*
X250410610Y-68733788D01*
X250410612Y-68733785D01*
X250598785Y-68545612D01*
X250599536Y-68545110D01*
X250820061Y-68397759D01*
X251065928Y-68295918D01*
X251196433Y-68269959D01*
X251326937Y-68244000D01*
X251593063Y-68244000D01*
X251723567Y-68269959D01*
X251723567Y-68269959D01*
G37*
G36*
X263265256Y-61891298D02*
X263371579Y-61912447D01*
X263672042Y-62036903D01*
X263740968Y-62082958D01*
X263942454Y-62217587D01*
X264172413Y-62447546D01*
X264172415Y-62447549D01*
X264353097Y-62717958D01*
X264477553Y-63018421D01*
X264479381Y-63027611D01*
X264541000Y-63337389D01*
X264541000Y-63662611D01*
X264477553Y-63981578D01*
X264353098Y-64282040D01*
X264172413Y-64552454D01*
X263942454Y-64782413D01*
X263942451Y-64782415D01*
X263672042Y-64963097D01*
X263371579Y-65087553D01*
X263265256Y-65108702D01*
X263052611Y-65151000D01*
X262727389Y-65151000D01*
X262514744Y-65108702D01*
X262408421Y-65087553D01*
X262107958Y-64963097D01*
X261837549Y-64782415D01*
X261837546Y-64782413D01*
X261607587Y-64552454D01*
X261426902Y-64282040D01*
X261302447Y-63981578D01*
X261239000Y-63662611D01*
X261239000Y-63337389D01*
X261300619Y-63027611D01*
X261302447Y-63018421D01*
X261426903Y-62717958D01*
X261607585Y-62447549D01*
X261607587Y-62447546D01*
X261837546Y-62217587D01*
X262039032Y-62082958D01*
X262107958Y-62036903D01*
X262408421Y-61912447D01*
X262514744Y-61891298D01*
X262727389Y-61849000D01*
X263052611Y-61849000D01*
X263265256Y-61891298D01*
X263265256Y-61891298D01*
G37*
G36*
X219450256Y-61256298D02*
X219556579Y-61277447D01*
X219857042Y-61401903D01*
X220123852Y-61580180D01*
X220127454Y-61582587D01*
X220357413Y-61812546D01*
X220357415Y-61812549D01*
X220538097Y-62082958D01*
X220662553Y-62383421D01*
X220726000Y-62702391D01*
X220726000Y-63027609D01*
X220664381Y-63337391D01*
X220662553Y-63346578D01*
X220538098Y-63647040D01*
X220357413Y-63917454D01*
X220127454Y-64147413D01*
X220127451Y-64147415D01*
X219857042Y-64328097D01*
X219556579Y-64452553D01*
X219450256Y-64473702D01*
X219237611Y-64516000D01*
X218912389Y-64516000D01*
X218699744Y-64473702D01*
X218593421Y-64452553D01*
X218292958Y-64328097D01*
X218022549Y-64147415D01*
X218022546Y-64147413D01*
X217792587Y-63917454D01*
X217611902Y-63647040D01*
X217487447Y-63346578D01*
X217485620Y-63337391D01*
X217424000Y-63027609D01*
X217424000Y-62702391D01*
X217487447Y-62383421D01*
X217611903Y-62082958D01*
X217792585Y-61812549D01*
X217792587Y-61812546D01*
X218022546Y-61582587D01*
X218026148Y-61580180D01*
X218292958Y-61401903D01*
X218593421Y-61277447D01*
X218699744Y-61256298D01*
X218912389Y-61214000D01*
X219237611Y-61214000D01*
X219450256Y-61256298D01*
X219450256Y-61256298D01*
G37*
M02*
