M48
;DRILL file {KiCad (5.0.1)-3} date 2018-12-28 4:40:06 PM
;FORMAT={2:4/ absolute / inch / suppress trailing zeros}
FMAT,2
INCH,LZ
T1C0.0157
T2C0.0394
T3C0.0579
T4C0.0630
T5C0.1181
T6C0.1260
%
G90
G05
M72
T1
X09925Y-0315
X1015Y-0315
T2
X101262Y-041909
X101262Y-043091
X102443Y-041909
X102443Y-043091
T3
X087Y-028281
X087Y-03025
X087Y-034781
X087Y-03675
T4
X097819Y-035
X099Y-03315
X100181Y-035
X097819Y-02925
X099Y-0274
X100181Y-02925
T5
X099561Y-0425
T6
X1035Y-047
X1035Y-025
X0865Y-04675
X08625Y-02475
T0
M30
