G04 #@! TF.GenerationSoftware,KiCad,Pcbnew,(5.0.1)-3*
G04 #@! TF.CreationDate,2018-12-28T16:37:43-07:00*
G04 #@! TF.ProjectId,New_battery,4E65775F626174746572792E6B696361,rev?*
G04 #@! TF.SameCoordinates,Original*
G04 #@! TF.FileFunction,Legend,Top*
G04 #@! TF.FilePolarity,Positive*
%FSLAX46Y46*%
G04 Gerber Fmt 4.6, Leading zero omitted, Abs format (unit mm)*
G04 Created by KiCad (PCBNEW (5.0.1)-3) date 2018-12-28 4:37:43 PM*
%MOMM*%
%LPD*%
G01*
G04 APERTURE LIST*
%ADD10C,0.120000*%
%ADD11C,0.203200*%
%ADD12C,0.150000*%
%ADD13C,0.152400*%
G04 APERTURE END LIST*
D10*
G04 #@! TO.C,C1*
X243823748Y-79300000D02*
X244346252Y-79300000D01*
X243823748Y-80720000D02*
X244346252Y-80720000D01*
G04 #@! TO.C,C2*
X237228748Y-81355000D02*
X237751252Y-81355000D01*
X237228748Y-79935000D02*
X237751252Y-79935000D01*
G04 #@! TO.C,C3*
X236203748Y-97715000D02*
X236726252Y-97715000D01*
X236203748Y-99135000D02*
X236726252Y-99135000D01*
G04 #@! TO.C,C4*
X232036252Y-94540000D02*
X231513748Y-94540000D01*
X232036252Y-95960000D02*
X231513748Y-95960000D01*
G04 #@! TO.C,C5*
X235456252Y-110415000D02*
X234933748Y-110415000D01*
X235456252Y-111835000D02*
X234933748Y-111835000D01*
G04 #@! TO.C,C6*
X252078748Y-97715000D02*
X252601252Y-97715000D01*
X252078748Y-99135000D02*
X252601252Y-99135000D01*
G04 #@! TO.C,D1*
X242260000Y-68945000D02*
X242260000Y-66085000D01*
X242260000Y-66085000D02*
X240340000Y-66085000D01*
X240340000Y-66085000D02*
X240340000Y-68945000D01*
D11*
G04 #@! TO.C,J1*
X261560000Y-91900000D02*
X251460000Y-91900000D01*
X251460000Y-91900000D02*
X251460000Y-85900000D01*
X251460000Y-85900000D02*
X261660000Y-85900000D01*
X258060000Y-84400000D02*
X258060000Y-93400000D01*
X247060000Y-84400000D02*
X247060000Y-93400000D01*
X247060000Y-93400000D02*
X261560000Y-93400000D01*
X261560000Y-93400000D02*
X261560000Y-84400000D01*
X261560000Y-84400000D02*
X247060000Y-84400000D01*
D10*
G04 #@! TO.C,J3*
X216680000Y-85145000D02*
X224280000Y-85145000D01*
X216680000Y-96545000D02*
X216680000Y-85145000D01*
X224280000Y-96545000D02*
X216680000Y-96545000D01*
G04 #@! TO.C,J4*
X224280000Y-80035000D02*
X216680000Y-80035000D01*
X216680000Y-80035000D02*
X216680000Y-68635000D01*
X216680000Y-68635000D02*
X224280000Y-68635000D01*
D11*
G04 #@! TO.C,J6*
X261560000Y-69795000D02*
X247060000Y-69795000D01*
X261560000Y-78795000D02*
X261560000Y-69795000D01*
X247060000Y-78795000D02*
X261560000Y-78795000D01*
X247060000Y-69795000D02*
X247060000Y-78795000D01*
X258060000Y-69795000D02*
X258060000Y-78795000D01*
X251460000Y-71295000D02*
X261660000Y-71295000D01*
X251460000Y-77295000D02*
X251460000Y-71295000D01*
X261560000Y-77295000D02*
X251460000Y-77295000D01*
D10*
G04 #@! TO.C,R1*
X245090483Y-66235000D02*
X244724517Y-66235000D01*
X245090483Y-69655000D02*
X244724517Y-69655000D01*
G04 #@! TO.C,R2*
X235767983Y-76005000D02*
X235402017Y-76005000D01*
X235767983Y-72585000D02*
X235402017Y-72585000D01*
G04 #@! TO.C,R3*
X231389517Y-99255000D02*
X231755483Y-99255000D01*
X231389517Y-102675000D02*
X231755483Y-102675000D01*
G04 #@! TO.C,R4*
X241482983Y-96715000D02*
X241117017Y-96715000D01*
X241482983Y-100135000D02*
X241117017Y-100135000D01*
G04 #@! TO.C,R5*
X231592017Y-108390000D02*
X231957983Y-108390000D01*
X231592017Y-104970000D02*
X231957983Y-104970000D01*
G04 #@! TO.C,R6*
X248522500Y-98242017D02*
X248522500Y-98607983D01*
X245102500Y-98242017D02*
X245102500Y-98607983D01*
D12*
G04 #@! TO.C,U1*
X239903000Y-72644000D02*
X242697000Y-72644000D01*
X242697000Y-72644000D02*
X242697000Y-75819000D01*
X242697000Y-75819000D02*
X239903000Y-75819000D01*
X239903000Y-75819000D02*
X239903000Y-72644000D01*
G04 #@! TO.C,U2*
X241935000Y-106172000D02*
X241935000Y-108712000D01*
X241935000Y-108712000D02*
X239395000Y-108712000D01*
X239395000Y-108712000D02*
X239395000Y-105918000D01*
X239395000Y-105918000D02*
X241935000Y-105918000D01*
X241935000Y-105918000D02*
X241935000Y-106172000D01*
G04 #@! TO.C,C1*
X243918333Y-78717142D02*
X243870714Y-78764761D01*
X243727857Y-78812380D01*
X243632619Y-78812380D01*
X243489761Y-78764761D01*
X243394523Y-78669523D01*
X243346904Y-78574285D01*
X243299285Y-78383809D01*
X243299285Y-78240952D01*
X243346904Y-78050476D01*
X243394523Y-77955238D01*
X243489761Y-77860000D01*
X243632619Y-77812380D01*
X243727857Y-77812380D01*
X243870714Y-77860000D01*
X243918333Y-77907619D01*
X244870714Y-78812380D02*
X244299285Y-78812380D01*
X244585000Y-78812380D02*
X244585000Y-77812380D01*
X244489761Y-77955238D01*
X244394523Y-78050476D01*
X244299285Y-78098095D01*
G04 #@! TO.C,C2*
X237323333Y-79352142D02*
X237275714Y-79399761D01*
X237132857Y-79447380D01*
X237037619Y-79447380D01*
X236894761Y-79399761D01*
X236799523Y-79304523D01*
X236751904Y-79209285D01*
X236704285Y-79018809D01*
X236704285Y-78875952D01*
X236751904Y-78685476D01*
X236799523Y-78590238D01*
X236894761Y-78495000D01*
X237037619Y-78447380D01*
X237132857Y-78447380D01*
X237275714Y-78495000D01*
X237323333Y-78542619D01*
X237704285Y-78542619D02*
X237751904Y-78495000D01*
X237847142Y-78447380D01*
X238085238Y-78447380D01*
X238180476Y-78495000D01*
X238228095Y-78542619D01*
X238275714Y-78637857D01*
X238275714Y-78733095D01*
X238228095Y-78875952D01*
X237656666Y-79447380D01*
X238275714Y-79447380D01*
G04 #@! TO.C,C3*
X236298333Y-97132142D02*
X236250714Y-97179761D01*
X236107857Y-97227380D01*
X236012619Y-97227380D01*
X235869761Y-97179761D01*
X235774523Y-97084523D01*
X235726904Y-96989285D01*
X235679285Y-96798809D01*
X235679285Y-96655952D01*
X235726904Y-96465476D01*
X235774523Y-96370238D01*
X235869761Y-96275000D01*
X236012619Y-96227380D01*
X236107857Y-96227380D01*
X236250714Y-96275000D01*
X236298333Y-96322619D01*
X236631666Y-96227380D02*
X237250714Y-96227380D01*
X236917380Y-96608333D01*
X237060238Y-96608333D01*
X237155476Y-96655952D01*
X237203095Y-96703571D01*
X237250714Y-96798809D01*
X237250714Y-97036904D01*
X237203095Y-97132142D01*
X237155476Y-97179761D01*
X237060238Y-97227380D01*
X236774523Y-97227380D01*
X236679285Y-97179761D01*
X236631666Y-97132142D01*
G04 #@! TO.C,C4*
X231608333Y-93702142D02*
X231560714Y-93749761D01*
X231417857Y-93797380D01*
X231322619Y-93797380D01*
X231179761Y-93749761D01*
X231084523Y-93654523D01*
X231036904Y-93559285D01*
X230989285Y-93368809D01*
X230989285Y-93225952D01*
X231036904Y-93035476D01*
X231084523Y-92940238D01*
X231179761Y-92845000D01*
X231322619Y-92797380D01*
X231417857Y-92797380D01*
X231560714Y-92845000D01*
X231608333Y-92892619D01*
X232465476Y-93130714D02*
X232465476Y-93797380D01*
X232227380Y-92749761D02*
X231989285Y-93464047D01*
X232608333Y-93464047D01*
G04 #@! TO.C,C5*
X235028333Y-109577142D02*
X234980714Y-109624761D01*
X234837857Y-109672380D01*
X234742619Y-109672380D01*
X234599761Y-109624761D01*
X234504523Y-109529523D01*
X234456904Y-109434285D01*
X234409285Y-109243809D01*
X234409285Y-109100952D01*
X234456904Y-108910476D01*
X234504523Y-108815238D01*
X234599761Y-108720000D01*
X234742619Y-108672380D01*
X234837857Y-108672380D01*
X234980714Y-108720000D01*
X235028333Y-108767619D01*
X235933095Y-108672380D02*
X235456904Y-108672380D01*
X235409285Y-109148571D01*
X235456904Y-109100952D01*
X235552142Y-109053333D01*
X235790238Y-109053333D01*
X235885476Y-109100952D01*
X235933095Y-109148571D01*
X235980714Y-109243809D01*
X235980714Y-109481904D01*
X235933095Y-109577142D01*
X235885476Y-109624761D01*
X235790238Y-109672380D01*
X235552142Y-109672380D01*
X235456904Y-109624761D01*
X235409285Y-109577142D01*
G04 #@! TO.C,C6*
X252173333Y-97132142D02*
X252125714Y-97179761D01*
X251982857Y-97227380D01*
X251887619Y-97227380D01*
X251744761Y-97179761D01*
X251649523Y-97084523D01*
X251601904Y-96989285D01*
X251554285Y-96798809D01*
X251554285Y-96655952D01*
X251601904Y-96465476D01*
X251649523Y-96370238D01*
X251744761Y-96275000D01*
X251887619Y-96227380D01*
X251982857Y-96227380D01*
X252125714Y-96275000D01*
X252173333Y-96322619D01*
X253030476Y-96227380D02*
X252840000Y-96227380D01*
X252744761Y-96275000D01*
X252697142Y-96322619D01*
X252601904Y-96465476D01*
X252554285Y-96655952D01*
X252554285Y-97036904D01*
X252601904Y-97132142D01*
X252649523Y-97179761D01*
X252744761Y-97227380D01*
X252935238Y-97227380D01*
X253030476Y-97179761D01*
X253078095Y-97132142D01*
X253125714Y-97036904D01*
X253125714Y-96798809D01*
X253078095Y-96703571D01*
X253030476Y-96655952D01*
X252935238Y-96608333D01*
X252744761Y-96608333D01*
X252649523Y-96655952D01*
X252601904Y-96703571D01*
X252554285Y-96798809D01*
G04 #@! TO.C,D1*
X240561904Y-65857380D02*
X240561904Y-64857380D01*
X240800000Y-64857380D01*
X240942857Y-64905000D01*
X241038095Y-65000238D01*
X241085714Y-65095476D01*
X241133333Y-65285952D01*
X241133333Y-65428809D01*
X241085714Y-65619285D01*
X241038095Y-65714523D01*
X240942857Y-65809761D01*
X240800000Y-65857380D01*
X240561904Y-65857380D01*
X242085714Y-65857380D02*
X241514285Y-65857380D01*
X241800000Y-65857380D02*
X241800000Y-64857380D01*
X241704761Y-65000238D01*
X241609523Y-65095476D01*
X241514285Y-65143095D01*
G04 #@! TO.C,H1*
X218948095Y-114997380D02*
X218948095Y-113997380D01*
X218948095Y-114473571D02*
X219519523Y-114473571D01*
X219519523Y-114997380D02*
X219519523Y-113997380D01*
X220519523Y-114997380D02*
X219948095Y-114997380D01*
X220233809Y-114997380D02*
X220233809Y-113997380D01*
X220138571Y-114140238D01*
X220043333Y-114235476D01*
X219948095Y-114283095D01*
G04 #@! TO.C,H2*
X218313095Y-59117380D02*
X218313095Y-58117380D01*
X218313095Y-58593571D02*
X218884523Y-58593571D01*
X218884523Y-59117380D02*
X218884523Y-58117380D01*
X219313095Y-58212619D02*
X219360714Y-58165000D01*
X219455952Y-58117380D01*
X219694047Y-58117380D01*
X219789285Y-58165000D01*
X219836904Y-58212619D01*
X219884523Y-58307857D01*
X219884523Y-58403095D01*
X219836904Y-58545952D01*
X219265476Y-59117380D01*
X219884523Y-59117380D01*
G04 #@! TO.C,H3*
X262128095Y-59752380D02*
X262128095Y-58752380D01*
X262128095Y-59228571D02*
X262699523Y-59228571D01*
X262699523Y-59752380D02*
X262699523Y-58752380D01*
X263080476Y-58752380D02*
X263699523Y-58752380D01*
X263366190Y-59133333D01*
X263509047Y-59133333D01*
X263604285Y-59180952D01*
X263651904Y-59228571D01*
X263699523Y-59323809D01*
X263699523Y-59561904D01*
X263651904Y-59657142D01*
X263604285Y-59704761D01*
X263509047Y-59752380D01*
X263223333Y-59752380D01*
X263128095Y-59704761D01*
X263080476Y-59657142D01*
G04 #@! TO.C,H4*
X262128095Y-115632380D02*
X262128095Y-114632380D01*
X262128095Y-115108571D02*
X262699523Y-115108571D01*
X262699523Y-115632380D02*
X262699523Y-114632380D01*
X263604285Y-114965714D02*
X263604285Y-115632380D01*
X263366190Y-114584761D02*
X263128095Y-115299047D01*
X263747142Y-115299047D01*
G04 #@! TO.C,J1*
D13*
X255016000Y-82132714D02*
X255016000Y-82677000D01*
X254979714Y-82785857D01*
X254907142Y-82858428D01*
X254798285Y-82894714D01*
X254725714Y-82894714D01*
X255778000Y-82894714D02*
X255342571Y-82894714D01*
X255560285Y-82894714D02*
X255560285Y-82132714D01*
X255487714Y-82241571D01*
X255415142Y-82314142D01*
X255342571Y-82350428D01*
G04 #@! TO.C,J3*
D12*
X220646666Y-83272380D02*
X220646666Y-83986666D01*
X220599047Y-84129523D01*
X220503809Y-84224761D01*
X220360952Y-84272380D01*
X220265714Y-84272380D01*
X221027619Y-83272380D02*
X221646666Y-83272380D01*
X221313333Y-83653333D01*
X221456190Y-83653333D01*
X221551428Y-83700952D01*
X221599047Y-83748571D01*
X221646666Y-83843809D01*
X221646666Y-84081904D01*
X221599047Y-84177142D01*
X221551428Y-84224761D01*
X221456190Y-84272380D01*
X221170476Y-84272380D01*
X221075238Y-84224761D01*
X221027619Y-84177142D01*
G04 #@! TO.C,J4*
X220011666Y-66762380D02*
X220011666Y-67476666D01*
X219964047Y-67619523D01*
X219868809Y-67714761D01*
X219725952Y-67762380D01*
X219630714Y-67762380D01*
X220916428Y-67095714D02*
X220916428Y-67762380D01*
X220678333Y-66714761D02*
X220440238Y-67429047D01*
X221059285Y-67429047D01*
G04 #@! TO.C,J5*
X246046666Y-106767380D02*
X246046666Y-107481666D01*
X245999047Y-107624523D01*
X245903809Y-107719761D01*
X245760952Y-107767380D01*
X245665714Y-107767380D01*
X246999047Y-106767380D02*
X246522857Y-106767380D01*
X246475238Y-107243571D01*
X246522857Y-107195952D01*
X246618095Y-107148333D01*
X246856190Y-107148333D01*
X246951428Y-107195952D01*
X246999047Y-107243571D01*
X247046666Y-107338809D01*
X247046666Y-107576904D01*
X246999047Y-107672142D01*
X246951428Y-107719761D01*
X246856190Y-107767380D01*
X246618095Y-107767380D01*
X246522857Y-107719761D01*
X246475238Y-107672142D01*
G04 #@! TO.C,J6*
D13*
X254381000Y-68162714D02*
X254381000Y-68707000D01*
X254344714Y-68815857D01*
X254272142Y-68888428D01*
X254163285Y-68924714D01*
X254090714Y-68924714D01*
X255070428Y-68162714D02*
X254925285Y-68162714D01*
X254852714Y-68199000D01*
X254816428Y-68235285D01*
X254743857Y-68344142D01*
X254707571Y-68489285D01*
X254707571Y-68779571D01*
X254743857Y-68852142D01*
X254780142Y-68888428D01*
X254852714Y-68924714D01*
X254997857Y-68924714D01*
X255070428Y-68888428D01*
X255106714Y-68852142D01*
X255143000Y-68779571D01*
X255143000Y-68598142D01*
X255106714Y-68525571D01*
X255070428Y-68489285D01*
X254997857Y-68453000D01*
X254852714Y-68453000D01*
X254780142Y-68489285D01*
X254743857Y-68525571D01*
X254707571Y-68598142D01*
G04 #@! TO.C,R1*
D12*
X244740833Y-65857380D02*
X244407500Y-65381190D01*
X244169404Y-65857380D02*
X244169404Y-64857380D01*
X244550357Y-64857380D01*
X244645595Y-64905000D01*
X244693214Y-64952619D01*
X244740833Y-65047857D01*
X244740833Y-65190714D01*
X244693214Y-65285952D01*
X244645595Y-65333571D01*
X244550357Y-65381190D01*
X244169404Y-65381190D01*
X245693214Y-65857380D02*
X245121785Y-65857380D01*
X245407500Y-65857380D02*
X245407500Y-64857380D01*
X245312261Y-65000238D01*
X245217023Y-65095476D01*
X245121785Y-65143095D01*
G04 #@! TO.C,R2*
X235418333Y-72207380D02*
X235085000Y-71731190D01*
X234846904Y-72207380D02*
X234846904Y-71207380D01*
X235227857Y-71207380D01*
X235323095Y-71255000D01*
X235370714Y-71302619D01*
X235418333Y-71397857D01*
X235418333Y-71540714D01*
X235370714Y-71635952D01*
X235323095Y-71683571D01*
X235227857Y-71731190D01*
X234846904Y-71731190D01*
X235799285Y-71302619D02*
X235846904Y-71255000D01*
X235942142Y-71207380D01*
X236180238Y-71207380D01*
X236275476Y-71255000D01*
X236323095Y-71302619D01*
X236370714Y-71397857D01*
X236370714Y-71493095D01*
X236323095Y-71635952D01*
X235751666Y-72207380D01*
X236370714Y-72207380D01*
G04 #@! TO.C,R3*
X231405833Y-98767380D02*
X231072500Y-98291190D01*
X230834404Y-98767380D02*
X230834404Y-97767380D01*
X231215357Y-97767380D01*
X231310595Y-97815000D01*
X231358214Y-97862619D01*
X231405833Y-97957857D01*
X231405833Y-98100714D01*
X231358214Y-98195952D01*
X231310595Y-98243571D01*
X231215357Y-98291190D01*
X230834404Y-98291190D01*
X231739166Y-97767380D02*
X232358214Y-97767380D01*
X232024880Y-98148333D01*
X232167738Y-98148333D01*
X232262976Y-98195952D01*
X232310595Y-98243571D01*
X232358214Y-98338809D01*
X232358214Y-98576904D01*
X232310595Y-98672142D01*
X232262976Y-98719761D01*
X232167738Y-98767380D01*
X231882023Y-98767380D01*
X231786785Y-98719761D01*
X231739166Y-98672142D01*
G04 #@! TO.C,R4*
X241133333Y-96337380D02*
X240800000Y-95861190D01*
X240561904Y-96337380D02*
X240561904Y-95337380D01*
X240942857Y-95337380D01*
X241038095Y-95385000D01*
X241085714Y-95432619D01*
X241133333Y-95527857D01*
X241133333Y-95670714D01*
X241085714Y-95765952D01*
X241038095Y-95813571D01*
X240942857Y-95861190D01*
X240561904Y-95861190D01*
X241990476Y-95670714D02*
X241990476Y-96337380D01*
X241752380Y-95289761D02*
X241514285Y-96004047D01*
X242133333Y-96004047D01*
G04 #@! TO.C,R5*
X231608333Y-104482380D02*
X231275000Y-104006190D01*
X231036904Y-104482380D02*
X231036904Y-103482380D01*
X231417857Y-103482380D01*
X231513095Y-103530000D01*
X231560714Y-103577619D01*
X231608333Y-103672857D01*
X231608333Y-103815714D01*
X231560714Y-103910952D01*
X231513095Y-103958571D01*
X231417857Y-104006190D01*
X231036904Y-104006190D01*
X232513095Y-103482380D02*
X232036904Y-103482380D01*
X231989285Y-103958571D01*
X232036904Y-103910952D01*
X232132142Y-103863333D01*
X232370238Y-103863333D01*
X232465476Y-103910952D01*
X232513095Y-103958571D01*
X232560714Y-104053809D01*
X232560714Y-104291904D01*
X232513095Y-104387142D01*
X232465476Y-104434761D01*
X232370238Y-104482380D01*
X232132142Y-104482380D01*
X232036904Y-104434761D01*
X231989285Y-104387142D01*
G04 #@! TO.C,R6*
X246848333Y-96337380D02*
X246515000Y-95861190D01*
X246276904Y-96337380D02*
X246276904Y-95337380D01*
X246657857Y-95337380D01*
X246753095Y-95385000D01*
X246800714Y-95432619D01*
X246848333Y-95527857D01*
X246848333Y-95670714D01*
X246800714Y-95765952D01*
X246753095Y-95813571D01*
X246657857Y-95861190D01*
X246276904Y-95861190D01*
X247705476Y-95337380D02*
X247515000Y-95337380D01*
X247419761Y-95385000D01*
X247372142Y-95432619D01*
X247276904Y-95575476D01*
X247229285Y-95765952D01*
X247229285Y-96146904D01*
X247276904Y-96242142D01*
X247324523Y-96289761D01*
X247419761Y-96337380D01*
X247610238Y-96337380D01*
X247705476Y-96289761D01*
X247753095Y-96242142D01*
X247800714Y-96146904D01*
X247800714Y-95908809D01*
X247753095Y-95813571D01*
X247705476Y-95765952D01*
X247610238Y-95718333D01*
X247419761Y-95718333D01*
X247324523Y-95765952D01*
X247276904Y-95813571D01*
X247229285Y-95908809D01*
G04 #@! TO.C,U1*
X240538095Y-71207380D02*
X240538095Y-72016904D01*
X240585714Y-72112142D01*
X240633333Y-72159761D01*
X240728571Y-72207380D01*
X240919047Y-72207380D01*
X241014285Y-72159761D01*
X241061904Y-72112142D01*
X241109523Y-72016904D01*
X241109523Y-71207380D01*
X242109523Y-72207380D02*
X241538095Y-72207380D01*
X241823809Y-72207380D02*
X241823809Y-71207380D01*
X241728571Y-71350238D01*
X241633333Y-71445476D01*
X241538095Y-71493095D01*
G04 #@! TO.C,U2*
X239903095Y-109307380D02*
X239903095Y-110116904D01*
X239950714Y-110212142D01*
X239998333Y-110259761D01*
X240093571Y-110307380D01*
X240284047Y-110307380D01*
X240379285Y-110259761D01*
X240426904Y-110212142D01*
X240474523Y-110116904D01*
X240474523Y-109307380D01*
X240903095Y-109402619D02*
X240950714Y-109355000D01*
X241045952Y-109307380D01*
X241284047Y-109307380D01*
X241379285Y-109355000D01*
X241426904Y-109402619D01*
X241474523Y-109497857D01*
X241474523Y-109593095D01*
X241426904Y-109735952D01*
X240855476Y-110307380D01*
X241474523Y-110307380D01*
G04 #@! TD*
M02*
